<svg xmlns="http://www.w3.org/2000/svg">
  <symbol id="logo" viewBox="0 0 495.4 124.6">
    <path
      d="M109.4 87.4v-.6a4.122 4.122 0 0 1 .009-.283q.043-.617.291-.617a.309.309 0 0 1 .206.1q.319.3.694 1.5.1.3.15.6a3.407 3.407 0 0 1 .034.282q.012.145.015.308a6.069 6.069 0 0 1 .001.11 6.143 6.143 0 0 1-.289 1.797q-.237.776-.67 1.613a14.612 14.612 0 0 1-.791 1.34q-1.44 2.181-4.473 3.719a19.896 19.896 0 0 1-1.377.631 18.856 18.856 0 0 1-2.756.855q-3.159.744-7.694.945-6.75.3-14.45.4-5 7.6-12.55 13.1a69.852 69.852 0 0 1-9.257 5.738A57.86 57.86 0 0 1 50.5 121.6a49.652 49.652 0 0 1-4.864 1.583 40.337 40.337 0 0 1-3.186.717 44.282 44.282 0 0 1-4.413.585 35.861 35.861 0 0 1-2.837.115 31.027 31.027 0 0 1-4.499-.307q-3.996-.587-6.851-2.293a12.543 12.543 0 0 1-2.054-1.504q-1.076-.988-1.648-2.104a5.82 5.82 0 0 1-.648-2.692 6.132 6.132 0 0 1 .471-2.276q.687-1.724 2.379-3.624a15.513 15.513 0 0 1 2.507-2.222q2.602-1.882 6.615-3.526A50.147 50.147 0 0 1 31.6 104q9.8-4.1 20.8-5.25a217.698 217.698 0 0 1 21.97-1.149 237.456 237.456 0 0 1 .73-.001q3.9-9.7 7.4-19.3 3.5-9.6 6.2-19.6-1.378 3.139-3.46 6.923A134.194 134.194 0 0 1 83.9 68q-3 5.2-6.9 10.05a41.406 41.406 0 0 1-5.984 6.091A36.493 36.493 0 0 1 68.4 86.1q-5.8 3.9-12 3.9a13.081 13.081 0 0 1-4.398-.718A11.628 11.628 0 0 1 48.5 87.3a8.408 8.408 0 0 1-2.668-4.018Q45.2 81.338 45.2 78.8q0-.6.05-1.3.05-.7.15-1.4.8-5 3.25-10.8 2.45-5.8 5.6-11.45Q57.4 48.2 60.1 43.7q3.2-5.2 5.6-10.6a73.008 73.008 0 0 0 2.544-6.513A59.68 59.68 0 0 0 69.4 22.7a47.334 47.334 0 0 0 .792-3.581q.334-1.866.448-3.531a24.6 24.6 0 0 0 .06-1.688 16.894 16.894 0 0 0-.199-2.657 12.682 12.682 0 0 0-.651-2.493 7.198 7.198 0 0 0-1.288-2.199A6.566 6.566 0 0 0 67.1 5.3a17.807 17.807 0 0 0-7.151-2.578A23.111 23.111 0 0 0 56.7 2.5q-6.4 0-13.5 2.9a63.249 63.249 0 0 0-11.093 5.924 72.877 72.877 0 0 0-2.757 1.926Q22.6 18.2 17.3 24.5a55.259 55.259 0 0 0-5.908 8.458A47.275 47.275 0 0 0 9.1 37.6q-1.8 4.3-2.65 8a35.655 35.655 0 0 0-.634 3.524A26.263 26.263 0 0 0 5.6 52.4a22.981 22.981 0 0 0 .295 3.79q.493 2.941 1.805 5.16a14.497 14.497 0 0 0 3.224 3.83A13.352 13.352 0 0 0 13.2 66.7q3.4 1.8 7.3 1.8a19.522 19.522 0 0 0 6.2-1.032 21.91 21.91 0 0 0 .2-.068q3.5-1.2 6.55-4t5.4-6.3a34.167 34.167 0 0 0 2.735-4.86A29.701 29.701 0 0 0 42.5 50a24.951 24.951 0 0 0 .842-2.809q.458-1.969.458-3.691a9.501 9.501 0 0 0-.217-2.086 6.6 6.6 0 0 0-1.233-2.664Q40.9 36.9 37.6 36.9a11.094 11.094 0 0 0-1.413.095A14.486 14.486 0 0 0 35 37.2a3.947 3.947 0 0 1-.286.061q-.226.039-.414.039h-.5q-.512 0-.732-.129a.301.301 0 0 1-.168-.271.233.233 0 0 1 .034-.109q.109-.198.566-.541a2.864 2.864 0 0 1 .956-.478 2.72 2.72 0 0 1 .344-.072 31.533 31.533 0 0 1 1.888-.398q.943-.168 1.766-.242A13.875 13.875 0 0 1 39.7 35a11.546 11.546 0 0 1 2.241.203q2.423.48 3.759 2.097 1.9 2.3 1.9 5.9a16.42 16.42 0 0 1-.488 3.857q-.627 2.596-2.062 5.493a34.296 34.296 0 0 1-4.273 6.544A42.826 42.826 0 0 1 37.8 62.35Q33.1 67 26.5 69.7q-3.6 1.5-7.4 1.5-5 0-9.35-2.55a19.15 19.15 0 0 1-6.529-6.388A22.877 22.877 0 0 1 2.7 61.4a20.056 20.056 0 0 1-2.374-6.855A26.594 26.594 0 0 1 0 50.3q0-3.9 1-7.65a42.123 42.123 0 0 1 1.602-4.785A51.445 51.445 0 0 1 3.9 34.9q3.7-7.7 9.8-14.05Q19.8 14.5 27.15 9.8 34.5 5.1 42.1 2.55T56.4 0q2.9 0 5.5.45a17.581 17.581 0 0 1 3.961 1.16A16.061 16.061 0 0 1 66.7 2a18.635 18.635 0 0 1 3.636 2.056A12.986 12.986 0 0 1 74.2 8.45a19.071 19.071 0 0 1 2.161 7.912A22.812 22.812 0 0 1 76.4 17.7a32.143 32.143 0 0 1-.728 6.65 42.655 42.655 0 0 1-1.572 5.5q-2.3 6.45-5.9 12.55-3.4 5.7-6.65 11.9-3.25 6.2-5.65 12a79.655 79.655 0 0 0-1.776 4.68q-.784 2.296-1.306 4.365A42.587 42.587 0 0 0 52.5 76.7q-.2 1-.3 2-.1 1-.1 1.8 0 2.124.626 3.549A4.692 4.692 0 0 0 53.8 85.6a5.83 5.83 0 0 0 3.51 1.561 7.815 7.815 0 0 0 .79.039 12.327 12.327 0 0 0 4.186-.774q1.575-.567 3.212-1.548A24.81 24.81 0 0 0 67 83.9a30.82 30.82 0 0 0 3.861-3.242A41.644 41.644 0 0 0 74.15 77a75.317 75.317 0 0 0 5.309-7.549A84.947 84.947 0 0 0 80.6 67.55q3-5.15 5.4-10.4a159.455 159.455 0 0 0 2.479-5.701A124.772 124.772 0 0 0 90.1 47.3q1.615-4.371 2.509-7.387a61.854 61.854 0 0 0 .091-.313q.172-.774 1.157-1.769a10.536 10.536 0 0 1 .343-.331 6.149 6.149 0 0 1 .763-.607q.433-.287.854-.435a2.649 2.649 0 0 1 .883-.158 1.467 1.467 0 0 1 1.05.441 2.344 2.344 0 0 1 .3.359 2.322 2.322 0 0 1 .278.581q.198.591.252 1.494a12.177 12.177 0 0 1 .02.725q0 1.52-.519 4.251A67.285 67.285 0 0 1 97.7 46q-1.3 5.8-3.2 12.65-1.9 6.85-4.25 13.9a214.151 214.151 0 0 1-4.342 11.878 194.676 194.676 0 0 1-.658 1.622Q82.6 92.5 79.9 97.5a192.567 192.567 0 0 0 8.417-.176A153.643 153.643 0 0 0 93.65 97a47.167 47.167 0 0 0 3.123-.343q3.971-.582 6.027-1.757 3.3-1.9 4.95-3.25a4.204 4.204 0 0 0 1.334-2.009q.227-.699.291-1.551a9.24 9.24 0 0 0 .025-.69zm140.96 3.28a8.706 8.706 0 0 0 2.44.32q4.3 0 8.25-2.6a30.228 30.228 0 0 0 1.721-1.219A25.528 25.528 0 0 0 267.6 82.4a58.202 58.202 0 0 0 1.002-1.36 67.194 67.194 0 0 0 2.698-4.09 130.119 130.119 0 0 0 .881-1.466A114.739 114.739 0 0 0 274.6 71.2q1.5-2.8 2.4-4.8.217-.578.277-.947a1.59 1.59 0 0 0 .023-.253 1.292 1.292 0 0 0-.002-.083q-.025-.38-.282-.481a.589.589 0 0 0-.216-.036.36.36 0 0 0-.081.011q-.216.051-.669.339a2.035 2.035 0 0 0-.528.49 2.63 2.63 0 0 0-.322.56q-1.9 3.9-4.15 7.5a105.658 105.658 0 0 1-.282.449A96.535 96.535 0 0 1 266.4 80.3a33.525 33.525 0 0 1-2.669 2.974A24.66 24.66 0 0 1 260.6 85.9q-1.851 1.296-3.436 1.792A6.243 6.243 0 0 1 255.3 88q-1.132 0-1.997-.568a4.017 4.017 0 0 1-1.053-1.032 4.107 4.107 0 0 1-.334-.557q-.559-1.114-.735-2.925a18.858 18.858 0 0 1-.081-1.818q0-1.1.1-2.5t.4-3a43.54 43.54 0 0 1 .68-3.019 50.792 50.792 0 0 1 2.32-6.781q2.1-5 4.8-9.5a66.918 66.918 0 0 1 .343-.566q1.203-1.96 2.425-3.643A40.921 40.921 0 0 1 264.9 48.7a13.983 13.983 0 0 0 .552-.656q1.948-2.472 1.948-4.944a6.064 6.064 0 0 0-.01-.347q-.066-1.161-.59-1.903a1.916 1.916 0 0 0-.931-.725A2.267 2.267 0 0 0 265.1 40q-.825 0-1.931.759a9.807 9.807 0 0 0-.769.591q-1.125.949-2.299 2.813A27.215 27.215 0 0 0 259.1 45.9q-2.6 4.8-6.8 10.5-4.2 5.7-9.25 11.2a117.289 117.289 0 0 1-1.902 2.024A103.672 103.672 0 0 1 232.7 77.5a65.008 65.008 0 0 1-1.051.855q-2.269 1.804-4.453 3.199a37.294 37.294 0 0 1-4.646 2.546q-2.804 1.272-5.257 1.809a15.899 15.899 0 0 1-3.393.391 10.866 10.866 0 0 1-1.685-.126 7.621 7.621 0 0 1-4.515-2.324 7.315 7.315 0 0 1-1.321-2q-.979-2.153-.979-5.35 0-2.7.8-6.15.425-1.833 1.076-3.877A71.793 71.793 0 0 1 208.6 62.7a78.387 78.387 0 0 1 1.747-3.946A100.143 100.143 0 0 1 213.1 53.4q2.7-4.9 5.45-9.2 2.75-4.3 4.55-6.8 4.8 1.5 9.65 2.2 4.85.7 10.05.7a97.357 97.357 0 0 0 2.051-.021 80 80 0 0 0 3.199-.129 112.554 112.554 0 0 0 .328-.021q2.328-.149 5.222-.429a87.824 87.824 0 0 0 3.778-.423q3.03-.409 5.667-1.003a44.262 44.262 0 0 0 5.305-1.524q5.95-2.15 9.55-5.1a28.664 28.664 0 0 0 .921-.787q1.329-1.186 2.34-2.404a15.707 15.707 0 0 0 1.939-2.909q.813-1.6 1.213-3.083a10.622 10.622 0 0 0 .387-2.767 11 11 0 0 0-1.537-5.79 12.241 12.241 0 0 0-3.063-3.36q-3.09-2.385-7.761-3.168A29.928 29.928 0 0 0 267.4 7q-9.7 0-18.5 3.6t-16.45 9.55Q224.8 26.1 218.4 33.1a29.201 29.201 0 0 1-4.476-2.46 20.972 20.972 0 0 1-4.324-3.84q-1.1-1.2-1.9-2.55-.8-1.35-.8-2.95a4.935 4.935 0 0 1 .003-.156q.017-.548.155-1.145a8.283 8.283 0 0 1 .342-1.099 4.969 4.969 0 0 0 .049-.099q.158-.335.245-.652a2.825 2.825 0 0 0 .106-.749q0-.826-.507-1.032a1.04 1.04 0 0 0-.393-.068q-.7 0-1.2.8a2.5 2.5 0 0 0-.469.406Q204.2 18.647 204.2 21.3a11.174 11.174 0 0 0 .071 1.249A12.933 12.933 0 0 0 204.8 25a10.691 10.691 0 0 0 .16.469 9.162 9.162 0 0 0 1.64 2.831 19.437 19.437 0 0 0 1.528 1.587A23.398 23.398 0 0 0 211 32.15a35.314 35.314 0 0 0 1.162.749A39.791 39.791 0 0 0 216.7 35.3q-2.6 2.9-4.85 6.15-2.25 3.25-4.05 6.55a75.545 75.545 0 0 0-2.394 4.646 61.817 61.817 0 0 0-3.356 8.704q-1.95 6.55-1.95 12.25a31.567 31.567 0 0 0 .007.648q.046 2.249.415 4.22a18.248 18.248 0 0 0 1.378 4.382 13.014 13.014 0 0 0 .173.356A10.078 10.078 0 0 0 207.4 88.2q1.4.6 2.85.85 1.45.25 2.95.25a20.764 20.764 0 0 0 4.71-.549 25.198 25.198 0 0 0 5.39-1.951 50.444 50.444 0 0 0 1.902-.983A56.035 56.035 0 0 0 233.2 80.5a101.067 101.067 0 0 0 1.188-.955A91.202 91.202 0 0 0 242 72.6q2.5-2.562 4.492-4.773A103.412 103.412 0 0 0 248.7 65.3a11.734 11.734 0 0 0-1.024 1.625q-.962 1.819-1.726 4.475-1.15 4-1.15 8.1a20.562 20.562 0 0 0 .253 3.288 15.615 15.615 0 0 0 1.547 4.762 5.997 5.997 0 0 0 3.76 3.13zm87.84-5.58q3.7-7.1 7-14.25a279.185 279.185 0 0 1 5.006-10.303A246.329 246.329 0 0 1 351.9 57.3q1.58-2.843 2.754-4.345a10.778 10.778 0 0 1 .596-.705 4.466 4.466 0 0 1 2.657-1.375 6.38 6.38 0 0 1 .993-.075 5.808 5.808 0 0 1 1.012.093 7.369 7.369 0 0 1 .688.157q.9.25 1.8.25.508 0 .8-.071a1.265 1.265 0 0 0 .1-.029q-1.352.773-3.45 3.737a41.46 41.46 0 0 0-.15.213q-2.2 3.15-4.5 7.25t-4.1 7.7q1.9-2.3 3.95-4.6a43.676 43.676 0 0 1 4.239-4.137 47.873 47.873 0 0 1 .311-.263q2.2-1.9 4.65-4.15a43.773 43.773 0 0 1 2.892-2.443A35.333 35.333 0 0 1 369.1 53.1a13.401 13.401 0 0 1 1.372-.809q1.536-.777 2.785-.791a4.079 4.079 0 0 1 .043 0 7.668 7.668 0 0 1 .282.005q.39.014.562.072a.44.44 0 0 1 .056.023q1.9.8 1.9 2.6 0 .48-.32 1.344a12.262 12.262 0 0 1-.18.456 46.072 46.072 0 0 1-2.114 4.691 55.156 55.156 0 0 1-1.236 2.259q-2.05 3.55-3.85 7.15 1.5-1.8 3.75-4.4a48.991 48.991 0 0 1 2.832-3.016A40.889 40.889 0 0 1 376.7 61.1a32.905 32.905 0 0 1 1.986-1.658q1.097-.85 2.394-1.732a62.707 62.707 0 0 1 1.22-.81q3.4-2.2 6.7-3.8 3.3-1.6 5.3-1.6a7.84 7.84 0 0 1 .325.006q.312.013.515.053a1.3 1.3 0 0 1 .16.041l-1.1 1.95q-.984 1.744-2.408 4.449a342.419 342.419 0 0 0-.342.651q-1.65 3.15-3.35 6.7a148.79 148.79 0 0 0-2.172 4.74 125.653 125.653 0 0 0-.878 2.06q-.886 2.133-1.363 3.814a17.507 17.507 0 0 0-.387 1.636q-.3 1.3-.3 2.4 0 1.203.339 1.784a1.179 1.179 0 0 0 .261.316 2.255 2.255 0 0 0 .575.355 1.867 1.867 0 0 0 .725.145 4.335 4.335 0 0 0 1.865-.446q.655-.31 1.32-.835A10.496 10.496 0 0 0 389 80.5a28.807 28.807 0 0 0 2.315-2.631 37.489 37.489 0 0 0 1.735-2.419 70.275 70.275 0 0 0 2.672-4.368 61.084 61.084 0 0 0 .778-1.432q1.149-2.182 1.828-3.573a48.611 48.611 0 0 0 .372-.777q.425-.778.849-1.006a.737.737 0 0 1 .351-.094.63.63 0 0 1 .277.057q.323.156.323.743a1.97 1.97 0 0 1-.066.491q-.074.29-.234.609a956.739 956.739 0 0 0-.963 1.852q-.856 1.648-1.887 3.648-1.65 3.2-3.75 6.25a25.615 25.615 0 0 1-2.726 3.346 21.327 21.327 0 0 1-1.924 1.754Q386.4 85 383.5 85q-2.1 0-4.25-1.4t-2.15-5.2a12.455 12.455 0 0 1 .127-1.701q.118-.857.348-1.826A27.992 27.992 0 0 1 378 73.3q.536-1.531 1.512-3.414a43.908 43.908 0 0 1 .638-1.186 119.823 119.823 0 0 1 1.179-2.062q1.059-1.813 2.371-3.938a12.164 12.164 0 0 0 .461-.854q.412-.85.509-1.48a2.41 2.41 0 0 0 .03-.366 1.728 1.728 0 0 0-.059-.475q-.153-.532-.696-.674a1.768 1.768 0 0 0-.445-.051 2.819 2.819 0 0 0-.66.088q-.663.161-1.546.616a14.231 14.231 0 0 0-.544.296 12.819 12.819 0 0 0-1.173.769q-1.387 1.01-3.177 2.731a27.149 27.149 0 0 0-1.165 1.167q-1.174 1.244-2.585 2.983a106.632 106.632 0 0 0-2.98 3.857 125.258 125.258 0 0 0-1.37 1.893 60.275 60.275 0 0 0-2.515 3.836A50.986 50.986 0 0 0 364.5 79.3a29.867 29.867 0 0 0-1.027 2.109q-.449 1.03-.743 1.962a13.9 13.9 0 0 0-.33 1.229 2.881 2.881 0 0 1-1.34-.308q-.606-.312-1.06-.942a4.778 4.778 0 0 1-.878-2.43 6.05 6.05 0 0 1-.022-.52v-.6a2.204 2.204 0 0 1 .017-.26q.015-.127.044-.267a4.231 4.231 0 0 1 .039-.173 27.062 27.062 0 0 1 1.209-4.773 24.417 24.417 0 0 1 .391-1.027 93.903 93.903 0 0 1 1.778-4.073 108.914 108.914 0 0 1 .722-1.527 78.075 78.075 0 0 0 1.375-2.762 94.048 94.048 0 0 0 .825-1.788 21.802 21.802 0 0 0 .481-1.153q.619-1.622.619-2.597a1.568 1.568 0 0 0-.024-.289q-.097-.511-.576-.511-.7 0-2.3 1.05-1.6 1.05-4.4 3.65a40.541 40.541 0 0 0-1.665 1.705q-1.815 1.962-4.063 4.789a134.201 134.201 0 0 0-.322.406q-3.393 4.301-7.379 12.072a148.396 148.396 0 0 0-.371.728 4.277 4.277 0 0 1-.372.577q-.222.284-.465.473a1.785 1.785 0 0 1-.563.3q-.659.206-1.931.242a20.04 20.04 0 0 1-.569.008q-.756 0-1.347.024a19.005 19.005 0 0 0-.503.026 3.666 3.666 0 0 0-.908.183 4.822 4.822 0 0 0-.642.267zm-217.02-.186a3.538 3.538 0 0 0 .32-.014 5.72 5.72 0 0 0 .835-.139q.987-.24 1.963-.835a10.307 10.307 0 0 0 1.552-1.176q2.15-1.95 4.15-4.9 2-2.95 3.7-6.1a185.99 185.99 0 0 0 .468-.873q1.401-2.628 2.432-4.777a12.457 12.457 0 0 0 .059-.161q.178-.495.225-.771A1.034 1.034 0 0 0 136.9 65q0-.7-.5-.7a1.061 1.061 0 0 0-.622.191q-.352.246-.578.809-.9 1.8-2.4 4.65-1.5 2.85-3.3 5.65a41.04 41.04 0 0 1-.229.352q-1.688 2.569-3.421 4.348a11.873 11.873 0 0 1-.139.14q-1.771 1.76-3.311 1.76-1.6 0-1.6-2.8a5.026 5.026 0 0 1 .009-.282q.028-.489.141-1.318a116.096 116.096 0 0 1 .068-.488q.071-.507.129-.881a30.145 30.145 0 0 1 .053-.331 22.112 22.112 0 0 1 .299-1.118q.252-.855.6-1.819a47.962 47.962 0 0 1 .801-2.063q1.2-2.9 2.7-5.7 1.5-2.8 2.85-5a40.561 40.561 0 0 1 .631-.998q.916-1.399 1.519-2.002-1.2.2-2.3-.1-1.1-.3-2.2-.3a5.83 5.83 0 0 0-.653.036A4.174 4.174 0 0 0 122.4 58.8a30.82 30.82 0 0 0-.62.893q-.526.786-1.083 1.709A61.644 61.644 0 0 0 119.6 63.3a258.465 258.465 0 0 1-1.365 2.451A218.815 218.815 0 0 1 115.3 70.8q-2.1 3.5-4.7 6.7a25.68 25.68 0 0 1-1.093 1.192q-1.879 1.917-3.55 2.688a5.142 5.142 0 0 1-2.157.52 3.501 3.501 0 0 1-.259-.009q-2.241-.167-2.241-3.291v-.75a1.295 1.295 0 0 1 0-.008q.002-.252.1-.842a17.793 17.793 0 0 1 .238-1.268 20.776 20.776 0 0 1 .862-2.832 48.058 48.058 0 0 1 .71-1.761 37.407 37.407 0 0 1 .94-2.039 75.383 75.383 0 0 1 .122-.243q.56-1.109.908-1.702a7.503 7.503 0 0 1 .22-.355 55.511 55.511 0 0 1 .515-.822 60.452 60.452 0 0 1 5.835-7.678 39.977 39.977 0 0 1 1.613-1.712q1.334-1.331 2.633-2.346A19.114 19.114 0 0 1 118.8 52.4q1.306-.653 2.436-.918a6.412 6.412 0 0 1 1.464-.182q2.567 0 3.862 1.779a5.909 5.909 0 0 1 .838 1.721 2.381 2.381 0 0 0 .227.046q.646.096 1.073-.246a1.638 1.638 0 0 0 .104-.09 1.208 1.208 0 0 0 .396-.91q0-.9-.7-1.6-1.6-1.7-3.7-2.45-2.1-.75-4.4-.75a15.8 15.8 0 0 0-4.101.555 20.14 20.14 0 0 0-4.049 1.595q-4.15 2.15-7.05 5.65a57.715 57.715 0 0 0-.872 1.092q-1.834 2.357-3.204 4.639A32.715 32.715 0 0 0 98.7 67.2a37.783 37.783 0 0 0-.637 1.746q-1.35 4.013-1.363 7.292a16.061 16.061 0 0 0 0 .062q0 3.8 1.6 6.15a6.732 6.732 0 0 0 .531.685A4.712 4.712 0 0 0 102.5 84.8q1.4 0 3.1-.8a9.666 9.666 0 0 0 .808-.43q1.337-.792 2.792-2.17a28.247 28.247 0 0 0 1.214-1.233 32.422 32.422 0 0 0 2.886-3.617q1.425-2.062 2.456-3.647a87.33 87.33 0 0 0 .644-1.003 35.301 35.301 0 0 0-.399 1.662q-.249 1.168-.374 2.197a16.134 16.134 0 0 0-.127 1.941 13.428 13.428 0 0 0 .071 1.419q.202 1.897.979 3.081a8.587 8.587 0 0 0 .057.086q1.031 1.53 2.393 2.114a8.256 8.256 0 0 0 .344.139q.998.375 1.836.375zm68.8 0a3.538 3.538 0 0 0 .32-.014 5.72 5.72 0 0 0 .835-.139q.987-.24 1.963-.835a10.307 10.307 0 0 0 1.552-1.176q2.15-1.95 4.15-4.9 2-2.95 3.7-6.1a185.99 185.99 0 0 0 .468-.873q1.401-2.628 2.432-4.777a12.457 12.457 0 0 0 .059-.161q.178-.495.225-.771A1.034 1.034 0 0 0 205.7 65q0-.7-.5-.7a1.061 1.061 0 0 0-.622.191q-.352.246-.578.809-.9 1.8-2.4 4.65-1.5 2.85-3.3 5.65a41.04 41.04 0 0 1-.229.352q-1.688 2.569-3.421 4.348a11.873 11.873 0 0 1-.139.14q-1.771 1.76-3.311 1.76-1.6 0-1.6-2.8a5.026 5.026 0 0 1 .009-.282q.028-.489.141-1.318a116.096 116.096 0 0 1 .068-.488q.071-.507.129-.881A30.145 30.145 0 0 1 190 76.1a22.112 22.112 0 0 1 .299-1.118q.252-.855.6-1.819a47.962 47.962 0 0 1 .801-2.063q1.2-2.9 2.7-5.7 1.5-2.8 2.85-5a40.561 40.561 0 0 1 .631-.998q.916-1.399 1.519-2.002-1.2.2-2.3-.1-1.1-.3-2.2-.3a5.83 5.83 0 0 0-.653.036A4.174 4.174 0 0 0 191.2 58.8a30.82 30.82 0 0 0-.62.893q-.526.786-1.083 1.709A61.644 61.644 0 0 0 188.4 63.3a258.465 258.465 0 0 1-1.365 2.451A218.815 218.815 0 0 1 184.1 70.8q-2.1 3.5-4.7 6.7a25.68 25.68 0 0 1-1.093 1.192q-1.879 1.917-3.55 2.688a5.142 5.142 0 0 1-2.157.52 3.501 3.501 0 0 1-.259-.009q-2.241-.167-2.241-3.291v-.75a1.295 1.295 0 0 1 0-.008q.002-.252.1-.842a17.793 17.793 0 0 1 .238-1.268 20.776 20.776 0 0 1 .862-2.832 48.058 48.058 0 0 1 .71-1.761 37.407 37.407 0 0 1 .94-2.039 75.383 75.383 0 0 1 .122-.243q.56-1.109.908-1.702a7.503 7.503 0 0 1 .22-.355 55.511 55.511 0 0 1 .515-.822 60.452 60.452 0 0 1 5.835-7.678 39.977 39.977 0 0 1 1.613-1.712q1.334-1.331 2.633-2.346A19.114 19.114 0 0 1 187.6 52.4q1.306-.653 2.436-.918a6.412 6.412 0 0 1 1.464-.182q2.567 0 3.862 1.779a5.909 5.909 0 0 1 .838 1.721 2.381 2.381 0 0 0 .227.046q.646.096 1.073-.246a1.638 1.638 0 0 0 .104-.09 1.208 1.208 0 0 0 .396-.91q0-.9-.7-1.6-1.6-1.7-3.7-2.45-2.1-.75-4.4-.75a15.8 15.8 0 0 0-4.101.555 20.14 20.14 0 0 0-4.049 1.595Q176.9 53.1 174 56.6a57.715 57.715 0 0 0-.872 1.092q-1.834 2.357-3.204 4.639A32.715 32.715 0 0 0 167.5 67.2a37.783 37.783 0 0 0-.637 1.746q-1.35 4.013-1.363 7.292a16.061 16.061 0 0 0 0 .062q0 3.8 1.6 6.15a6.732 6.732 0 0 0 .531.685A4.712 4.712 0 0 0 171.3 84.8q1.4 0 3.1-.8a9.666 9.666 0 0 0 .808-.43q1.337-.792 2.792-2.17a28.247 28.247 0 0 0 1.214-1.233 32.422 32.422 0 0 0 2.886-3.617q1.425-2.062 2.456-3.647a87.33 87.33 0 0 0 .644-1.003 35.301 35.301 0 0 0-.399 1.662q-.249 1.168-.374 2.197a16.134 16.134 0 0 0-.127 1.941 13.428 13.428 0 0 0 .071 1.419q.202 1.897.979 3.081a8.587 8.587 0 0 0 .057.086q1.031 1.53 2.393 2.114a8.256 8.256 0 0 0 .344.139q.998.375 1.836.375zm143.7 0a3.538 3.538 0 0 0 .32-.014 5.72 5.72 0 0 0 .835-.139q.987-.24 1.963-.835a10.307 10.307 0 0 0 1.552-1.176q2.15-1.95 4.15-4.9 2-2.95 3.7-6.1a185.99 185.99 0 0 0 .468-.873q1.401-2.628 2.432-4.777a12.457 12.457 0 0 0 .059-.161q.178-.495.225-.771A1.034 1.034 0 0 0 349.4 65q0-.7-.5-.7a1.061 1.061 0 0 0-.622.191q-.352.246-.578.809-.9 1.8-2.4 4.65-1.5 2.85-3.3 5.65a41.04 41.04 0 0 1-.229.352q-1.688 2.569-3.421 4.348a11.873 11.873 0 0 1-.139.14q-1.771 1.76-3.311 1.76-1.6 0-1.6-2.8a5.026 5.026 0 0 1 .009-.282q.028-.489.141-1.318a116.096 116.096 0 0 1 .068-.488q.071-.507.129-.881a30.145 30.145 0 0 1 .053-.331 22.112 22.112 0 0 1 .299-1.118q.252-.855.6-1.819a47.962 47.962 0 0 1 .801-2.063q1.2-2.9 2.7-5.7 1.5-2.8 2.85-5a40.561 40.561 0 0 1 .631-.998q.916-1.399 1.519-2.002-1.2.2-2.3-.1-1.1-.3-2.2-.3a5.83 5.83 0 0 0-.653.036A4.174 4.174 0 0 0 334.9 58.8a30.82 30.82 0 0 0-.62.893q-.526.786-1.083 1.709A61.644 61.644 0 0 0 332.1 63.3a258.465 258.465 0 0 1-1.365 2.451A218.815 218.815 0 0 1 327.8 70.8q-2.1 3.5-4.7 6.7a25.68 25.68 0 0 1-1.093 1.192q-1.879 1.917-3.55 2.688a5.142 5.142 0 0 1-2.157.52 3.501 3.501 0 0 1-.259-.009q-2.241-.167-2.241-3.291v-.75a1.295 1.295 0 0 1 0-.008q.002-.252.1-.842a17.793 17.793 0 0 1 .238-1.268A20.776 20.776 0 0 1 315 72.9a48.058 48.058 0 0 1 .71-1.761 37.407 37.407 0 0 1 .94-2.039 75.383 75.383 0 0 1 .122-.243q.56-1.109.908-1.702a7.503 7.503 0 0 1 .22-.355 55.511 55.511 0 0 1 .515-.822 60.452 60.452 0 0 1 5.835-7.678 39.977 39.977 0 0 1 1.613-1.712q1.334-1.331 2.633-2.346A19.114 19.114 0 0 1 331.3 52.4q1.306-.653 2.436-.918a6.412 6.412 0 0 1 1.464-.182q2.567 0 3.862 1.779a5.909 5.909 0 0 1 .838 1.721 2.381 2.381 0 0 0 .227.046q.646.096 1.073-.246a1.638 1.638 0 0 0 .104-.09 1.208 1.208 0 0 0 .396-.91q0-.9-.7-1.6-1.6-1.7-3.7-2.45-2.1-.75-4.4-.75a15.8 15.8 0 0 0-4.101.555 20.14 20.14 0 0 0-4.049 1.595q-4.15 2.15-7.05 5.65a57.715 57.715 0 0 0-.872 1.092q-1.834 2.357-3.204 4.639A32.715 32.715 0 0 0 311.2 67.2a37.783 37.783 0 0 0-.637 1.746q-1.35 4.013-1.363 7.292a16.061 16.061 0 0 0 0 .062q0 3.8 1.6 6.15a6.732 6.732 0 0 0 .531.685A4.712 4.712 0 0 0 315 84.8q1.4 0 3.1-.8a9.666 9.666 0 0 0 .808-.43q1.337-.792 2.792-2.17a28.247 28.247 0 0 0 1.214-1.233 32.422 32.422 0 0 0 2.886-3.617q1.425-2.062 2.456-3.647a87.33 87.33 0 0 0 .644-1.003 35.301 35.301 0 0 0-.399 1.662q-.249 1.168-.374 2.197A16.134 16.134 0 0 0 328 77.7a13.428 13.428 0 0 0 .071 1.419q.202 1.897.979 3.081a8.587 8.587 0 0 0 .057.086q1.031 1.53 2.393 2.114a8.256 8.256 0 0 0 .344.139q.998.375 1.836.375zm146 0a3.538 3.538 0 0 0 .32-.014 5.72 5.72 0 0 0 .835-.139q.987-.24 1.963-.835a10.307 10.307 0 0 0 1.552-1.176q2.15-1.95 4.15-4.9 2-2.95 3.7-6.1a185.99 185.99 0 0 0 .468-.873q1.401-2.628 2.432-4.777a12.457 12.457 0 0 0 .059-.161q.178-.495.225-.771A1.034 1.034 0 0 0 495.4 65q0-.7-.5-.7a1.061 1.061 0 0 0-.622.191q-.352.246-.578.809-.9 1.8-2.4 4.65-1.5 2.85-3.3 5.65a41.04 41.04 0 0 1-.229.352q-1.688 2.569-3.421 4.348a11.873 11.873 0 0 1-.139.14q-1.771 1.76-3.311 1.76-1.6 0-1.6-2.8a5.026 5.026 0 0 1 .009-.282q.028-.489.141-1.318a116.096 116.096 0 0 1 .068-.488q.071-.507.129-.881a30.145 30.145 0 0 1 .053-.331 22.112 22.112 0 0 1 .299-1.118q.252-.855.6-1.819a47.962 47.962 0 0 1 .801-2.063q1.2-2.9 2.7-5.7 1.5-2.8 2.85-5a40.561 40.561 0 0 1 .631-.998q.916-1.399 1.519-2.002-1.2.2-2.3-.1-1.1-.3-2.2-.3a5.83 5.83 0 0 0-.653.036A4.174 4.174 0 0 0 480.9 58.8a30.82 30.82 0 0 0-.62.893q-.526.786-1.083 1.709A61.644 61.644 0 0 0 478.1 63.3a258.465 258.465 0 0 1-1.365 2.451A218.815 218.815 0 0 1 473.8 70.8q-2.1 3.5-4.7 6.7a25.68 25.68 0 0 1-1.093 1.192q-1.879 1.917-3.55 2.688a5.142 5.142 0 0 1-2.157.52 3.501 3.501 0 0 1-.259-.009q-2.241-.167-2.241-3.291v-.75a1.295 1.295 0 0 1 0-.008q.002-.252.1-.842a17.793 17.793 0 0 1 .238-1.268A20.776 20.776 0 0 1 461 72.9a48.058 48.058 0 0 1 .71-1.761 37.407 37.407 0 0 1 .94-2.039 75.383 75.383 0 0 1 .122-.243q.56-1.109.908-1.702a7.503 7.503 0 0 1 .22-.355 55.511 55.511 0 0 1 .515-.822 60.452 60.452 0 0 1 5.835-7.678 39.977 39.977 0 0 1 1.613-1.712q1.334-1.331 2.633-2.346A19.114 19.114 0 0 1 477.3 52.4q1.306-.653 2.436-.918a6.412 6.412 0 0 1 1.464-.182q2.567 0 3.862 1.779a5.909 5.909 0 0 1 .838 1.721 2.381 2.381 0 0 0 .227.046q.646.096 1.073-.246a1.638 1.638 0 0 0 .104-.09 1.208 1.208 0 0 0 .396-.91q0-.9-.7-1.6-1.6-1.7-3.7-2.45-2.1-.75-4.4-.75a15.8 15.8 0 0 0-4.101.555 20.14 20.14 0 0 0-4.049 1.595q-4.15 2.15-7.05 5.65a57.715 57.715 0 0 0-.872 1.092q-1.834 2.357-3.204 4.639A32.715 32.715 0 0 0 457.2 67.2a37.783 37.783 0 0 0-.637 1.746q-1.35 4.013-1.363 7.292a16.061 16.061 0 0 0 0 .062q0 3.8 1.6 6.15a6.732 6.732 0 0 0 .531.685A4.712 4.712 0 0 0 461 84.8q1.4 0 3.1-.8a9.666 9.666 0 0 0 .808-.43q1.337-.792 2.792-2.17a28.247 28.247 0 0 0 1.214-1.233 32.422 32.422 0 0 0 2.886-3.617q1.425-2.062 2.456-3.647a87.33 87.33 0 0 0 .644-1.003 35.301 35.301 0 0 0-.399 1.662q-.249 1.168-.374 2.197A16.134 16.134 0 0 0 474 77.7a13.428 13.428 0 0 0 .071 1.419q.202 1.897.979 3.081a8.587 8.587 0 0 0 .057.086q1.031 1.53 2.393 2.114a8.256 8.256 0 0 0 .344.139q.998.375 1.836.375zM125.6 85.4q3.6-7.3 6.95-14.45 3.35-7.15 6.85-13.65 1.58-2.843 2.754-4.345a10.778 10.778 0 0 1 .596-.705 4.466 4.466 0 0 1 2.657-1.375 6.38 6.38 0 0 1 .993-.075 5.808 5.808 0 0 1 1.012.093 7.369 7.369 0 0 1 .688.157q.9.25 1.8.25.508 0 .8-.071a1.265 1.265 0 0 0 .1-.029q-1.352.773-3.45 3.737a41.46 41.46 0 0 0-.15.213q-2.2 3.15-4.5 7.25t-4.1 7.7q1.9-2.3 3.95-4.6a43.676 43.676 0 0 1 4.239-4.137 47.873 47.873 0 0 1 .311-.263 47.288 47.288 0 0 1 2.459-2.002q1.323-1.008 2.85-2.05a78.663 78.663 0 0 1 .441-.298 53.303 53.303 0 0 1 4.116-2.512A43.682 43.682 0 0 1 159.4 53a24.759 24.759 0 0 1 1.697-.725q1.676-.637 2.897-.751a5.491 5.491 0 0 1 .506-.024 7.84 7.84 0 0 1 .325.006q.312.013.515.053a1.3 1.3 0 0 1 .16.041l-1.1 1.95q-.984 1.744-2.408 4.449a342.419 342.419 0 0 0-.342.651q-1.65 3.15-3.35 6.7a148.79 148.79 0 0 0-2.172 4.74 125.653 125.653 0 0 0-.878 2.06q-.886 2.133-1.363 3.814a17.507 17.507 0 0 0-.387 1.636q-.3 1.3-.3 2.4 0 1.203.339 1.784a1.179 1.179 0 0 0 .261.316 2.255 2.255 0 0 0 .575.355 1.867 1.867 0 0 0 .725.145q1.421 0 2.954-1.146a10.575 10.575 0 0 0 1.046-.904 25.624 25.624 0 0 0 2.189-2.446 34.559 34.559 0 0 0 1.861-2.604 90.73 90.73 0 0 0 2.648-4.325 78.288 78.288 0 0 0 .852-1.525q1.187-2.182 1.875-3.573a37.716 37.716 0 0 0 .375-.777 11.486 11.486 0 0 1 .143-.277q.227-.424.375-.594a.558.558 0 0 1 .082-.079q.142-.106.384-.137a1.708 1.708 0 0 1 .216-.013.63.63 0 0 1 .277.057q.323.156.323.743a1.97 1.97 0 0 1-.066.491q-.074.29-.234.609a956.739 956.739 0 0 0-.963 1.852q-.856 1.648-1.887 3.648-1.65 3.2-3.75 6.25a26.682 26.682 0 0 1-2.616 3.25 21.792 21.792 0 0 1-1.984 1.85 9.427 9.427 0 0 1-2.421 1.467A7.832 7.832 0 0 1 153.8 85q-1.87 0-3.872-1.224a11.664 11.664 0 0 1-.278-.176q-2.15-1.4-2.15-5.2 0-1.1.2-2.35.194-1.211.669-2.656a24.082 24.082 0 0 1 .031-.094q.8-2 1.9-4.3 1.1-2.3 3.6-6.3.547-.859.758-1.413a2.547 2.547 0 0 0 .092-.287q.104-.415.136-.735A2.674 2.674 0 0 0 154.9 60q0-1.2-1.1-1.2a2.407 2.407 0 0 0-.564.077q-.821.2-2.086.923a12.819 12.819 0 0 0-1.173.769q-1.387 1.01-3.177 2.731a39.996 39.996 0 0 0-1.655 1.695q-1.861 2.013-4.142 4.911a126.832 126.832 0 0 0-.153.194q-3.116 3.975-7.09 11.376a173.875 173.875 0 0 0-.86 1.624 4.826 4.826 0 0 1-.356.571q-.455.618-.966.78a1.228 1.228 0 0 1-.228.049q-.651.077-1.682.153a89.418 89.418 0 0 1-.668.047 45.504 45.504 0 0 1-1.328.114 38.609 38.609 0 0 1-.572.036 2.896 2.896 0 0 0-.748.136 2.274 2.274 0 0 0-.752.414zm168.425-2.35a4.866 4.866 0 0 0 3.575 1.55 8.373 8.373 0 0 0 2.988-.545 9.855 9.855 0 0 0 2.612-1.505 20.378 20.378 0 0 0 1.955-1.762A24.434 24.434 0 0 0 307.9 77.4a60.175 60.175 0 0 0 .768-1.162 53.462 53.462 0 0 0 2.882-5.038 174.476 174.476 0 0 0 .153-.306Q313.145 67.995 314 66a1.639 1.639 0 0 0 .076-.124q.055-.102.086-.198a.745.745 0 0 0 .038-.228v-.35a2.078 2.078 0 0 0-.017-.28q-.085-.62-.583-.62a.855.855 0 0 0-.268.043q-.53.174-.932 1.057-.7 1.6-2.1 4.35a63.269 63.269 0 0 1-.725 1.381 72.231 72.231 0 0 1-2.475 4.219 32.133 32.133 0 0 1-1.837 2.625 23.738 23.738 0 0 1-1.913 2.175Q301.4 82 299.5 82a3.257 3.257 0 0 1-.733-.077 1.951 1.951 0 0 1-1.267-.873 3.746 3.746 0 0 1-.468-1.108 4.74 4.74 0 0 1-.132-1.142 9.817 9.817 0 0 1 .041-.88q.069-.762.252-1.624a20.637 20.637 0 0 1 .457-1.746 73.739 73.739 0 0 1 .258-.826q.564-1.767.892-2.424a90.433 90.433 0 0 1 .968-2.257q1.167-2.627 2.782-5.893 2.35-4.75 5.1-10.1 2.75-5.35 5.6-10.6 2.85-5.25 5.35-9.65a252.414 252.414 0 0 1 .121-.212q2.424-4.257 4.229-7.038 1.85-2.85 2.45-3.45a9.735 9.735 0 0 1-.747.029 10.435 10.435 0 0 1-1.903-.179 18.654 18.654 0 0 0-.084-.015q-1.3-.235-2.366-.235-1.9 0-3.25.95a3.965 3.965 0 0 0-.697.649q-.699.805-1.435 2.255a26.361 26.361 0 0 0-.718 1.546q-.7 1.5-2 4.35-1.3 2.85-3 6.25t-3.4 6.85q-1.7 3.45-3.2 6.25-3.2-1.9-6.8-1.9a15.324 15.324 0 0 0-3.357.374A17.753 17.753 0 0 0 287.9 51q-3.9 2.1-6.9 5.6a32.834 32.834 0 0 0-2.066 2.756 44.681 44.681 0 0 0-1.984 3.244q-1.95 3.5-3.2 7.2a30.038 30.038 0 0 0-.151.46q-1.099 3.434-1.099 6.34a11.547 11.547 0 0 0 .19 2.143 8.42 8.42 0 0 0 .96 2.657 5.568 5.568 0 0 0 2.076 2.051 8.068 8.068 0 0 0 1.774.749 9.143 9.143 0 0 0 .745.171 7.458 7.458 0 0 0 1.355.129 7.92 7.92 0 0 0 2.391-.36 8.422 8.422 0 0 0 2.859-1.59 21.781 21.781 0 0 0 .292-.246 23.277 23.277 0 0 0 3.908-4.354 201.128 201.128 0 0 0 .007-.01q.921-1.32 1.731-2.528A117.119 117.119 0 0 0 292.3 73.1a11.907 11.907 0 0 0-.122.435 10.367 10.367 0 0 0-.278 1.515q-.1.95-.1 1.85a11.445 11.445 0 0 0 .066 1.251 8.911 8.911 0 0 0 .334 1.649 13.421 13.421 0 0 0 .21.628q.317.875.69 1.472a7.761 7.761 0 0 0 .925 1.15zm137.275.65a3.49 3.49 0 0 0 1.408 1.091q1.144.509 2.892.509a9.753 9.753 0 0 0 4.031-.861A11.918 11.918 0 0 0 442.6 82.5q3.2-2.8 5.85-7.15 2.65-4.35 4.6-9.1 1.95-4.75 3.3-8.75a3616.105 3616.105 0 0 0 .597-1.771q.917-2.721 1.453-4.329 0-.4.2-.6.217-.578.277-.947a1.59 1.59 0 0 0 .023-.253 2.454 2.454 0 0 0-.04-.46q-.237-1.24-1.86-1.24a2.912 2.912 0 0 0-.53.051q-1.337.248-3.12 1.699-2.15 1.75-3.35 5.75a11.825 11.825 0 0 0-.17.645A12.943 12.943 0 0 0 449.5 59a17.378 17.378 0 0 0 .011.604 19.387 19.387 0 0 0 .289 2.696q.3 1.7 1 3.1a90.875 90.875 0 0 1-.685 1.631 80.417 80.417 0 0 1-3.215 6.619q-1.198 2.196-2.444 3.887a21.292 21.292 0 0 1-1.906 2.263 11.208 11.208 0 0 1-.702.661q-.746.642-1.498 1.032a5.053 5.053 0 0 1-2.35.607q-.6 0-1.4-.3a1.851 1.851 0 0 1-.809-.912q-.154-.349-.226-.801a5.618 5.618 0 0 1-.065-.887 9.588 9.588 0 0 1 0-.025q.006-2.294 1.1-5.775 1.1-3.5 2.4-6.9a38.085 38.085 0 0 0 .279-.75q.848-2.349 1.621-5.4.9-3.55 1-6.05.1-2.7-.25-3.5a1.237 1.237 0 0 0-.832-.735A1.917 1.917 0 0 0 440.3 50a6.563 6.563 0 0 0-.053 0q-.189.002-.4.014a10.922 10.922 0 0 0-.447.036q-.5.05-1.1.15a2.349 2.349 0 0 0-.125.004q-.44.024-1.475.196-1.2.2-2.25.4l-1.05.2a1.368 1.368 0 0 1 .573.301q.386.336.627.999.244.67.339 1.526A10.637 10.637 0 0 1 435 55q0 2-.55 4.35-.292 1.249-.655 2.314a16.808 16.808 0 0 1-.695 1.736q-.4.9-.9 1.75t-1 1.75q-.3.5-.1.9.103.206.26.306a.619.619 0 0 0 .34.094.999.999 0 0 0 .205-.021q.425-.089.851-.547a4.034 4.034 0 0 0 .344-.432q-1.1 3.2-2.05 6.5-.519 1.805-.755 3.4a17.159 17.159 0 0 0-.195 2.5q0 2.5 1.2 4.1zm-28 .9q-3.8 0-5.6-2.55a9.683 9.683 0 0 1-1.606-3.946 13.157 13.157 0 0 1-.194-2.304 21.582 21.582 0 0 1 .78-5.633A28.253 28.253 0 0 1 398 66.4q2-4.6 5.1-8.4a32.137 32.137 0 0 1 3.831-3.978 26.422 26.422 0 0 1 2.869-2.172 16.428 16.428 0 0 1 2.782-1.477q2.146-.873 4.218-.873a9.118 9.118 0 0 1 2.18.244A5.757 5.757 0 0 1 422.4 52a9.277 9.277 0 0 1 1.525 3.526 13.252 13.252 0 0 1 .275 2.774 21.943 21.943 0 0 1-.992 6.42 27.277 27.277 0 0 1-1.108 2.98q-1.031 2.32-2.801 5.047a56.089 56.089 0 0 1-.599.903q-2.2 3.25-5 5.95a5.262 5.262 0 0 0 1.598 1.779 6.142 6.142 0 0 0 .102.071q1.1.75 3 .75a5.93 5.93 0 0 0 3.042-.861 8.665 8.665 0 0 0 1.508-1.139 22.463 22.463 0 0 0 2.551-2.832 27.782 27.782 0 0 0 1.399-2.018q1.8-2.85 3.2-5.75 1.4-2.9 2.3-4.7.259-.518.816-.589a1.458 1.458 0 0 1 .184-.011.717.717 0 0 1 .277.051q.17.071.285.238a.874.874 0 0 1 .038.061q.2.35-.1 1.05-.599 1.497-1.994 4.437a147.796 147.796 0 0 1-.006.013q-1.4 2.95-3.4 6.1a24.275 24.275 0 0 1-3.109 3.96 21.362 21.362 0 0 1-1.491 1.39q-2.6 2.2-5.8 2.2a10.843 10.843 0 0 1-1.81-.143q-1.09-.185-1.99-.607a9.315 9.315 0 0 1-1.445-.834A7.144 7.144 0 0 1 411.7 81.2a21.932 21.932 0 0 1-2.362 1.579 17.652 17.652 0 0 1-1.838.921 11.033 11.033 0 0 1-2.887.812 9.877 9.877 0 0 1-1.313.088zM241.9 37.9q5.2 0 11.6-.6a56.614 56.614 0 0 0 7.07-1.024q3.682-.787 6.805-2.057A34.108 34.108 0 0 0 267.9 34a30.714 30.714 0 0 0 4.494-2.343q2.44-1.559 4.203-3.455a18.024 18.024 0 0 0 .703-.802 14.42 14.42 0 0 0 2.657-4.749 13.4 13.4 0 0 0 .643-4.151 8.389 8.389 0 0 0-.535-3.061q-.788-2.029-2.738-3.389a9.65 9.65 0 0 0-.377-.25q-3.324-2.094-8.265-2.282a26.031 26.031 0 0 0-.985-.018 41.122 41.122 0 0 0-10.98 1.426 36.176 36.176 0 0 0-5.97 2.224q-7.65 3.65-14 9.55T224.7 35.4a48.74 48.74 0 0 0 9.183 2.022 64.475 64.475 0 0 0 8.017.478zm-206 83.9a32.465 32.465 0 0 0 3.421-.19 42.206 42.206 0 0 0 2.879-.41q3.4-.6 6.7-1.8a53.941 53.941 0 0 0 9.279-4.501 65.161 65.161 0 0 0 4.171-2.749 42.287 42.287 0 0 0 11.106-11.822 48 48 0 0 0 .144-.228q-10.2 0-20.6 1.55-10.4 1.55-19.4 6.75-4.5 2.5-6.45 4.7-1.732 1.954-1.925 3.513a3.134 3.134 0 0 0-.025.387 2.993 2.993 0 0 0 .965 2.19q.446.44 1.097.82a8.902 8.902 0 0 0 .988.49q2.493 1.063 6.021 1.257a29.67 29.67 0 0 0 1.629.043zm368.9-39.4a6.605 6.605 0 0 0 2.428-.493q1.622-.639 3.372-2.107a9.642 9.642 0 0 1-1.121-2.257 9.011 9.011 0 0 1-.079-.243q-.397-1.289-.4-2.382a6.055 6.055 0 0 1 0-.018 6.383 6.383 0 0 1 .186-1.574 5.025 5.025 0 0 1 .664-1.526 2.776 2.776 0 0 1 2.009-1.254 4.317 4.317 0 0 1 .641-.046q1.3 0 2.15.95a3.369 3.369 0 0 1 .651 1.046 3.07 3.07 0 0 1 .199 1.104 3.135 3.135 0 0 1-.015.318 2.454 2.454 0 0 1-.035.232q-.05.25-.15.55a29.927 29.927 0 0 0 1.8-2.755 39.581 39.581 0 0 0 1.4-2.645 51.043 51.043 0 0 0 1.669-3.995q1.631-4.471 1.631-7.705a9.581 9.581 0 0 0-.088-1.34q-.102-.724-.324-1.316A4.314 4.314 0 0 0 420.9 54a2.928 2.928 0 0 0-2.133-1.265 4.424 4.424 0 0 0-.567-.035 5.761 5.761 0 0 0-1.904.345q-1.268.443-2.646 1.455a19.841 19.841 0 0 0-2.528 2.232 27.296 27.296 0 0 0-2.172 2.568 35.706 35.706 0 0 0-3.293 5.337A40.726 40.726 0 0 0 405 66a51.732 51.732 0 0 0-1.741 4.14 42.377 42.377 0 0 0-.809 2.41 26.982 26.982 0 0 0-.576 2.232q-.231 1.096-.319 2.065A12.728 12.728 0 0 0 401.5 78a8.145 8.145 0 0 0 .095 1.281q.11.689.348 1.251a4.04 4.04 0 0 0 .357.668 2.607 2.607 0 0 0 1.823 1.147 4.096 4.096 0 0 0 .677.053zm-124.5-.8a3.351 3.351 0 0 0 .994-.167q.897-.28 2.007-1.029a14.756 14.756 0 0 0 .499-.354 13.52 13.52 0 0 0 1.479-1.284q.723-.717 1.478-1.634A34.333 34.333 0 0 0 288.3 75.1a122.269 122.269 0 0 0 2.213-3.281q.968-1.485 2.015-3.164A246.59 246.59 0 0 0 294.7 65.1a239.728 239.728 0 0 0 5.344-9.394A269.078 269.078 0 0 0 301.8 52.4q-1.3-1.2-3-1.2-2.06 0-4.471 1.407a18.255 18.255 0 0 0-1.779 1.193 34.674 34.674 0 0 0-3.818 3.368 45.321 45.321 0 0 0-2.882 3.232 54.039 54.039 0 0 0-3.972 5.547A46.463 46.463 0 0 0 280.4 68.5q-1.283 2.395-1.944 4.425a17.869 17.869 0 0 0-.206.675q-.65 2.3-.65 4a8.769 8.769 0 0 0 .103 1.41q.408 2.487 2.426 2.586a3.475 3.475 0 0 0 .171.004z"
      vector-effect="non-scaling-stroke" stroke-linecap="round" fill-rule="evenodd" stroke-width=".945"
      style="stroke-width:.25mm;"/>
  </symbol>
</svg>
