<svg width="560.4" height="90.772" xmlns="http://www.w3.org/2000/svg">
  <symbol id="logo" viewBox="0 0 560.4 90.772" >
    <path
      d="m44.287 39.063-5.322 5.419a69.923 69.923 0 0 0-2.884 3.191q-4.636 5.489-4.636 8.479a4.294 4.294 0 0 0 .202 1.338 3.702 3.702 0 0 0 .58 1.104 2.515 2.515 0 0 0 1.834 1.009 3.488 3.488 0 0 0 .338.016 8.326 8.326 0 0 0 1.588-.16 11.294 11.294 0 0 0 1.415-.377 14.002 14.002 0 0 0 1.192-.464q1.217-.535 2.739-1.416a39.349 39.349 0 0 0 1.843-1.141q.81-.531 1.692-1.155a78.564 78.564 0 0 0 1.836-1.342q2.337-1.757 5.174-4.229a149.04 149.04 0 0 0 1.784-1.581 177.584 177.584 0 0 0 6.507-6.151q2.965-2.937 6.209-6.368a386.158 386.158 0 0 0 6.767-7.354 65.131 65.131 0 0 1 4.187-4.334q4.454-4.172 8.417-5.929a17.931 17.931 0 0 1 .677-.284q1.328-.523 2.175-.615a3.154 3.154 0 0 1 .339-.02q.904 0 .904.586a.442.442 0 0 1-.196.366q-.168.127-.482.199a2.665 2.665 0 0 1-.103.021l-1.416.488q-4.316 1.692-8.814 6.215a53.55 53.55 0 0 0-3.76 4.235q-5.932 7.387-11.66 17.875a176.596 176.596 0 0 0-1.035 1.924 163.52 163.52 0 0 1-4.635 8.197q-2.396 3.95-4.755 7.238a80.982 80.982 0 0 1-2.817 3.706q-5.981 7.397-12.329 12.524-12.988 10.498-24.658 10.498a25.148 25.148 0 0 1-4.286-.337q-2.232-.387-3.949-1.218a9.514 9.514 0 0 1-3.924-3.376 6.869 6.869 0 0 1-.682-1.314A4.979 4.979 0 0 1 0 82.739q0-1.52.406-2.373a2.707 2.707 0 0 1 .009-.019 5.491 5.491 0 0 1 .952-1.389 5.189 5.189 0 0 1 .098-.101 4.841 4.841 0 0 1 1.21-.834 3.962 3.962 0 0 1 1.72-.386 2.341 2.341 0 0 1 .707.116q.29.092.597.256a4.745 4.745 0 0 1 .282.165 1.726 1.726 0 0 1 .827 1.242 2.375 2.375 0 0 1 .028.369 2.296 2.296 0 0 1-.724 1.708 2.939 2.939 0 0 1-.106.099 2.911 2.911 0 0 1-1.824.727 3.76 3.76 0 0 1-.202.005q-1.183 0-1.865-.286a2.373 2.373 0 0 1-.015-.007 3.458 3.458 0 0 0-.083.41q-.064.436-.064 1.031 0 .885.845 2.029a7.79 7.79 0 0 0 .034.046A7.066 7.066 0 0 0 4.1 86.835a9.356 9.356 0 0 0 1.125.763 14.829 14.829 0 0 0 6.748 1.887 17.631 17.631 0 0 0 .771.017 20.391 20.391 0 0 0 7.463-1.444 23.532 23.532 0 0 0 .765-.314 32.362 32.362 0 0 0 3.913-2.034q1.915-1.157 3.913-2.668a55.917 55.917 0 0 0 .743-.571 72.807 72.807 0 0 0 8.342-7.72q5.315-5.696 10.506-13.276l7.568-11.036 7.373-10.058a190.34 190.34 0 0 1-7.541 7.449Q44.261 58.546 37.291 60.402a10.611 10.611 0 0 1-2.721.389 6.585 6.585 0 0 1-1.851-.241q-2.094-.613-2.883-2.783a6.341 6.341 0 0 1-.1-.296 5.195 5.195 0 0 1-.163-.701q-.121-.719-.129-1.702a17.243 17.243 0 0 1-.001-.136 6.071 6.071 0 0 1 .097-1.017q.247-1.439 1.124-3.598a36.276 36.276 0 0 1 1.441-3.094 49.2 49.2 0 0 1 1.879-3.278q4.2-6.689 9.522-12.109l7.617-7.861q4.443-4.639 4.932-5.884a11.696 11.696 0 0 0 .213-.588q.208-.626.259-1.071a2.392 2.392 0 0 0 .016-.27 4.382 4.382 0 0 0-2.778-4.19q-2.379-1.132-6.792-1.132a27.606 27.606 0 0 0-7.492 1.094q-3.902 1.099-8.084 3.3a48.977 48.977 0 0 0-9.835 6.785 43.875 43.875 0 0 0-3.203 3.176 33.382 33.382 0 0 0-2.519 3.094q-2.431 3.416-2.858 6.33a8.407 8.407 0 0 0-.091 1.221q0 3.301 2.812 3.977a7.007 7.007 0 0 0 1.631.173q4.054 0 9.592-4.265a43.94 43.94 0 0 0 1.492-1.204q4.932-4.15 8.545-8.837a175.408 175.408 0 0 0 2.028-2.681q3.957-5.343 4.458-7.105a2.773 2.773 0 0 0 .008-.029q.332-.581.452-.668a.066.066 0 0 1 .036-.015.258.258 0 0 1 .199.116q.244.308.385 1.429a12.429 12.429 0 0 1 .002.017 3.602 3.602 0 0 1 .027.395q.019 1.363-.858 3.515a21.778 21.778 0 0 1-.194.46 25.131 25.131 0 0 1-1.682 3.19 32.709 32.709 0 0 1-1.736 2.523 42.706 42.706 0 0 1-3.708 4.262 49.461 49.461 0 0 1-1.419 1.378 55.488 55.488 0 0 1-5.239 4.336 50.449 50.449 0 0 1-.767.547Q22.713 41.603 18.157 42a10.609 10.609 0 0 1-.921.041q-4.572 0-5.516-3.628a8.489 8.489 0 0 1-.245-2.134 12.206 12.206 0 0 1 .891-4.419q1.336-3.445 4.673-7.29a41.619 41.619 0 0 1 .051-.058q8.594-9.912 21.631-13.819 4.199-1.22 7.47-1.22 2.355 0 4.141.202a20.321 20.321 0 0 1 1.304.188q2.173.391 3.833 1.27 3.564 1.904 3.564 5.566a14.858 14.858 0 0 1-2.246 7.91 50.535 50.535 0 0 1-3.974 5.548q-3.503 4.294-8.526 8.906zm326.416 18.994a37.803 37.803 0 0 0 1.114-1.249q.606-.709 1.269-1.541a76.781 76.781 0 0 0 .815-1.043 70.47 70.47 0 0 1 3.736-4.468q4.785-5.322 7.959-5.322 4.946 0 3.681 4.679a11.56 11.56 0 0 1-.263.838q-.347 1.04-1.423 2.617a26.473 26.473 0 0 1-.286.411l-10.254 14.257.244.537a365.967 365.967 0 0 1 5.773-6.528q8.165-8.995 12.809-12.574a28.345 28.345 0 0 1 .705-.526q3.257-2.476 6.188-3.3a10.489 10.489 0 0 1 2.845-.411 8.3 8.3 0 0 1 1.884.201 5.566 5.566 0 0 1 2.608 1.361q1.249 1.249 1.249 2.63a3.079 3.079 0 0 1-.003.153 42.429 42.429 0 0 1-.04.688q-.064.966-.156 1.534a10.926 10.926 0 0 1-.307 1.343 12.099 12.099 0 0 1-.059.195 13.053 13.053 0 0 1-.507 1.189q-.291.605-.677 1.285a32.666 32.666 0 0 1-.867 1.432 115.203 115.203 0 0 1 4.329-4.201q6.468-5.931 10.5-7.293a8.612 8.612 0 0 1 .992-.273 9.622 9.622 0 0 1 1.278-.198 12.279 12.279 0 0 1 1.09-.046 6.675 6.675 0 0 1 1.668.203 5.913 5.913 0 0 1 .724.236 6.222 6.222 0 0 1 .925.457 4.548 4.548 0 0 1 .858.666 4.153 4.153 0 0 1 1.055 1.701q.2.634.19 1.351a10.892 10.892 0 0 1-.41 2.772 12.877 12.877 0 0 1-.274.866 16.024 16.024 0 0 1-.59 1.421q-.315.673-.723 1.417a36.302 36.302 0 0 1-.909 1.556q-2.732 4.364-8.598 10.941a203.015 203.015 0 0 1-2.437 2.682 129.572 129.572 0 0 0-.757.799q-2.484 2.64-2.612 3.132a7.465 7.465 0 0 0-.064.264q-.061.276-.077.469a1.509 1.509 0 0 0-.005.121l-.342.049a.87.87 0 0 0 .493.779q.65.376 2.155.392a12.739 12.739 0 0 0 .135.001 10.784 10.784 0 0 0 4.141-.791 10.357 10.357 0 0 0 .962-.454 27.928 27.928 0 0 0 2.78-1.72 35.281 35.281 0 0 0 1.931-1.454 56.044 56.044 0 0 0 4.664-4.224 151.351 151.351 0 0 0 2.166-2.233 120.034 120.034 0 0 0 1.96-2.112l3.125-3.614a193.95 193.95 0 0 1 .515-.632q.85-1.037 1.194-1.418l1.025.83a8.385 8.385 0 0 0-.255.268q-.527.578-1.576 1.856-.923 1.124-2.123 2.491a156.752 156.752 0 0 1-1.149 1.293 87.213 87.213 0 0 1-2.044 2.197 108.956 108.956 0 0 1-2.277 2.295q-2.392 2.344-4.932 4.297a35.964 35.964 0 0 1-3.004 2.092q-3.967 2.449-6.908 2.449a12.625 12.625 0 0 1-2.137-.168q-2.591-.446-3.869-2.078a2.51 2.51 0 0 1-.535-1.511 3.137 3.137 0 0 1-.002-.1 6.65 6.65 0 0 1 .059-.852q.056-.432.165-.913a12.71 12.71 0 0 1 .094-.384q.286-1.103 1.231-2.723a24.454 24.454 0 0 1 .209-.353 39.826 39.826 0 0 1 1.973-3.001q1.119-1.556 2.52-3.253a86.445 86.445 0 0 1 2.05-2.389 488.489 488.489 0 0 0 1.736-1.963q2.844-3.234 3.855-4.531.89-1.141 1.56-2.075a38.667 38.667 0 0 0 .564-.806 19.316 19.316 0 0 0 .644-1.09q.562-1.031.76-1.782a2.925 2.925 0 0 0 .11-.741q0-1.758-2.491-1.758-4.882 0-16.894 12.207a116.172 116.172 0 0 0-4.01 4.274q-3.479 3.887-7.416 8.861l-4.541 5.957q-.816-.177-1.941-.226a20.72 20.72 0 0 0-.891-.018 26.35 26.35 0 0 0-1.798.058q-1.606.11-2.792.43a10813.98 10813.98 0 0 0 1.705-2.086q5.253-6.426 6.151-7.55a27.202 27.202 0 0 0 .103-.129 2587.294 2587.294 0 0 0 2.593-3.429q8.128-10.766 9.449-12.795a8.619 8.619 0 0 0 .116-.183 30.114 30.114 0 0 0 .628-1.135q.852-1.631.966-2.479a1.833 1.833 0 0 0 .018-.243q0-1.445-2.182-1.511a7.065 7.065 0 0 0-.211-.003q-2.971 0-6.884 2.996a28.352 28.352 0 0 0-.538.422q-8.935 7.129-21.045 21.924l-4.541 5.957q-.816-.177-1.941-.226a20.72 20.72 0 0 0-.891-.018q-2.72 0-4.299.407a7.178 7.178 0 0 0-.291.081l16.944-24.218a125.127 125.127 0 0 0 .745-1.055q2.441-3.493 2.526-4.219.196-1.611-1.025-1.611-1.625 0-7.595 7.229a162.228 162.228 0 0 0-1.389 1.706l-3.125 3.858M202.002 71.094v.342q0 5.118 7.982 5.359a26.79 26.79 0 0 0 .807.012q6.104 0 13.818-5.371l7.276-5.713a31.119 31.119 0 0 1-5.889-2.899 24.103 24.103 0 0 1-5.195-4.426 17.784 17.784 0 0 1-2.991-4.53 14.979 14.979 0 0 1-1.306-5.382 13.687 13.687 0 0 1-.021-.752q0-4.762 3.425-8.219a14.236 14.236 0 0 1 .112-.111 13.352 13.352 0 0 1 6.797-3.559 19.595 19.595 0 0 1 4.042-.396q9.522 0 16.016 8.155a29.103 29.103 0 0 1 3.32 5.322 3009.109 3009.109 0 0 1 6.339-6.066q10.393-9.913 14.169-13.27l8.008-6.934a141.515 141.515 0 0 1 6.683-5.194q9.972-7.241 15.813-8.037a10.229 10.229 0 0 1 1.381-.099q.651 0 .82.161a.177.177 0 0 1 .059.132.348.348 0 0 1-.09.223q-.162.197-.619.375a4.218 4.218 0 0 1-.097.037 3.22 3.22 0 0 0-.574.282q-.567.347-1.208.987a18.166 18.166 0 0 0-.543.571q-.853.931-2.152 2.531a116.047 116.047 0 0 0-.137.17l-4.785 6.103-33.057 43.946a43.153 43.153 0 0 0 12.122-5.652 37.086 37.086 0 0 0 9.118-8.85 41.533 41.533 0 0 0 1.354-1.947q1.344-2.067 1.918-3.62 1.094-2.902 1.354-2.976a.048.048 0 0 1 .013-.002.176.176 0 0 1 .081.024q.114.061.291.276a3.866 3.866 0 0 1 .092.115.911.911 0 0 1 .13.254q.149.425.124 1.26a9.632 9.632 0 0 1-.01.244 8.482 8.482 0 0 1-.143 1.123q-.11.577-.299 1.223a18.007 18.007 0 0 1-.266.828 19.402 19.402 0 0 1-1.611 3.491 18.603 18.603 0 0 1-1.356 2q-1.531 1.991-3.967 4.299a34.109 34.109 0 0 1-9.794 6.566q-4.183 1.901-9.248 3.074a61.272 61.272 0 0 1-1.465.321l-8.35 11.035-3.125-.196q-1.288-.08-2.128-.094a20.121 20.121 0 0 0-.338-.003 14.069 14.069 0 0 0-.64.013q-.313.015-.586.044a6.871 6.871 0 0 0-.312.04l-1.367.196 7.226-8.936a11.872 11.872 0 0 1 .22-.352 10.601 10.601 0 0 1 .073-.112 2.524 2.524 0 0 0 .245-.464q-1.563.098-3.077.098a45.621 45.621 0 0 1-8.679-.799 39.173 39.173 0 0 1-4.211-1.056 260.574 260.574 0 0 1-3.205 2.615q-3.014 2.417-5.16 3.954a46.153 46.153 0 0 1-1.889 1.292 27.115 27.115 0 0 1-6.409 2.966 22.229 22.229 0 0 1-6.531.989 20.06 20.06 0 0 1-3.33-.255q-1.733-.293-3.055-.922a6.935 6.935 0 0 1-3.331-3.169 6.64 6.64 0 0 1-.491-1.366 5.346 5.346 0 0 1-.144-1.222 6.011 6.011 0 0 1 .052-.815q.058-.426.183-.779a2.873 2.873 0 0 1 .204-.456 4.066 4.066 0 0 1 .489-.696 3.227 3.227 0 0 1 .586-.525 5.103 5.103 0 0 1 2.643-.913 6.366 6.366 0 0 1 .433-.015 3.952 3.952 0 0 1 .921.098q1.233.297 1.466 1.493a3.176 3.176 0 0 1 .054.606 2.122 2.122 0 0 1-.639 1.527 2.943 2.943 0 0 1-.167.158 2.711 2.711 0 0 1-1.109.577q-.398.107-.867.126a5.2 5.2 0 0 1-.221.005 6.372 6.372 0 0 1-.727-.039q-.795-.091-1.276-.4a1.794 1.794 0 0 1-.072-.049zM115.43 58.057a37.803 37.803 0 0 0 1.113-1.249q.607-.709 1.27-1.541a76.781 76.781 0 0 0 .815-1.043 70.47 70.47 0 0 1 3.735-4.468q4.785-5.322 7.959-5.322 4.947 0 3.681 4.679a11.56 11.56 0 0 1-.263.838q-.346 1.04-1.422 2.617a26.473 26.473 0 0 1-.287.411l-10.254 14.257.245.537a591.617 591.617 0 0 1 5.376-5.815q7.551-8.05 11.507-11.496a43.452 43.452 0 0 1 .597-.511 64.998 64.998 0 0 1 2.174-1.736q3.324-2.531 5.175-3.073a24.015 24.015 0 0 1 1.424-.374q1.412-.321 2.442-.334a6.849 6.849 0 0 1 .089 0q1.309 0 2.301.318a5.142 5.142 0 0 1 .335.121 6.222 6.222 0 0 1 .925.457 4.548 4.548 0 0 1 .858.666 4.153 4.153 0 0 1 1.055 1.701q.2.634.19 1.351a10.892 10.892 0 0 1-.41 2.772 12.877 12.877 0 0 1-.274.866 16.024 16.024 0 0 1-.59 1.421q-.315.673-.723 1.417a36.302 36.302 0 0 1-.908 1.556q-2.733 4.364-8.599 10.941a203.015 203.015 0 0 1-2.437 2.682 129.572 129.572 0 0 0-.757.799q-2.484 2.64-2.612 3.132a7.465 7.465 0 0 0-.064.264q-.061.276-.077.469a1.509 1.509 0 0 0-.005.121q0 1.046 2.605 1.118a14.465 14.465 0 0 0 .398.005 12.883 12.883 0 0 0 5.615-1.245 28.824 28.824 0 0 0 4.101-2.403 33.026 33.026 0 0 0 1.026-.746q2.514-1.904 4.785-4.175a97.197 97.197 0 0 0 2.155-2.222 77.106 77.106 0 0 0 1.922-2.124 143.591 143.591 0 0 0 1.273-1.481q.496-.585.934-1.118a73.904 73.904 0 0 0 .82-1.014q1.054-1.327 1.525-1.872a10.375 10.375 0 0 1 .136-.154l1.025.83a12.927 12.927 0 0 0-.272.31q-.393.463-1.055 1.294a137.436 137.436 0 0 0-.431.544 58.062 58.062 0 0 1-1.038 1.277q-.468.561-.996 1.17a107.957 107.957 0 0 1-1.115 1.264 90.229 90.229 0 0 1-2.002 2.161 115.963 115.963 0 0 1-2.246 2.282q-2.368 2.344-5.005 4.297a31.687 31.687 0 0 1-3.686 2.345q-1.939 1.04-3.747 1.577a12.996 12.996 0 0 1-3.7.571 13.741 13.741 0 0 1-2.145-.156q-2.703-.428-3.958-2.042a2.51 2.51 0 0 1-.536-1.51 3.137 3.137 0 0 1-.002-.101q0-.928.269-2.124a6.831 6.831 0 0 1 .242-.812q.347-.964 1.052-2.24 1.784-3.074 4.733-6.621a79.283 79.283 0 0 1 1.785-2.07 529.719 529.719 0 0 0 1.709-1.925q2.804-3.175 3.833-4.472a50.643 50.643 0 0 0 .914-1.183q.414-.555.755-1.049a23.067 23.067 0 0 0 .431-.649 17.9 17.9 0 0 0 .641-1.104q.824-1.557.824-2.509 0-1.758-2.344-1.758a7.205 7.205 0 0 0-2.711.642q-4.819 2.007-13.256 10.296a118.837 118.837 0 0 0-4.444 4.589q-1.95 2.115-4.061 4.569a251.915 251.915 0 0 0-4.385 5.246l-4.541 5.957a14.243 14.243 0 0 0-1.53-.194 18.782 18.782 0 0 0-1.4-.05q-2.315 0-4.122.391a13.432 13.432 0 0 0-.419.097l16.943-24.218a125.127 125.127 0 0 0 .746-1.055q2.44-3.493 2.526-4.219.195-1.611-1.025-1.611-1.625 0-7.596 7.229a162.228 162.228 0 0 0-1.389 1.706l-3.125 3.858m186.475 5.908-.391-.195a94.887 94.887 0 0 1-5 5.213q-7.774 7.458-13.061 8.104a8.084 8.084 0 0 1-.982.062 8.623 8.623 0 0 1-2.491-.329q-2.739-.827-3.456-3.74a9.764 9.764 0 0 1-.254-2.328 19.026 19.026 0 0 1 2.384-9.087q1.431-2.668 3.719-5.268a48.67 48.67 0 0 1 6.631-6.469q7.98-6.324 16.563-6.324a9.428 9.428 0 0 1 2.103.219q1.383.317 2.38 1.091a5.373 5.373 0 0 1 .937.936q.378.515.49.982a1.647 1.647 0 0 1 .047.385 26.64 26.64 0 0 1-.001.222q-.004.428-.022.573a.744.744 0 0 1-.002.011 2.146 2.146 0 0 0-.014.138q-.006.077-.009.166a4.385 4.385 0 0 0-.001.111l24.219-34.766L346.973 0q1.679.726 3.147.777a6.357 6.357 0 0 0 .222.004 28.876 28.876 0 0 0 1.489-.036 21.359 21.359 0 0 0 1.343-.11l-46.387 65.039a223.446 223.446 0 0 0-1.329 1.805q-1.426 1.959-2.394 3.395a56.28 56.28 0 0 0-.549.83 15.841 15.841 0 0 0-.63 1.053q-.578 1.064-.744 1.862a2.962 2.962 0 0 0-.067.601q0 1.294 1.221 1.294a12.492 12.492 0 0 0 3.894-.671q1.694-.556 3.521-1.572a32.06 32.06 0 0 0 3.327-2.152 45.337 45.337 0 0 0 4.19-3.48q2.098-1.949 4.326-4.404a105.402 105.402 0 0 0 3.545-4.128q1.053-1.348 1.561-1.896a5.635 5.635 0 0 1 .148-.154l1.074.83a10.568 10.568 0 0 0-.296.31q-.426.463-1.128 1.294a107.077 107.077 0 0 0-.456.544q-1.343 1.611-3.32 3.711a100.793 100.793 0 0 1-2.1 2.161 129.083 129.083 0 0 1-2.344 2.282 45.776 45.776 0 0 1-5.249 4.297q-6.28 4.479-11.079 4.492a10.349 10.349 0 0 1-.029.001q-4.761 0-4.761-3.087a4.063 4.063 0 0 1 0-.063q.049-3.149 5.811-10.034zm178.662-13.184 6.836-6.884a39.824 39.824 0 0 0 2.258.219 31.067 31.067 0 0 0 2.087.074 45.221 45.221 0 0 0 1.351-.019q.633-.019 1.177-.057a19.498 19.498 0 0 0 .793-.071q-3.582 3.22-5.671 5.444a37.875 37.875 0 0 0-.823.904l-6.543 7.226a31.711 31.711 0 0 1-.421.464q-.678.733-1.63 1.685l-5.518 5.859a71.589 71.589 0 0 0-1.775 2.01q-3.449 4.069-3.449 5.656a7.987 7.987 0 0 0 .03.726q.118 1.292.702 1.545.707.306 2.576.317a23.861 23.861 0 0 0 .134 0q1.894 0 4.794-1.052a30.332 30.332 0 0 0 .26-.095 38.294 38.294 0 0 0 4.276-1.913 45.49 45.49 0 0 0 1.974-1.09 68.039 68.039 0 0 0 7.817-5.304 59.498 59.498 0 0 0 2.51-2.094q3.388-2.99 5.15-4.89a19.608 19.608 0 0 0 1.027-1.189 22.328 22.328 0 0 0 1.26-1.766q.625-.978 1.061-1.921a13.426 13.426 0 0 0 .12-.268q1.127-2.576 1.325-6.18a28.876 28.876 0 0 0 .042-1.584 4.748 4.748 0 0 1 .193-1.383 3.784 3.784 0 0 1 .93-1.571 3.674 3.674 0 0 1 2.659-1.147 4.477 4.477 0 0 1 .076 0 4.026 4.026 0 0 1 1.065.128q1.219.335 1.548 1.545a3.867 3.867 0 0 1 .121 1.012q0 5.567-9.717 14.991l-1.318 1.22a19.223 19.223 0 0 0-.844 1.235q-1.952 3.129-.719 4.527a1.419 1.419 0 0 0 .455.295q.571.242 1.572.242a4.634 4.634 0 0 0 1.149-.158q1.095-.281 2.44-1.063 2.099-1.22 4.126-2.905a48.806 48.806 0 0 0 3.193-2.895 43.851 43.851 0 0 0 .542-.547l2.686-2.832 1.025.83q-10.01 10.791-15.723 10.791a6.199 6.199 0 0 1-1.023-.078q-.52-.087-.916-.273a2.055 2.055 0 0 1-1.064-1.065 2.732 2.732 0 0 1-.207-.838q-.111-1.215.671-2.922a95.135 95.135 0 0 1-7.583 5.776q-3.879 2.638-7.54 4.449a45.353 45.353 0 0 1-4.603 1.982q-3.004 1.132-5.542 1.255a12.639 12.639 0 0 1-.611.015 11.343 11.343 0 0 1-1.453-.087q-1.714-.222-2.697-1.012-1.367-1.099-1.367-2.686a12.747 12.747 0 0 1 .096-1.603 9.857 9.857 0 0 1 .246-1.278q.341-1.293 1.367-3.1 1.676-2.999 5.125-7.393a124.47 124.47 0 0 1 .759-.957q2.769-3.457 5.112-6.061a80.347 80.347 0 0 1 2.041-2.191zM88.623 68.701l3.076-3.906-.488-.195q-8.203 10.107-15.479 12.695a15.643 15.643 0 0 1-1.369.403q-.688.167-1.298.234a7.258 7.258 0 0 1-.799.047q-4.772 0-5.753-4.039a10.023 10.023 0 0 1-.253-2.358 19.489 19.489 0 0 1 2.703-9.782 27.93 27.93 0 0 1 3.303-4.573 53.613 53.613 0 0 1 5.563-5.645q3.066-2.651 6.143-4.304a23.18 23.18 0 0 1 6.165-2.307q2.685-.537 4.59-.537a21.992 21.992 0 0 1 1.111.026q1.036.052 1.756.211a5.991 5.991 0 0 1 .136.031 7.999 7.999 0 0 1 1.091.348 6.274 6.274 0 0 1 .837.409q1.263.807 1.619 1.878a2.777 2.777 0 0 1 .139.881 8.271 8.271 0 0 1-.586 3.1l4.785-5.908a10.137 10.137 0 0 0 1.232.287 7.455 7.455 0 0 0 1.21.104q2.881 0 4.15-.196L95.752 65.43q-4.832 5.637-5.679 8.518a3.946 3.946 0 0 0-.18 1.101 1.869 1.869 0 0 0 .108.665q.31.815 1.497.89a3.966 3.966 0 0 0 .25.007q1.441 0 3.221-.677a16.044 16.044 0 0 0 1.052-.446 26.993 26.993 0 0 0 3.461-1.942 31.881 31.881 0 0 0 1.348-.939q2.393-1.757 4.663-3.906a107.226 107.226 0 0 0 2.961-2.908 91.565 91.565 0 0 0 1.238-1.291 99.915 99.915 0 0 0 1.813-1.978 73.25 73.25 0 0 0 1.581-1.831l2.344-2.636 1.025.83-2.49 2.832a103.655 103.655 0 0 1-5.921 6.335q-10.16 9.925-17.37 9.925a11.782 11.782 0 0 1-1.66-.107q-1.93-.276-2.704-1.269a2.604 2.604 0 0 1-.519-1.652 5.839 5.839 0 0 1 .304-1.768q.511-1.601 1.882-3.587a26.582 26.582 0 0 1 .646-.895zm94.775 0 3.077-3.906-.489-.195q-8.203 10.107-15.478 12.695a15.643 15.643 0 0 1-1.37.403q-.688.167-1.298.234a7.258 7.258 0 0 1-.799.047q-4.772 0-5.752-4.039a10.023 10.023 0 0 1-.254-2.358 19.489 19.489 0 0 1 2.703-9.782 27.93 27.93 0 0 1 3.303-4.573 53.613 53.613 0 0 1 5.564-5.645q3.065-2.651 6.142-4.304a23.18 23.18 0 0 1 6.165-2.307q2.686-.537 4.59-.537a21.992 21.992 0 0 1 1.112.026q1.036.052 1.755.211a5.991 5.991 0 0 1 .136.031 7.999 7.999 0 0 1 1.091.348 6.274 6.274 0 0 1 .838.409q1.262.807 1.618 1.878a2.777 2.777 0 0 1 .139.881 8.271 8.271 0 0 1-.585 3.1l4.785-5.908a10.137 10.137 0 0 0 1.231.287 7.455 7.455 0 0 0 1.21.104q2.881 0 4.15-.196L190.527 65.43q-4.832 5.637-5.679 8.518a3.946 3.946 0 0 0-.18 1.101 1.869 1.869 0 0 0 .109.665q.309.815 1.496.89a3.966 3.966 0 0 0 .25.007q1.442 0 3.222-.677a16.044 16.044 0 0 0 1.051-.446 26.993 26.993 0 0 0 3.462-1.942 31.881 31.881 0 0 0 1.348-.939q2.392-1.757 4.663-3.906a107.226 107.226 0 0 0 2.96-2.908 91.565 91.565 0 0 0 1.239-1.291 99.915 99.915 0 0 0 1.813-1.978 73.25 73.25 0 0 0 1.58-1.831l2.344-2.636 1.026.83-2.491 2.832a103.655 103.655 0 0 1-5.921 6.335q-10.16 9.925-17.37 9.925a11.782 11.782 0 0 1-1.659-.107q-1.931-.276-2.705-1.269a2.604 2.604 0 0 1-.519-1.652 5.839 5.839 0 0 1 .304-1.768q.512-1.601 1.882-3.587a26.582 26.582 0 0 1 .646-.895zm160.499 0 3.076-3.906-.489-.195q-8.203 10.107-15.478 12.695a15.643 15.643 0 0 1-1.37.403q-.688.167-1.298.234a7.258 7.258 0 0 1-.799.047q-4.772 0-5.752-4.039a10.023 10.023 0 0 1-.254-2.358 19.489 19.489 0 0 1 2.704-9.782 27.93 27.93 0 0 1 3.302-4.573 53.613 53.613 0 0 1 5.564-5.645q3.065-2.651 6.142-4.304a23.18 23.18 0 0 1 6.165-2.307q2.686-.537 4.59-.537a21.992 21.992 0 0 1 1.112.026q1.036.052 1.755.211a5.991 5.991 0 0 1 .136.031 7.999 7.999 0 0 1 1.091.348 6.274 6.274 0 0 1 .838.409q1.262.807 1.618 1.878a2.777 2.777 0 0 1 .14.881 8.271 8.271 0 0 1-.586 3.1l4.785-5.908a10.137 10.137 0 0 0 1.231.287 7.455 7.455 0 0 0 1.21.104q2.881 0 4.151-.196L351.025 65.43q-4.832 5.637-5.679 8.518a3.946 3.946 0 0 0-.18 1.101 1.869 1.869 0 0 0 .109.665q.309.815 1.496.89a3.966 3.966 0 0 0 .251.007q1.441 0 3.221-.677a16.044 16.044 0 0 0 1.051-.446 26.993 26.993 0 0 0 3.462-1.942 31.881 31.881 0 0 0 1.348-.939q2.392-1.757 4.663-3.906a107.226 107.226 0 0 0 2.96-2.908 91.565 91.565 0 0 0 1.239-1.291 99.915 99.915 0 0 0 1.813-1.978 73.25 73.25 0 0 0 1.58-1.831l2.344-2.636 1.026.83-2.491 2.832a103.655 103.655 0 0 1-5.921 6.335q-10.16 9.925-17.37 9.925a11.782 11.782 0 0 1-1.659-.107q-1.93-.276-2.705-1.269a2.604 2.604 0 0 1-.518-1.652 5.839 5.839 0 0 1 .304-1.768q.511-1.601 1.881-3.587a26.582 26.582 0 0 1 .647-.895zm188.671 0 3.077-3.906-.489-.195q-8.203 10.107-15.478 12.695a15.643 15.643 0 0 1-1.37.403q-.688.167-1.298.234a7.258 7.258 0 0 1-.799.047q-4.772 0-5.752-4.039a10.023 10.023 0 0 1-.254-2.358 19.489 19.489 0 0 1 2.703-9.782 27.93 27.93 0 0 1 3.303-4.573 53.613 53.613 0 0 1 5.564-5.645q3.065-2.651 6.142-4.304a23.18 23.18 0 0 1 6.165-2.307q2.686-.537 4.59-.537a21.992 21.992 0 0 1 1.111.026q1.037.052 1.756.211a5.991 5.991 0 0 1 .136.031 7.999 7.999 0 0 1 1.091.348 6.274 6.274 0 0 1 .838.409q1.262.807 1.618 1.878a2.777 2.777 0 0 1 .139.881 8.271 8.271 0 0 1-.586 3.1l4.786-5.908a10.137 10.137 0 0 0 1.231.287 7.455 7.455 0 0 0 1.21.104q2.881 0 4.15-.196L539.697 65.43q-4.832 5.637-5.679 8.518a3.946 3.946 0 0 0-.18 1.101 1.869 1.869 0 0 0 .109.665q.309.815 1.496.89a3.966 3.966 0 0 0 .25.007q1.442 0 3.222-.677a16.044 16.044 0 0 0 1.051-.446 26.993 26.993 0 0 0 3.462-1.942 31.881 31.881 0 0 0 1.347-.939q2.393-1.757 4.664-3.906a107.226 107.226 0 0 0 2.96-2.908 91.565 91.565 0 0 0 1.239-1.291 99.915 99.915 0 0 0 1.812-1.978 73.25 73.25 0 0 0 1.581-1.831l2.344-2.636 1.025.83-2.49 2.832a103.655 103.655 0 0 1-5.921 6.335q-10.16 9.925-17.37 9.925a11.782 11.782 0 0 1-1.659-.107q-1.931-.276-2.705-1.269a2.604 2.604 0 0 1-.519-1.652 5.839 5.839 0 0 1 .304-1.768q.512-1.601 1.882-3.587a26.582 26.582 0 0 1 .646-.895zM266.602 35.303l-15.723 15.136q2.002 5.127 2.002 8.79a37.219 37.219 0 0 1-.057 2.136q-.126 2.182-.529 3.625l18.115-21.924a4259.379 4259.379 0 0 1 6.241-7.246q11.497-13.315 15.367-17.515a86.164 86.164 0 0 1 .609-.654 336.182 336.182 0 0 1 2.008-2.116q2.662-2.779 4.183-4.207a39.765 39.765 0 0 1 .157-.146l-3.272 1.367a33.205 33.205 0 0 0-3.901 2.075q-3.995 2.432-9.369 6.743a198.292 198.292 0 0 0-5.577 4.658l-10.254 9.278zm207.031 26.074 1.855-2.051q.782-.928 1.123-1.269l1.075.83a15.851 15.851 0 0 0-.431.414q-.475.474-1.092 1.149a54.282 54.282 0 0 0-.089.097 58.898 58.898 0 0 1-1.037 1.111 76.348 76.348 0 0 1-1.16 1.184l-2.588 2.539a28.185 28.185 0 0 1-2.589 2.137q-2.839 2.05-5.253 2.42a6.883 6.883 0 0 1-1.045.082 3.48 3.48 0 0 1-1.103-.166q-.982-.327-1.533-1.299-5.595 6.347-12.05 8.574a22.244 22.244 0 0 1-.499.166 15.748 15.748 0 0 1-2.963.61 13.641 13.641 0 0 1-1.407.074 15.482 15.482 0 0 1-1.625-.081q-.801-.085-1.49-.258a8.312 8.312 0 0 1-.523-.15q-1.514-.488-2.49-1.367a6.223 6.223 0 0 1-2.089-3.889q-.491-3.148 1.308-7.879a28.496 28.496 0 0 1 3.149-6.103 36.315 36.315 0 0 1 4.346-5.249 36.454 36.454 0 0 1 5.2-4.321 28.292 28.292 0 0 1 4.876-2.671q3.239-1.356 6.397-1.546a17.116 17.116 0 0 1 1.032-.031 8.359 8.359 0 0 1 2.375.325 6.964 6.964 0 0 1 2.092 1.017 4.711 4.711 0 0 1 1.974 3.322 6.593 6.593 0 0 1 .053.536 21.28 21.28 0 0 1 .036 1.237q0 1.827-.329 3.475a25.019 25.019 0 0 1-1.291 4.326 27.43 27.43 0 0 1-.028.068 32.045 32.045 0 0 1-4.534 7.931 36.11 36.11 0 0 1-.446.565q.342 1.416 1.88 1.416 1.538 0 2.929-.708a17.823 17.823 0 0 0 1.914-1.135 21.083 21.083 0 0 0 .87-.622 29.505 29.505 0 0 0 2.398-2.025 32.728 32.728 0 0 0 .336-.319 97.515 97.515 0 0 0 1.288-1.264 79.201 79.201 0 0 0 1.178-1.202zm-380.615-.635 4.101-4.931a40.663 40.663 0 0 0 1.142-1.828q1.642-2.805 1.776-4.353a3.077 3.077 0 0 0 .012-.265q0-2.712-2.152-3.272a5.036 5.036 0 0 0-1.266-.146 8.157 8.157 0 0 0-2.84.592q-3.988 1.501-9.927 6.81a85.441 85.441 0 0 0-.563.508 58.153 58.153 0 0 0-3.028 3.003 78.97 78.97 0 0 0-3.125 3.54 54.379 54.379 0 0 0-3.012 3.986q-3.872 5.695-3.872 9.686a3.952 3.952 0 0 0 .097.922q.297 1.232 1.493 1.465a3.176 3.176 0 0 0 .607.055q6.47 0 18.126-12.989a141.64 141.64 0 0 0 2.431-2.783zm94.775 0 4.102-4.931a40.663 40.663 0 0 0 1.141-1.828q1.643-2.805 1.776-4.353a3.077 3.077 0 0 0 .012-.265q0-2.712-2.152-3.272a5.036 5.036 0 0 0-1.266-.146 8.157 8.157 0 0 0-2.839.592q-3.988 1.501-9.927 6.81a85.441 85.441 0 0 0-.564.508 58.153 58.153 0 0 0-3.027 3.003 78.97 78.97 0 0 0-3.125 3.54 54.379 54.379 0 0 0-3.012 3.986q-3.873 5.695-3.873 9.686a3.952 3.952 0 0 0 .098.922q.296 1.232 1.493 1.465a3.176 3.176 0 0 0 .606.055q6.47 0 18.127-12.989a141.64 141.64 0 0 0 2.43-2.783zm160.498 0 4.102-4.931a40.663 40.663 0 0 0 1.141-1.828q1.643-2.805 1.776-4.353a3.077 3.077 0 0 0 .012-.265q0-2.712-2.152-3.272a5.036 5.036 0 0 0-1.266-.146 8.157 8.157 0 0 0-2.839.592q-3.988 1.501-9.927 6.81a85.441 85.441 0 0 0-.564.508 58.153 58.153 0 0 0-3.027 3.003 78.97 78.97 0 0 0-3.125 3.54 54.379 54.379 0 0 0-3.012 3.986q-3.873 5.695-3.873 9.686a3.952 3.952 0 0 0 .098.922q.297 1.232 1.493 1.465a3.176 3.176 0 0 0 .606.055q6.47 0 18.127-12.989a141.64 141.64 0 0 0 2.43-2.783zm188.672 0 4.102-4.931a40.663 40.663 0 0 0 1.141-1.828q1.643-2.805 1.776-4.353a3.077 3.077 0 0 0 .012-.265q0-2.712-2.152-3.272a5.036 5.036 0 0 0-1.266-.146 8.157 8.157 0 0 0-2.84.592q-3.987 1.501-9.926 6.81a85.441 85.441 0 0 0-.564.508 58.153 58.153 0 0 0-3.027 3.003 78.97 78.97 0 0 0-3.125 3.54 54.379 54.379 0 0 0-3.012 3.986q-3.873 5.695-3.873 9.686a3.952 3.952 0 0 0 .098.922q.296 1.232 1.493 1.465a3.176 3.176 0 0 0 .606.055q6.47 0 18.127-12.989a141.64 141.64 0 0 0 2.43-2.783zm-241.016 8.692 4.004-3.858q3.467-3.418 5.664-6.543l4.346-6.201a14.276 14.276 0 0 0 .592-1.342q.531-1.408.531-2.515a3.46 3.46 0 0 0-.113-.914 2.29 2.29 0 0 0-1.059-1.406 4.889 4.889 0 0 0-1.503-.608 4.445 4.445 0 0 0-.938-.1 4.959 4.959 0 0 0-.951.101q-.982.193-2.247.754-1.929.854-4.371 2.661-3.971 2.841-8.431 7.586a102.258 102.258 0 0 0-3.092 3.449 58.873 58.873 0 0 0-2.973 3.915q-2.726 3.95-3.598 6.994a9.708 9.708 0 0 0-.411 2.665 3.515 3.515 0 0 0 .121.966q.422 1.476 2.32 1.476a7.805 7.805 0 0 0 2.715-.56q3.775-1.417 9.28-6.416a74.863 74.863 0 0 0 .114-.104zm-62.89-4.688q9.521-8.496 16.015-14.795a25.482 25.482 0 0 0-3.725-6.135 19.293 19.293 0 0 0-8.628-5.974 18.028 18.028 0 0 0-3.685-.828 15.701 15.701 0 0 0-1.76-.1 12.744 12.744 0 0 0-2.514.238 10.063 10.063 0 0 0-2.222.714 12.419 12.419 0 0 0-3.638 2.515 11.402 11.402 0 0 0-2.677 4.065 11.119 11.119 0 0 0-.692 3.943q0 8.154 7.617 13.427a22.506 22.506 0 0 0 3.499 1.969 28.114 28.114 0 0 0 2.41.961zm226.22 1.904v-.195a8.741 8.741 0 0 1 .37-2.611 6.686 6.686 0 0 1 2.755-3.639q.711-.501 1.349-.752a4.302 4.302 0 0 1 .214-.078 33.069 33.069 0 0 0 1.115-2.642q1.091-2.962 1.091-5.133a8.235 8.235 0 0 0-.009-.379 11.036 11.036 0 0 0-.246-1.828q-.738-3.202-3.465-3.202a7.761 7.761 0 0 0-3.388.917q-5.136 2.533-12.774 12.072-6.32 7.935-6.32 12.557a6.363 6.363 0 0 0 .021.529 5.228 5.228 0 0 0 .221 1.565 3.859 3.859 0 0 0 1.928 2.292 3.077 3.077 0 0 0 .612.222q.656.169 1.585.169a7.603 7.603 0 0 0 2.16-.348q2.046-.61 4.632-2.287a35.882 35.882 0 0 0 1.362-.93 36.691 36.691 0 0 0 6.787-6.299zm-224.511-1.367q5.371 1.514 12.011 1.514a40.004 40.004 0 0 0 3.418-.147 16.93 16.93 0 0 0 .893-3.092 13.692 13.692 0 0 0 .23-2.474 28.26 28.26 0 0 0-1.611-9.521q-10.986 10.351-14.941 13.72zm-118.311-6.396a.589.589 0 0 1-.165.055q-.253.043-.517-.164a1.4 1.4 0 0 1-.124-.111q-.415-.415-.219-.61m256.299.83a.589.589 0 0 1-.166.055q-.253.043-.516-.164a1.4 1.4 0 0 1-.124-.111q-.415-.415-.22-.61"
      vector-effect="non-scaling-stroke" stroke-linecap="round" fill-rule="evenodd" stroke-width=".945"
      style="stroke-width:.25mm"/>
  </symbol>
</svg>
