<svg xmlns="http://www.w3.org/2000/svg">
  <symbol id="logo" viewBox="0 0 533.468 124.3">
    <path
      d="m232.501 84.5.4-.7q-3.7 1.9-7.05 2.65a32.368 32.368 0 0 1-3.432.585 25.102 25.102 0 0 1-2.818.165q-6 0-10.75-1.95t-7.5-6.05a15.412 15.412 0 0 1-2.146-5.005q-.491-2.027-.583-4.388a28.416 28.416 0 0 1-.021-1.107 24.965 24.965 0 0 1 0-.078q.011-3.367.931-6.348a19.538 19.538 0 0 1 1.069-2.724q2-4.15 5.1-7.25.5-.8.65-1.75.122-.774.145-1.382a7.207 7.207 0 0 0 .005-.268q0-1.7-.9-3.15a4.138 4.138 0 0 0-.378-.522q-.738-.855-1.599-.634a1.576 1.576 0 0 0-.023.006.319.319 0 0 0-.056.005q-.031.005-.055.017a.148.148 0 0 0-.039.028q-.041.041-.117.049a.352.352 0 0 1-.033.001.917.917 0 0 1-.183-.017q-.281-.057-.313-.314a.56.56 0 0 1-.004-.069.992.992 0 0 1 .347-.754q.149-.137.362-.252a2.689 2.689 0 0 1 .191-.094 3.973 3.973 0 0 1 1.05-.533 3.376 3.376 0 0 1 1.05-.167q1.4 0 2.3 1.25a4.538 4.538 0 0 1 .709 1.566q.155.619.184 1.344a8.469 8.469 0 0 1 .007.34q-.2 1.7-.9 3.2 4.2-3.4 9.1-5.2a33.296 33.296 0 0 1 3.833-1.165q2.692-.635 5.067-.635a21.262 21.262 0 0 1 3.581.281q1.956.335 3.485 1.069a9.033 9.033 0 0 1 2.934 2.2q3.1 3.55 3.1 8.05a12.285 12.285 0 0 1-1.064 4.926 16.211 16.211 0 0 1-1.186 2.224q-2.25 3.55-6 5.85t-8.15 2.3a15.761 15.761 0 0 1-5.038-.845 17.715 17.715 0 0 1-.162-.055.451.451 0 0 0-.061-.052q-.07-.048-.139-.048-.083 0-.166-.069a.497.497 0 0 1-.034-.031 5.176 5.176 0 0 1-1.63-.87q-.558-.433-1.081-1.04a9.542 9.542 0 0 1-.239-.29q-1.334-1.679-1.35-4.334a10.725 10.725 0 0 1 0-.066 12.612 12.612 0 0 1 .314-2.73 17.275 17.275 0 0 1 .736-2.42q1.05-2.75 2.85-3.45.6-.2.8-.2.308 0 .527.089a.887.887 0 0 1 .123.061q.25.15.35.25a1.766 1.766 0 0 0-1.022 1.274 3.156 3.156 0 0 0-.078.726q0 .8.45 1.75.318.672.662 1.119a3.378 3.378 0 0 0 .288.331 21.423 21.423 0 0 1 .803.851 27.557 27.557 0 0 1 .647.749 5.277 5.277 0 0 1 .568.847q.385.703.682 1.653a8.239 8.239 0 0 1 .097.434 6.538 6.538 0 0 1 .053.316 4.954 4.954 0 0 1 .043.457 5.966 5.966 0 0 1 .007.293q0 1.2-.5 2.3-.5 1.1-1.6 1.7a16.207 16.207 0 0 0 .854.12 14.012 14.012 0 0 0 .296.03q.55.05 1.15.05 4 0 7.3-2.2t5.35-5.5a14.545 14.545 0 0 0 1.437-2.991 11.161 11.161 0 0 0 .613-3.609 11.94 11.94 0 0 0-.663-4.034 10.708 10.708 0 0 0-1.587-2.916q-2.19-2.871-8.027-2.948a24.594 24.594 0 0 0-.323-.002 22.342 22.342 0 0 0-6.042.793 19.451 19.451 0 0 0-3.708 1.457q-4.35 2.25-7.55 5.95t-4.9 8.15a25.862 25.862 0 0 0-1.481 5.64 22.357 22.357 0 0 0-.219 3.11q0 4.1 1.75 7.65a13.246 13.246 0 0 0 4.377 5.03 16.457 16.457 0 0 0 1.123.72q3.109 1.824 7.765 2.204a30.655 30.655 0 0 0 1.985.096 6.995 6.995 0 0 1-1.545-.686 5.819 5.819 0 0 1-1.105-.864 3.903 3.903 0 0 1-.67-.876 3.014 3.014 0 0 1-.38-1.474 3.227 3.227 0 0 1 .084-.761 1.945 1.945 0 0 1 .866-1.239q.95-.6 1.85-.6a2.245 2.245 0 0 1 .267.015q.381.046.533.235a.203.203 0 0 1 .038.07q.067.234-.538.58a1.295 1.295 0 0 0-.598.76q-.076.239-.096.534a3.153 3.153 0 0 0-.006.206 3.318 3.318 0 0 0 .484 1.716 4.077 4.077 0 0 0 .116.184q.311.544.954 1.058a6.651 6.651 0 0 0 .396.292 3.633 3.633 0 0 0 1.358.558 5.073 5.073 0 0 0 .992.092h.2a21.587 21.587 0 0 0 7.104-1.24 26.652 26.652 0 0 0 2.596-1.06 48.554 48.554 0 0 0 6.125-3.461A59.747 59.747 0 0 0 241.901 77q4.9-3.8 9.7-8.4 4.8-4.6 9.3-9.3a6.558 6.558 0 0 1-.952.205q-.661.095-1.448.095v.1q-1.1 1.9-4.1 1.9-1.8 0-3.7-1a8.557 8.557 0 0 1-1.6-1.158q-.715-.645-1.41-1.508a18.332 18.332 0 0 1-.84-1.134 13.402 13.402 0 0 1-1.015-1.729q-.47-.971-.675-1.884a6.309 6.309 0 0 1-.16-1.387 4.142 4.142 0 0 1 .016-.353 5.3 5.3 0 0 1 .034-.297 3.926 3.926 0 0 1 .09-.448 3.326 3.326 0 0 1 .06-.202q.235-.706.532-1.012a.9.9 0 0 1 .168-.138q.396-.248.596-.25a.322.322 0 0 1 .004 0q-.4 1.8 1.35 2.65 1.75.85 3.05.85a4.142 4.142 0 0 0 .353-.016 5.3 5.3 0 0 0 .297-.034q.35-.05.65-.05a9.905 9.905 0 0 1 .892.042 13.062 13.062 0 0 1 .858.108q.891.141 1.913.589a11.136 11.136 0 0 1 .137.061 5.83 5.83 0 0 1 1.977 1.631 7.193 7.193 0 0 1 .373.519 4.505 4.505 0 0 1 .563 1.195q.266.901.087 1.855a6.606 6.606 0 0 0 4.14-1.453 8.172 8.172 0 0 0 .06-.047q5-5.3 9.55-10.35 3.91-4.34 7.192-7.757a226.803 226.803 0 0 1 1.058-1.093 154.903 154.903 0 0 1 5.959-5.929 179.426 179.426 0 0 1 2.341-2.171q4.5-4.1 9.6-7.1-1.9-1.1-3.5-2.05-1.366-.811-2.294-1.294a21.46 21.46 0 0 0-.306-.156 35.107 35.107 0 0 0-1.873-.962q-2.265-1.085-5.427-2.288a75.255 75.255 0 0 0-6.974-2.257 87.691 87.691 0 0 0-2.926-.743 46.751 46.751 0 0 0-7.02-1.122 40.054 40.054 0 0 0-3.18-.128 26.713 26.713 0 0 0-5.524.543 19.24 19.24 0 0 0-6.326 2.507 21.713 21.713 0 0 0-4.806 4.045 18.973 18.973 0 0 0-2.494 3.605 20.771 20.771 0 0 0-2.134 5.976 18.665 18.665 0 0 0-.316 3.424q0 3.8 1.65 7.2 1.65 3.4 5 5.45a13.298 13.298 0 0 0 4.025 1.6q1.981.45 4.325.45h.95q.45 0 .85-.1 1-.5 1.65-1.45.65-.95.85-1.65.157-.628.191-1.133a4.008 4.008 0 0 0 .009-.267 3.444 3.444 0 0 0-.138-.984 3.147 3.147 0 0 0-.112-.316q-.183-.44-.501-.611a.89.89 0 0 0-.249-.089q-.199-.05-.299-.149a.339.339 0 0 1-.101-.251.449.449 0 0 1 .256-.404q.343-.196 1.144-.196 1.3 0 1.95.75a2.643 2.643 0 0 1 .634 1.515 3.465 3.465 0 0 1 .016.335 4.141 4.141 0 0 1-.536 2.023 5.068 5.068 0 0 1-.164.277 6.381 6.381 0 0 1-2.915 2.423 7.805 7.805 0 0 1-.185.077 22.595 22.595 0 0 0 3.738-.88q2.218-.739 3.962-1.92a16.434 16.434 0 0 0 2.676-2.237 12.871 12.871 0 0 0 1.974-2.663 13.185 13.185 0 0 0 1.112-2.603 10.071 10.071 0 0 0 .438-2.897 12.012 12.012 0 0 0-1.282-5.347 15.085 15.085 0 0 0-.818-1.453q-2.1-3.3-6.7-3.9h-.85a2.292 2.292 0 0 0-.548.07 3.036 3.036 0 0 0-.402.13 3.894 3.894 0 0 0-1.373 1.032 4.676 4.676 0 0 0-.177.218q-.502.656-.616 1.282a2.041 2.041 0 0 0-.034.368 1.806 1.806 0 0 0 .072.525 1.303 1.303 0 0 0 .628.775q.186.093.199.359a.839.839 0 0 1 .001.041.453.453 0 0 1-.031.175q-.094.225-.469.225a1.344 1.344 0 0 1-.703-.214q-.549-.333-1.097-1.186-.13-.391-.176-.696a2.075 2.075 0 0 1-.024-.304 1.342 1.342 0 0 1 .016-.191q.03-.206.117-.499a7.22 7.22 0 0 1 .067-.21 2.363 2.363 0 0 0-.181.1q-.244.15-.319.3a3.699 3.699 0 0 1-.581.407q-.813.471-2.219.893-2 .6-4 .6a8.6 8.6 0 0 1-.468-.012q-.225-.012-.426-.037a5.169 5.169 0 0 1-.006-.001 10.439 10.439 0 0 1-.397-.058q-.208-.034-.437-.079a17.262 17.262 0 0 1-.066-.013q-1.3-.3-2.25-1.25a3.185 3.185 0 0 1-.95-2.306 4.094 4.094 0 0 1 0-.044 1.201 1.201 0 0 1 .007-.133q.03-.267.193-.267.095 0 .907.628a39.312 39.312 0 0 1 .093.072 1.942 1.942 0 0 0 .53.214q.342.086.77.086a4.903 4.903 0 0 0 3.553-1.453 6.017 6.017 0 0 0 .047-.047q1.7-1.8 3.9-3.1a11.636 11.636 0 0 1 1.465-.74q.793-.328 1.527-.464a5.534 5.534 0 0 1 1.008-.096q1.905 0 3.148.787a4.158 4.158 0 0 1 .602.463 6.946 6.946 0 0 1 1.29 1.585 6.093 6.093 0 0 1 .56 1.265 11.937 11.937 0 0 1 3.179 1.226 9.494 9.494 0 0 1 3.171 2.924 12.38 12.38 0 0 1 2.097 6.063 15.511 15.511 0 0 1 .053 1.287 11.966 11.966 0 0 1-.948 4.594A15.978 15.978 0 0 1 275.401 40a15.725 15.725 0 0 1-4.17 4.385 19.983 19.983 0 0 1-2.18 1.365q-4.15 2.25-10.25 2.25-5.213 0-8.966-1.559a15.59 15.59 0 0 1-1.634-.791q-4.2-2.35-6.3-6.1-2.1-3.75-2.1-8.05a19.185 19.185 0 0 1 .692-5.021 23.468 23.468 0 0 1 .708-2.179 14.453 14.453 0 0 1-.856.336 12.192 12.192 0 0 1-.494.164 6.675 6.675 0 0 1-.617.156q-.32.066-.685.114a12.213 12.213 0 0 1-.248.03 4.037 4.037 0 0 1 .004.183q0 1.701-1.434 3.402a10.496 10.496 0 0 1-.77.815 7.711 7.711 0 0 1-3.76 1.952 11.357 11.357 0 0 1-2.44.248 16.862 16.862 0 0 1-4.082-.52 20.67 20.67 0 0 1-1.918-.58 10.199 10.199 0 0 1-1.647-.741q-.857-.489-1.444-1.101a4.532 4.532 0 0 1-.909-1.358q-.233-.622-.285-1.002a1.475 1.475 0 0 1-.015-.198 1.883 1.883 0 0 1 .023-.31q.027-.157.083-.278a.634.634 0 0 1 .294-.312 2.338 2.338 0 0 0 .883.891q.434.241.994.294a3.439 3.439 0 0 0 .323.015 4.429 4.429 0 0 0 1.43-.246 5.821 5.821 0 0 0 .82-.354 9.532 9.532 0 0 0 .89-.524q.555-.371.96-.776a43.166 43.166 0 0 1 .834-.81q.475-.45 1.016-.94a6.541 6.541 0 0 1 .993-.731q.518-.314 1.153-.595a13.784 13.784 0 0 1 .804-.324q.844-.281 1.951-.299a9.377 9.377 0 0 1 .149-.001q1.6 0 3.05.75a3.773 3.773 0 0 1 1.857 2.165 5.086 5.086 0 0 1 .093.285q1.083-.167 1.888-.472a6.044 6.044 0 0 0 .312-.128 3.596 3.596 0 0 0 .674-.402q.593-.439 1.226-1.198a21.934 21.934 0 0 1 5.184-6.4 28.754 28.754 0 0 1 3.566-2.6 23.508 23.508 0 0 1 7.39-2.94q3.427-.76 7.46-.76 2.3 0 4.75.4t4.95 1a4.708 4.708 0 0 1-.708-.888A3.259 3.259 0 0 1 274.401 8q0-.752.231-1.23a1.375 1.375 0 0 1 .569-.62 4.077 4.077 0 0 1 .586-.274q.342-.127.665-.162a2.273 2.273 0 0 1 .249-.014.433.433 0 0 0-.383.238q-.197.326-.215 1.096a6.878 6.878 0 0 0-.002.166 4.884 4.884 0 0 0 .089.897q.082.438.239.921a9.834 9.834 0 0 0 .172.482 4.174 4.174 0 0 0 .424.831q.401.598.977.917a2.648 2.648 0 0 0 .099.052 63.912 63.912 0 0 1 7.54 2.585 57.685 57.685 0 0 1 1.31.565 132.181 132.181 0 0 1 2.433 1.112q2.498 1.175 4.217 2.138a23.778 23.778 0 0 1 .47.243q.729.385 1.978 1.087a208.736 208.736 0 0 1 .302.17q1.95 1.1 4.35 2.4 3.4-1.9 7.05-2.95 3.65-1.05 7.45-1.05a12.586 12.586 0 0 1 2.428.22q1.442.284 2.565.934a6.786 6.786 0 0 1 1.107.796 7.995 7.995 0 0 1 1.204 1.313q.708.988.913 2.056a4.671 4.671 0 0 1 .083.881q0 2.3-2.4 4.1a6.357 6.357 0 0 1-1.873.94q-2.255.73-5.827.46a4.621 4.621 0 0 1-.505-.096q-.493-.119-1.157-.36a21.344 21.344 0 0 1-.638-.244 169.471 169.471 0 0 1-1.494-.606q-.785-.323-1.656-.689a285.444 285.444 0 0 1-.25-.105q-.7.9-1.6 1.9a58.696 58.696 0 0 0-1.772 2.066 63.755 63.755 0 0 0-.028.034 32.117 32.117 0 0 0-1.414 1.896q-1.058 1.524-2.186 3.454-1.9 3.25-3.6 6.6-1.461 2.879-2.7 5.13a114.054 114.054 0 0 1-.4.72 52.239 52.239 0 0 1-4.512 7.066 65.108 65.108 0 0 1-3.438 4.184q-4.95 5.55-11 9.7-6.05 4.15-12.45 5.65l1.35.1q1.35.1 3.25.2t3.75.25q1.85.15 2.75.25.9.1 2.35.25 1.45.15 3.05.15 2.8 0 5.25-.75a4.5 4.5 0 0 0 1.129-.508q1.228-.793 1.314-2.309a4.102 4.102 0 0 0 .007-.233 4.281 4.281 0 0 0-.264-1.463 5.076 5.076 0 0 0-.136-.337l.9-.2a15.208 15.208 0 0 1 .933 1.773q.767 1.749.767 3.227a5.378 5.378 0 0 1-.297 1.832q-.501 1.391-1.845 2.268a5.92 5.92 0 0 1-.158.1q-2.3 1.4-4.9 1.4a23.379 23.379 0 0 1-5.168-.601 28.668 28.668 0 0 1-2.532-.699q-4-1.3-8.45-2.55a33.647 33.647 0 0 0-6.473-1.128 40.505 40.505 0 0 0-3.177-.122l-.3-.9q.4.1.8.15.4.05.8.05 3.211 0 6.6-2.14a19.289 19.289 0 0 0 .4-.26 37.499 37.499 0 0 0 4.018-3.111 48.012 48.012 0 0 0 3.082-2.989q3.5-3.7 6.65-7.75a345.016 345.016 0 0 0 2.788-3.632q1.487-1.965 2.762-3.718a7.158 7.158 0 0 1 .513-.943 5.271 5.271 0 0 1 .687-.857h-13.2q-11 12.3-19.65 19.65a229.741 229.741 0 0 1-6.185 5.084q-2.911 2.303-5.526 4.186a105.566 105.566 0 0 1-3.439 2.38v.1h-.2v.1q-1.8 1.1-2.9 2.9a8.14 8.14 0 0 0-.685 1.276q-.442 1.049-.442 2.04a4.375 4.375 0 0 0 .027.484 2.794 2.794 0 0 1 .817-.256 3.718 3.718 0 0 1 .583-.044 4.286 4.286 0 0 1 1.84.425 5.388 5.388 0 0 1 .51.275 4.964 4.964 0 0 1 1.272 1.091 4.559 4.559 0 0 1 .478.709q.62 1.086.85 2.021a4.858 4.858 0 0 1 .1.529q.15 1.15.25 2.15a4.579 4.579 0 0 0 .275 1.219q.191.523.509 1.074a9.269 9.269 0 0 0 .316.507 3.166 3.166 0 0 0 .488.581q.771.707 1.817.495a2.953 2.953 0 0 0 .295-.076.333.333 0 0 1-.006.055q-.025.136-.144.495a.907.907 0 0 1-.18.303q-.2.232-.585.449a4.25 4.25 0 0 1-.185.098 2.932 2.932 0 0 1-.883.323q-.368.075-.79.077a4.967 4.967 0 0 1-.027 0q-1.871 0-3.996-1.085a14.483 14.483 0 0 1-.754-.415q-2.55-1.5-3.75-3.2a7.846 7.846 0 0 1-.93-1.796 6.232 6.232 0 0 1-.37-2.104 6.491 6.491 0 0 1 .123-1.31q.16-.775.527-1.357a3.263 3.263 0 0 1 .75-.833 1.89 1.89 0 0 1-.1-.591 1.801 1.801 0 0 1 0-.009v-.6q0-.8.2-1.7a6.208 6.208 0 0 1 .303-.986 5.083 5.083 0 0 1 .297-.614zm-222.1-48.3v-.3a.666.666 0 0 1 .008-.106q.03-.185.177-.194a.253.253 0 0 1 .015 0q.263 0 .604.309a2.688 2.688 0 0 1 .096.091q.331.331.937.388a2.814 2.814 0 0 0 .263.012 3.816 3.816 0 0 0 1.324-.247 5.316 5.316 0 0 0 .926-.453 7.674 7.674 0 0 0 1.066-.775 5.959 5.959 0 0 0 .784-.825 24.557 24.557 0 0 1 1.25-2.86 31.337 31.337 0 0 1 1.3-2.29 32.113 32.113 0 0 1 2.125-2.997 41.154 41.154 0 0 1 2.025-2.353q3.8-4.1 9.2-7.7 5.4-3.6 11.3-5.5-1.2-2.7-3.35-4.8a12.998 12.998 0 0 0-3.408-2.37 16.608 16.608 0 0 0-2.042-.83 11.337 11.337 0 0 0-3.544-.6 10.806 10.806 0 0 0-.056 0q-2.8 0-5.35 1.15a13.931 13.931 0 0 0-3.527 2.255 12.919 12.919 0 0 0-.823.795l-.2.3a6.313 6.313 0 0 0-1.143 1.4 5.188 5.188 0 0 0-.657 1.8 21.951 21.951 0 0 0-.258 2.367 27.132 27.132 0 0 0-.042 1.533q0 2.1-.55 4.35a9.221 9.221 0 0 1-.965 2.377q-.539.944-1.321 1.88a15.723 15.723 0 0 1-.164.193q-1.3 1.5-3.6 1.5-1 0-1.7-.4a3.448 3.448 0 0 1-.133-.07q-.253-.14-.266-.221a.054.054 0 0 1-.001-.009q0-.183.294-.283a1.237 1.237 0 0 1 .056-.017q.349-.1.748-.299a4.263 4.263 0 0 0 .002-.001q.781-.39 1.181-1.4a4.113 4.113 0 0 0 .019-.05q.4-1.05.4-2.15a3.283 3.283 0 0 0-.02-.342q-.043-.408-.18-.958a15.308 15.308 0 0 1-.431-1.809 11.198 11.198 0 0 1-.169-1.891q0-2.9 1.3-5.2a8.364 8.364 0 0 1 1.291-1.745A6.523 6.523 0 0 1 17.301 5.4a2.984 2.984 0 0 1-1.09-1.213 3.732 3.732 0 0 1-.11-.237 3.278 3.278 0 0 1-.148-.428q-.182-.685.048-1.222a8.099 8.099 0 0 1 .175-.269q.346-.507.51-.53a.109.109 0 0 1 .015-.001.175.175 0 0 1 .147.099q.153.246.153 1.101a1.004 1.004 0 0 0 .422.832q.159.122.378.218a4.168 4.168 0 0 0 1.194.316 5.223 5.223 0 0 0 .606.034 8.425 8.425 0 0 0 1.029-.059q.529-.065.971-.202a3.964 3.964 0 0 0 .6-.239v.2q2.1-1.9 4.9-2.85 2.8-.95 5.6-.95 1.5 0 3 .3a22.722 22.722 0 0 1 3.46.995q2.473.942 4.24 2.405 2.9 2.4 4.2 5.8 1.4-.3 2.8-.4a38.755 38.755 0 0 1 2.209-.096A34.539 34.539 0 0 1 53.101 9a27.049 27.049 0 0 1 4.055.338q2.068.342 3.715 1.031a10.765 10.765 0 0 1 3.28 2.081 10.959 10.959 0 0 1 3.544 7.962 13.819 13.819 0 0 1 .006.388q0 4.8-2.9 10.1a57.513 57.513 0 0 1-6.43 9.456 63.099 63.099 0 0 1-.12.144q-3.85 4.6-7.9 9-4.05 4.4-7.6 8.75a49.102 49.102 0 0 0-3.91 5.496 41.453 41.453 0 0 0-1.84 3.354q-1.102 2.204-1.445 4.028a8.513 8.513 0 0 0-.155 1.572q0 1.936.929 3.092a3.693 3.693 0 0 0 .621.608 5.576 5.576 0 0 0 2.269 1.031 7.945 7.945 0 0 0 1.681.169 12.463 12.463 0 0 0 2.432-.255q1.497-.298 3.168-.945a21.489 21.489 0 0 0 3.931-2.03 26.942 26.942 0 0 0 2.169-1.57 86.817 86.817 0 0 0 2.526-2.14q1.382-1.213 2.901-2.633a168.711 168.711 0 0 0 1.873-1.777q4.1-3.95 8.4-8.8 4.3-4.85 8.25-9.9a153.878 153.878 0 0 0 4.143-5.539 121.915 121.915 0 0 0 2.807-4.111 55.5 55.5 0 0 1 4.034-5.71 48.342 48.342 0 0 1 1.566-1.84 12.726 12.726 0 0 1 1.914-1.767q1.301-.958 2.671-1.337A6.79 6.79 0 0 1 95.501 27q1.4 0 2.15.7.6.56.72 1.185a1.67 1.67 0 0 1 .03.315 1.989 1.989 0 0 1-.127.725q-.183.471-.629.794a2.248 2.248 0 0 1-.044.031 3.131 3.131 0 0 1-.959.452 2.828 2.828 0 0 1-.741.098 4.614 4.614 0 0 1-.581-.034q-.294-.038-.536-.116a1.893 1.893 0 0 1-.433-.2q-.501-.319-.961-.43a2.268 2.268 0 0 0-.089-.02 5.439 5.439 0 0 0-.283-.086q-.14-.039-.267-.064a2.842 2.842 0 0 0-.209-.034q-.129-.016-.241-.016-.9 0-2.1.9a20.36 20.36 0 0 0-2.432 2.862q-1.029 1.446-1.975 3.214a38.97 38.97 0 0 0-.843 1.674 74.011 74.011 0 0 0-2.148 5.025q-.89 2.299-1.74 4.876a123.638 123.638 0 0 0-.562 1.749 1590.286 1590.286 0 0 0-1.302 4.205q-.664 2.157-1.4 4.563A2789.16 2789.16 0 0 0 77.301 61q-1.8 5.9-3.95 12.2-2.15 6.3-4.55 12.15-2.241 5.462-4.656 9.572a53.164 53.164 0 0 1-.344.578 68.366 68.366 0 0 1-4.74 6.989 81.349 81.349 0 0 1-2.56 3.161q-4.3 5.05-9.55 9.3-5.25 4.25-11.3 6.8-6.05 2.55-12.65 2.55a26.803 26.803 0 0 1-1.706-.056 30.694 30.694 0 0 1-.594-.044q-1.2-.1-2.4-.3a29.675 29.675 0 0 1-4.855-1.225q-3.282-1.149-5.695-3.025a19.106 19.106 0 0 1-4.647-5.136 17.958 17.958 0 0 1-1.253-2.464q-1.85-4.45-1.85-9.15 0-7.5 3.7-13.5a18.293 18.293 0 0 1 2.594-3.304A23.496 23.496 0 0 1 8.401 84.2q0-.1.2-.3a6.575 6.575 0 0 0 1.119-1.121 8.152 8.152 0 0 0 .481-.679 5.866 5.866 0 0 0 .703-1.616 7.498 7.498 0 0 0 .197-.984 2.526 2.526 0 0 1-1.777-1.116 3.297 3.297 0 0 1-.173-.284q-.65-1.2-.75-2.6a3.01 3.01 0 0 1 .083-.659q.197-.872.867-2.141a9.254 9.254 0 0 0 .615-1.429q.283-.862.327-1.672a5.491 5.491 0 0 0 .008-.299q0-2.317-1.772-3.05a3.534 3.534 0 0 0-.128-.05l.25-.25q.132-.132.456-.148a1.901 1.901 0 0 1 .094-.002 2.553 2.553 0 0 1 1.005.222q.751.32 1.57 1.104a9.014 9.014 0 0 1 .025.024q1.4 1.35 2.4 3.4t1 4.25q0 2-1.05 3.3a5.548 5.548 0 0 1-.701.731q-.74.634-1.549.769a9.421 9.421 0 0 1-.43 1.743 12.014 12.014 0 0 1-.47 1.157q5.8-3.2 12.1-3.2a22.957 22.957 0 0 1 2.37.116q1.624.168 2.93.584 4.4 1.3 7.4 4.55t3 7.85a14.351 14.351 0 0 1-.183 2.249 16.489 16.489 0 0 1-.117.651q-.295 1.477-1.075 3.147a19.141 19.141 0 0 1-.025.053 9.042 9.042 0 0 1 .835.135q.426.089.896.222a16.437 16.437 0 0 1 .319.093q1.15.35 1.65 1.75a1.394 1.394 0 0 1 .097.265q.077.289.096.723a6.93 6.93 0 0 1 .007.312 5.562 5.562 0 0 1-.476 2.187q-.351.826-.962 1.679a13.375 13.375 0 0 1-.962 1.184 22.727 22.727 0 0 1-4.583 3.91 21.146 21.146 0 0 1-.717.44 7.553 7.553 0 0 1-2.324.971 8.534 8.534 0 0 1-.126.029 9.293 9.293 0 0 1-.529.102q-.949.154-1.502.003a1.633 1.633 0 0 1-.019-.005 2.523 2.523 0 0 0 1.555-1.373 3.167 3.167 0 0 0 .095-.227 6.996 6.996 0 0 0 .387-1.617 8.968 8.968 0 0 0 .063-1.083q0-1.3-.25-2.6t-.55-2.2a9.381 9.381 0 0 1-.205-.924q-.082-.49-.093-.932a5.545 5.545 0 0 1-.002-.144 5.307 5.307 0 0 1 .159-1.331 3.927 3.927 0 0 1 .841-1.619q1-1.15 2.5-1.15a5.677 5.677 0 0 1 .739.045q.378.05.694.154a2.759 2.759 0 0 1 .367.151l1.3.65a13.246 13.246 0 0 0 1.085-3.206 11.403 11.403 0 0 0 .215-2.194 10.266 10.266 0 0 0-.927-4.394 10.136 10.136 0 0 0-2.173-3.006q-3.1-3-7.5-4.1a20.982 20.982 0 0 0-2.253-.39 16.196 16.196 0 0 0-1.847-.11 18.36 18.36 0 0 0-7.516 1.646 22.286 22.286 0 0 0-1.534.754q-4.45 2.4-7.35 7-1.8 3.1-2.85 6.65a24.878 24.878 0 0 0-1.046 6.612 23.368 23.368 0 0 0-.004.438q0 3.1.85 5.95t2.55 5.25a5.967 5.967 0 0 1-.3-1.892 6.932 6.932 0 0 1 0-.008 6.908 6.908 0 0 1 .239-1.849 5.862 5.862 0 0 1 .561-1.351q-.3-.2-.5-.5-.5-.8-.5-1.7a4.105 4.105 0 0 1 .174-1.157 5.692 5.692 0 0 1 .376-.943q.55-1.1 1.55-1.9a8.68 8.68 0 0 1 1.12-.684q.563-.291 1.226-.548a15.812 15.812 0 0 1 .454-.168 10.672 10.672 0 0 1 1.983-.501 8.949 8.949 0 0 1 1.317-.099 6.361 6.361 0 0 1 1.027.077q1.137.187 1.773.823.5.4.55.75.045.315-.032.508a.521.521 0 0 1-.018.042q-.4-.3-.9-.3-.9 0-1.7.8a6.034 6.034 0 0 0-.549.625q-.265.35-.434.701a3.298 3.298 0 0 0-.117.274q-.3.7-.65 1.55a3.588 3.588 0 0 1-.391.697q-.364.518-.959 1.053a5.36 5.36 0 0 1-1.098.766q-1.299.671-2.74.348a4.688 4.688 0 0 1-.062-.014 10.074 10.074 0 0 0-.561 1.59 7.29 7.29 0 0 0-.239 1.81q0 1.13.349 1.91a2.849 2.849 0 0 0 .351.59.881.881 0 0 1 .072.209q.021.099.026.212a1.684 1.684 0 0 1 .002.079 18.804 18.804 0 0 0 2.832 2.199 23.639 23.639 0 0 0 2.018 1.151 18.256 18.256 0 0 0 3.613 1.359 24.158 24.158 0 0 0 3.037.591 25.236 25.236 0 0 0 1.623.148 27.821 27.821 0 0 0 .027.002 28.445 28.445 0 0 0 1.449.049 25.903 25.903 0 0 0 .201.001q6 0 11.5-2.9a39.334 39.334 0 0 0 7.57-5.254 47.296 47.296 0 0 0 2.78-2.646q4.85-5 9.1-11.35t7.9-13.25q3.65-6.9 6.65-13.7 3-6.8 5.3-12.65 2.3-5.85 4-10.05a15.623 15.623 0 0 0 .287-.609q.285-.638.613-1.491.5-1.3 1.2-2.8-4.4 5.8-9.2 11.4-4.8 5.6-9.1 9.95a139.691 139.691 0 0 1-2.561 2.528q-2.656 2.552-4.707 4.196a42.03 42.03 0 0 1-.032.026 34.092 34.092 0 0 1-4.792 3.292q-2.722 1.523-5.359 2.19a16.476 16.476 0 0 1-4.049.518 10.548 10.548 0 0 1-3.191-.465 8.821 8.821 0 0 1-3.059-1.685 7.029 7.029 0 0 1-2.468-4.638 10.118 10.118 0 0 1-.082-1.312q0-1.3.35-2.8a12.96 12.96 0 0 1 .594-1.865 16.282 16.282 0 0 1 .556-1.235 42.793 42.793 0 0 1 1.388-2.621q1.043-1.826 2.412-3.879a124.802 124.802 0 0 1 3.881-5.484 143.058 143.058 0 0 1 1.419-1.866q2.9-3.75 5.75-7.25a1153.006 1153.006 0 0 0 2.369-2.919q1.083-1.338 2.049-2.543a673.782 673.782 0 0 0 .632-.788q1.684-2.105 2.665-3.478a29.15 29.15 0 0 0 .535-.772 73.342 73.342 0 0 0 3.359-5.672 60.553 60.553 0 0 0 1.641-3.328q2-4.4 2-7.8a7.27 7.27 0 0 0-.412-2.492 6.328 6.328 0 0 0-1.738-2.558q-2.15-1.95-7.25-2.05-1.3 0-2.55.1-1.25.1-2.55.3a18.4 18.4 0 0 1 .74 3.471 24.046 24.046 0 0 1 .16 2.829 31.892 31.892 0 0 1-.662 6.353 38.251 38.251 0 0 1-.738 2.997q-1.4 4.85-3.7 9.45a47.735 47.735 0 0 1-3.404 5.791 40.8 40.8 0 0 1-1.796 2.409 31.828 31.828 0 0 1-2.504 2.827q-1.352 1.345-2.712 2.307a15.617 15.617 0 0 1-1.634 1.016q-3.162 1.696-6.03 1.837a10.548 10.548 0 0 1-.52.013 9.755 9.755 0 0 1-4.049-.824A9.487 9.487 0 0 1 18.051 49a10.462 10.462 0 0 1-.044-.049q-2.806-3.09-2.806-8.051a9.319 9.319 0 0 1 .107-1.386 10.503 10.503 0 0 1 .043-.264q.15-.85.25-1.75-.186.186-.372.285a1.142 1.142 0 0 1-.028.015q-.7.4-1.6.4-1.1 0-2.05-.65a4.578 4.578 0 0 1-.475-.37q-.53-.476-.674-.978a1.719 1.719 0 0 1-.001-.002zm397 39.15a3.773 3.773 0 0 0 1.285.979q1.194.571 3.015.571 3.3 0 6.6-2.3a28.52 28.52 0 0 0 3.363-2.771 38.887 38.887 0 0 0 3.087-3.329q3.15-3.8 5.95-8.4a3.632 3.632 0 0 0 .054-.137q.332-.899-.222-1.038a.959.959 0 0 0-.232-.025 1.432 1.432 0 0 0-.252.021 1.004 1.004 0 0 0-.548.279 64.609 64.609 0 0 1-.097.165q-3.057 5.191-6.453 8.735-3.45 3.6-6.45 5.4a19.312 19.312 0 0 1-.746.426q-1.261.682-2.233.931a4.146 4.146 0 0 1-1.021.143 2.911 2.911 0 0 1-.512-.042q-1.388-.248-1.388-1.958a4.248 4.248 0 0 1 .018-.387q.089-.966.602-2.286a18.948 18.948 0 0 1 .58-1.327 36.921 36.921 0 0 1 2.031-3.704 50.329 50.329 0 0 1 2.619-3.796q2.95-3.9 4.85-6.4a23.603 23.603 0 0 0 .329-.436q.693-.941 1.209-1.845a13.31 13.31 0 0 0 .912-1.919 15.435 15.435 0 0 0 .297-.866q.453-1.468.453-2.634a6.07 6.07 0 0 0-.16-1.457q-.452-1.824-2.179-2.339a5.46 5.46 0 0 0-1.561-.204 6.582 6.582 0 0 0-.444.015q-.58.04-1.223.179a12.305 12.305 0 0 0-1.283.356 12.917 12.917 0 0 0-.561.202q-1.423.548-3.089 1.548-2.2 1.3-4.2 3t-3.8 3.6a19.141 19.141 0 0 0 .099-.176 20.755 20.755 0 0 0 1.301-2.824 12.168 12.168 0 0 0 .131-.368q.22-.649.337-1.247a6.712 6.712 0 0 0 .132-1.285 4.611 4.611 0 0 0-.036-.597q-.047-.357-.154-.644a1.809 1.809 0 0 0-.41-.659q-1-1.2-3.5-1.2a9.86 9.86 0 0 0-1.407.106 13.508 13.508 0 0 0-1.443.294q-1.55.4-3.25 1.3a3.202 3.202 0 0 0-.246.168q-.584.432-1.904 1.632-1.65 1.5-3.25 3.05a61.999 61.999 0 0 0-.109.106q-1.508 1.468-1.991 2.144a24.27 24.27 0 0 0 .417-1.139q.414-1.228.634-2.352a12.562 12.562 0 0 0 .249-2.409q0-.72-.144-1.332a3.941 3.941 0 0 0-.856-1.718 3.201 3.201 0 0 0-1.479-.975 4.049 4.049 0 0 0-1.221-.175q-1.247 0-2.58.646a9.834 9.834 0 0 0-1.42.854 7.354 7.354 0 0 0-.493.396q-.985.856-2.407 2.554-1.8 2.15-3.75 4.75t-3.55 4.85q-1.6 2.25-2.3 3.35a1.193 1.193 0 0 0-.018.086q-.06.347.118.614a.637.637 0 0 0 .349.265.843.843 0 0 0 .251.035 1.684 1.684 0 0 0 .078-.002q.114-.005.212-.026a.881.881 0 0 0 .21-.072 48.012 48.012 0 0 1 .413-.659q.738-1.157 1.887-2.841a112.464 112.464 0 0 1 1.167-1.678 134.615 134.615 0 0 1 2.133-2.922 72.693 72.693 0 0 1 1.343-1.737 59.379 59.379 0 0 1 2.207-2.613 36.417 36.417 0 0 1 .159-.176q1.11-1.221 2.034-2.009a10.864 10.864 0 0 1 .857-.665 14.199 14.199 0 0 1 .17-.098q.78-.44 1.237-.559a1.191 1.191 0 0 1 .293-.043 1.265 1.265 0 0 1 .177.012q.723.102.723 1.088 0 .781-.733 2.6a33.924 33.924 0 0 1-.467 1.1 24.96 24.96 0 0 1-.378.722q-.697 1.287-1.922 3.278-.85 1.381-1.855 2.932a209.64 209.64 0 0 1-1.895 2.868q-2.15 3.2-4.4 6.45-2.25 3.25-4.25 5.95a1638.204 1638.204 0 0 1-.894 1.205q-.934 1.259-1.656 2.226a510.188 510.188 0 0 1-.65.869 1.417 1.417 0 0 0 .095.027q.335.087 1.155.173.95.1 2.05.1h.002a21.625 21.625 0 0 0 2.048-.1 9.891 9.891 0 0 0 .065-.006q1.01-.103 1.785-.394.087-.088 1.132-1.706a345.31 345.31 0 0 0 .318-.494 111.528 111.528 0 0 1 .295-.457q1.297-1.996 3.355-4.993a166.78 166.78 0 0 1 1.795-2.562 203.725 203.725 0 0 1 3.305-4.488q1.8-2.5 3.8-5 2-2.5 4.1-4.5a87.483 87.483 0 0 1 1.041-.961q1.641-1.489 2.887-2.447a19.783 19.783 0 0 1 1.172-.842q1.399-.92 2.256-1.163a2.026 2.026 0 0 1 .544-.087 1.552 1.552 0 0 1 .255.02q.643.107.797.793a2.239 2.239 0 0 1 .048.487 4.388 4.388 0 0 1-.022.43q-.121 1.225-.909 2.82a18.502 18.502 0 0 1-.869 1.55q-.5.8-2 3a1761.733 1761.733 0 0 0-.986 1.448q-1.139 1.674-2.514 3.702-2 2.95-4.15 6-2.15 3.05-4 5.65-1.388 1.95-2.297 3.281a88.024 88.024 0 0 0-.553.819q.281.056.61.097a11.921 11.921 0 0 0 .54.053q.65.05 1.45.05 1.3 0 2.6-.15a21.704 21.704 0 0 0 .577-.074q.582-.083.979-.179a4.275 4.275 0 0 0 .344-.097l1.4-2.2q1.05-1.65 2.606-3.919a258.319 258.319 0 0 1 1.094-1.581q2.3-3.3 4.85-6.8a148.526 148.526 0 0 1 .337-.461q1.175-1.599 2.274-3.004a88.646 88.646 0 0 1 2.139-2.635 46.735 46.735 0 0 1 1.15-1.316q2.592-2.854 5.05-4.534a23.152 23.152 0 0 1 1.337-.853q2.04-1.197 3.263-1.197a1.768 1.768 0 0 1 .444.051q.544.142.696.674a1.728 1.728 0 0 1 .06.475 3.18 3.18 0 0 1-.116.792q-.21.807-.803 1.925a21.497 21.497 0 0 1-.681 1.183q-2.8 4.4-5.35 7.9a31.134 31.134 0 0 0-2.088 3.292 39.023 39.023 0 0 0-2.262 4.908q-.7 1.7-.7 3.6 0 2.1 1.3 3.65zm41.3-7.45-.2.3q-1.5 2.2-3.3 4.05-1.8 1.85-4 3.05-1.3.7-2.8 1.1a11.822 11.822 0 0 1-1.993.359 10.176 10.176 0 0 1-.907.041q-2.3 0-4.25-1.1a6.228 6.228 0 0 1-2.171-2.078 8.742 8.742 0 0 1-.779-1.522 8.331 8.331 0 0 1-.453-1.53q-.247-1.226-.247-2.77a19.525 19.525 0 0 1 .792-5.429 22.805 22.805 0 0 1 .408-1.271 30.46 30.46 0 0 1 3.821-7.653 28.063 28.063 0 0 1 1.279-1.697 28.763 28.763 0 0 1 4.418-4.398 24.559 24.559 0 0 1 2.932-2.002q4.05-2.35 8.15-2.35a10.798 10.798 0 0 1 2.008.174q1.097.208 1.945.664A4.971 4.971 0 0 1 454.801 45a7.017 7.017 0 0 1 1.55 3.356 9.733 9.733 0 0 1 .15 1.744 16.2 16.2 0 0 1-.194 2.449 19.775 19.775 0 0 1-.256 1.351q-.45 2-1.15 4-1 2.8-2.6 5.1a80.675 80.675 0 0 1-.951 1.34q-.927 1.276-1.648 2.139a22.927 22.927 0 0 1-.101.121q1.911 1.042 3.936.387a6.154 6.154 0 0 0 .614-.237 12.636 12.636 0 0 0 3.066-1.964 15.726 15.726 0 0 0 1.284-1.236 35.153 35.153 0 0 0 1.597-1.833q.696-.861 1.25-1.678a19.749 19.749 0 0 0 .353-.539q.805-1.163 2.09-2.966a537.966 537.966 0 0 1 .31-.434q1.5-2.1 3.25-4.45t3.3-4.5q1.386-1.923 2.333-3.166a71.911 71.911 0 0 1 .217-.284q.612-.153 1.547-.423a96.084 96.084 0 0 0 .603-.177 9.563 9.563 0 0 1 2.038-.378 8.584 8.584 0 0 1 .612-.022q1.024 0 1.673.428a2.098 2.098 0 0 1 .427.372 56.192 56.192 0 0 1-.731 1.147q-.838 1.282-2.022 2.977a213.815 213.815 0 0 1-1.147 1.626 200.058 200.058 0 0 0-3.309 4.797 239.924 239.924 0 0 0-2.041 3.103q-2.75 4.25-4.7 8.3a26.292 26.292 0 0 0-1.028 2.419q-.922 2.537-.922 4.531a6.424 6.424 0 0 0 .03.648q.068.669.29 1.059a1.183 1.183 0 0 0 .23.293 1.945 1.945 0 0 0 .597.379 1.768 1.768 0 0 0 .653.121 2.735 2.735 0 0 0 .431-.038q.448-.072 1.032-.281a9.586 9.586 0 0 0 .087-.031 12.57 12.57 0 0 0 .762-.312q.675-.301 1.488-.738a20.248 20.248 0 0 0 2.954-2.051 24.73 24.73 0 0 0 1.496-1.349 46.973 46.973 0 0 0 3.456-3.752 42.6 42.6 0 0 0 .444-.548q1.75-2.2 2.85-3.6a9.086 9.086 0 0 1-.194-1.058q-.106-.833-.106-1.842a24.734 24.734 0 0 1 .297-3.772 27.339 27.339 0 0 1 .053-.328 59.107 59.107 0 0 1 .316-1.742q.209-1.058.434-1.958.6-2 1.55-3.9a16.509 16.509 0 0 1 .869-1.538q.584-.909 1.231-1.612a6.803 6.803 0 0 1 .559-.547q.615-.53 1.151-.661a1.435 1.435 0 0 1 .34-.042 1.824 1.824 0 0 1 .884.237q.264.145.522.376a3.721 3.721 0 0 1 .144.137 2.425 2.425 0 0 1 .611 1.067q.139.481.139 1.083 0 .9-.25 2.2a16.053 16.053 0 0 1-.261 1.122q-.233.869-.589 1.878a21.101 21.101 0 0 1-.81 2.046q-.474 1.043-1.096 2.16a35.796 35.796 0 0 1-.194.344 91.273 91.273 0 0 1-1.187 2.019q-.738 1.218-1.413 2.231a269.146 269.146 0 0 1-.418.626q-.772 1.15-1.04 1.517a5.636 5.636 0 0 1-.042.057 1.934 1.934 0 0 0 .08.269q.206.57.87 1.781a3.275 3.275 0 0 0 .685.882q.691.616 1.693.664a3.591 3.591 0 0 0 .172.004 5.588 5.588 0 0 0 2.911-.84 8.254 8.254 0 0 0 1.439-1.11q2.05-1.95 3.55-4.45.4-.4 1-.4a.362.362 0 0 1 .175.048q.059.032.119.087a1.026 1.026 0 0 1 .106.115q.173.216.047.618a1.798 1.798 0 0 1-.047.132q-2.376 3.784-4.52 5.361a7.705 7.705 0 0 1-.58.389q-1.644.993-3.054 1.306a5.75 5.75 0 0 1-1.246.144 5.334 5.334 0 0 1-1.32-.155 3.82 3.82 0 0 1-1.73-.945 8.013 8.013 0 0 1-.636-.678q-.304-.367-.507-.723a3.349 3.349 0 0 1-.307-.699 38.933 38.933 0 0 1-.444.65q-.731 1.05-1.856 2.55a34.799 34.799 0 0 1-1.975 2.393 43.471 43.471 0 0 1-1.575 1.657q-2.05 2.05-4.55 3.45a10.757 10.757 0 0 1-3.78 1.301 10.196 10.196 0 0 1-1.42.099 8.194 8.194 0 0 1-2.313-.298q-2.561-.754-3.241-3.422a8.842 8.842 0 0 1-.246-2.18 16.306 16.306 0 0 1 .402-3.532 19.869 19.869 0 0 1 .448-1.668q.85-2.7 1.85-4.6-.083.083-.234.097a.703.703 0 0 1-.066.003.619.619 0 0 1-.341-.094q-.156-.1-.259-.306-.133-.267-.133-.489a.663.663 0 0 1 .033-.211 1.196 1.196 0 0 1 .155-.24.798.798 0 0 1 .395-.26 7.775 7.775 0 0 1 .122-.034q.19-.051.282-.062a.376.376 0 0 1 .046-.004 1.192 1.192 0 0 1 .243.022q.617.13.237 1.008a3.462 3.462 0 0 1-.08.17 28.725 28.725 0 0 1-2.352 3.328q-2.323 2.811-4.948 4.222a11.022 11.022 0 0 1-1.557.696q-1.268.445-2.436.445a5.844 5.844 0 0 1-3.107-.891zm-303.1 8.9q-2.4 0-4.1-1.55a5.009 5.009 0 0 1-1.481-2.54q-.219-.868-.219-1.91a13.667 13.667 0 0 1 .705-4.244 18.695 18.695 0 0 1 1.295-3.006 61.658 61.658 0 0 1 3.873-6.293 69.206 69.206 0 0 1 .827-1.157 170.568 170.568 0 0 0 2.507-3.523q1.167-1.688 2.161-3.228a104.888 104.888 0 0 0 .032-.049 12.767 12.767 0 0 0 .529-1.007q.473-1.017.554-1.786a2.926 2.926 0 0 0 .017-.307 2.187 2.187 0 0 0-.06-.537q-.177-.698-.878-.831a1.933 1.933 0 0 0-.362-.032q-1 0-3 1.25t-5.1 4.25a61.867 61.867 0 0 0-4.885 5.525 69.383 69.383 0 0 0-.865 1.125 102.975 102.975 0 0 0-4.285 6.124 92.234 92.234 0 0 0-.715 1.126 162.773 162.773 0 0 0-2.085 3.424q-.968 1.638-1.789 3.129a99.367 99.367 0 0 0-.026.047q-1.263 2.297-2.028 3.773a64.556 64.556 0 0 0-.422.827 4.431 4.431 0 0 1-.653.218q-.335.085-.725.139a8.786 8.786 0 0 1-.372.043q-1.05.1-2.15.1a33.003 33.003 0 0 1-1.012-.014q-1.441-.045-2.103-.227a2.163 2.163 0 0 1-.185-.059q1.3-1.8 3.45-5 2.15-3.2 4.55-6.95t4.4-7.05q1.1-1.9 2.4-4.1 1.3-2.2 2.2-4.15a17.58 17.58 0 0 0 .394-.916q.355-.902.461-1.541a3.04 3.04 0 0 0 .045-.493q0-.91-.662-.992a1.121 1.121 0 0 0-.138-.008 1.351 1.351 0 0 0-.342.049q-.408.107-.958.451a6.401 6.401 0 0 0-1.053.829 7.736 7.736 0 0 0-.447.471 22.552 22.552 0 0 0-.966 1.036q-1.232 1.399-2.884 3.614-2.35 3.15-6.15 9.25a.988.988 0 0 1-.694.473 1.613 1.613 0 0 1-.306.027.819.819 0 0 1-.221-.027q-.495-.139-.205-.998a3.415 3.415 0 0 1 .026-.075q1.8-2.9 3.7-5.85 1.9-2.95 3.8-5.55 2-2.6 3.75-4.15a6.741 6.741 0 0 1 1.463-1.004 5.077 5.077 0 0 1 2.287-.546 4.426 4.426 0 0 1 1.2.154 3.173 3.173 0 0 1 1.7 1.146q1 1.3 1 3a10.456 10.456 0 0 1-.218 2.066q-.225 1.115-.682 2.334a16.677 16.677 0 0 0 .662-.7 15.192 15.192 0 0 0 .088-.1 16.292 16.292 0 0 1 .651-.7 17.892 17.892 0 0 1 .099-.1 35.197 35.197 0 0 1 2.765-2.639q2.07-1.758 4.085-2.811 3.35-1.75 5.85-1.75 1.9 0 3.25 1a3.318 3.318 0 0 1 .98 1.112q.344.649.368 1.464a4.187 4.187 0 0 1 .002.124q0 2-1.4 4.8t-3.15 5.3q-1.34 1.914-2.299 3.183a47.781 47.781 0 0 1-.551.717 43.195 43.195 0 0 1-.4.559q-.769 1.062-2.3 3.091a35.314 35.314 0 0 0-3.223 5.101 32.599 32.599 0 0 0-.177.349 12.232 12.232 0 0 0-.462.865q-.332.691-.488 1.285a8.125 8.125 0 0 0-.184.885 5.955 5.955 0 0 0-.066.865 3.651 3.651 0 0 0 .097.882q.354 1.418 2.003 1.418 2.3 0 5.7-2.7 2.476-1.926 5.078-4.902a53.976 53.976 0 0 0 .472-.548q2.85-3.35 5.45-7.65.238-.396.476-.51a.466.466 0 0 1 .124-.04q.3-.05.4-.05a.559.559 0 0 1 .231.044q.397.179.185 1.087a4.287 4.287 0 0 1-.016.069 92.09 92.09 0 0 1-4.491 6.506 81.594 81.594 0 0 1-1.559 1.994q-2.873 3.557-5.788 5.783a24.096 24.096 0 0 1-.562.417 12.479 12.479 0 0 1-2.402 1.313 9.011 9.011 0 0 1-3.398.687zm175.3-24.8 13.1-21.5a.692.692 0 0 1 .183-.239q.47-.431 2.017-1.011a14.303 14.303 0 0 1 1.401-.45q1.15-.3 2.099-.3 1.6 0 1.6 1 0 .722-.652 1.77a8.658 8.658 0 0 1-.148.23l-12.2 19.4q-.5.8-1.9 2.85a92.66 92.66 0 0 0-1.368 2.065q-.806 1.251-1.682 2.685-1.65 2.7-3.25 5.5-.086.257-.684 1.392a90.887 90.887 0 0 1-.216.408 46.908 46.908 0 0 0-.95 1.887 58.444 58.444 0 0 0-.65 1.413 17.009 17.009 0 0 0-.517 1.327q-.483 1.43-.483 2.473 0 1.753 1.306 1.97a2.411 2.411 0 0 0 .394.03 3.997 3.997 0 0 0 1.345-.253q1.104-.395 2.378-1.405a14.528 14.528 0 0 0 .177-.142 28.374 28.374 0 0 0 2.137-1.877 35.933 35.933 0 0 0 1.663-1.723q1.9-2.1 3.55-4.3 1.65-2.2 2.7-3.85.858-1.348 1.215-1.928a23.542 23.542 0 0 0 .135-.222 1.236 1.236 0 0 1 .197-.211.769.769 0 0 1 .503-.189 1.306 1.306 0 0 1 .278.027q.569.124.431.828a1.848 1.848 0 0 1-.009.045q-.793 1.388-2.519 4.15a347.813 347.813 0 0 1-.031.05 45.952 45.952 0 0 1-2.461 3.539 56.679 56.679 0 0 1-1.739 2.161 27.779 27.779 0 0 1-3.283 3.305 23.461 23.461 0 0 1-1.967 1.495 12.364 12.364 0 0 1-2.098 1.16 14.601 14.601 0 0 1-.852.34 10.351 10.351 0 0 1-1.711.468 8.155 8.155 0 0 1-1.439.132q-1.9 0-3.3-1.2-1.085-.93-1.329-2.821a9.226 9.226 0 0 1-.071-1.179 12.554 12.554 0 0 1 .151-1.902 15.247 15.247 0 0 1 .199-1.048 42.874 42.874 0 0 1 .409-1.665 33.931 33.931 0 0 1 .341-1.185q-1.6 2.1-3.9 4.6a30.024 30.024 0 0 1-3.936 3.6 27.185 27.185 0 0 1-.964.7 10.837 10.837 0 0 1-2.336 1.246 8.335 8.335 0 0 1-2.964.554q-2.597 0-4.038-2.036a6.01 6.01 0 0 1-.112-.164 8.354 8.354 0 0 1-1.131-2.676q-.259-1.081-.308-2.336a15.223 15.223 0 0 1-.011-.588 19.741 19.741 0 0 1 .739-5.248 25.255 25.255 0 0 1 1.061-3.052 13.77 13.77 0 0 1 .627-1.223q.713-1.248 1.879-2.845a52.11 52.11 0 0 1 .394-.532 35.699 35.699 0 0 1 2.976-3.461A44.31 44.31 0 0 1 303.401 50q3-2.7 6.5-4.55a16.398 16.398 0 0 1 3.719-1.444 13.599 13.599 0 0 1 3.281-.406q1.496 0 2.479.447a3.053 3.053 0 0 1 1.171.903 4.968 4.968 0 0 1 1.019 2.613 6.402 6.402 0 0 1 .031.637 8.808 8.808 0 0 1-.142 1.554 9.951 9.951 0 0 1-.058.296q-.2.95-.5 1.95zm-212.2 0 5.6-8.5a1.725 1.725 0 0 1 .456-.219q.762-.254 2.305-.278a21.309 21.309 0 0 1 .339-.003 14.676 14.676 0 0 1 3.23.349 13.636 13.636 0 0 1 .22.051 4.698 4.698 0 0 1 .392.112q1.166.393.558 1.088-.77.963-2.606 2.898a141.629 141.629 0 0 1-.144.152 64.049 64.049 0 0 0-1.894 2.087q-.972 1.116-2.009 2.394a107.074 107.074 0 0 0-.297.369q-2.25 2.8-4.25 5.9-1 1.7-2.95 5-1.95 3.3-3.05 6.3a16.732 16.732 0 0 0-.31 1.032q-.259.987-.287 1.703a4.324 4.324 0 0 0-.003.165 3.568 3.568 0 0 0 .079.789q.299 1.311 1.721 1.311a3.696 3.696 0 0 0 .691-.073q.702-.134 1.637-.518a15.691 15.691 0 0 0 .372-.159 13.985 13.985 0 0 0 2.468-1.416 16.515 16.515 0 0 0 .832-.634 27.221 27.221 0 0 0 5.43-5.995 30.488 30.488 0 0 0 .17-.255 665.832 665.832 0 0 1 2.004-3.031q.92-1.383 1.752-2.615a382.896 382.896 0 0 1 .544-.804 1.348 1.348 0 0 1 .105-.094q.057-.046.124-.092a2.288 2.288 0 0 1 .021-.014q.118-.078.389-.095a2.596 2.596 0 0 1 .161-.005.717.717 0 0 1 .277.051q.17.071.285.238a.874.874 0 0 1 .038.061.496.496 0 0 1 .067.25q0 .256-.246.574a2.122 2.122 0 0 1-.021.026 206.452 206.452 0 0 1-3.803 5.515 175.927 175.927 0 0 1-1.697 2.335q-2.7 3.65-5.5 5.85a10.412 10.412 0 0 1-3.116 1.717 9.296 9.296 0 0 1-2.984.483 7.061 7.061 0 0 1-1.802-.218 5.088 5.088 0 0 1-2.348-1.332 5.125 5.125 0 0 1-1.367-2.53 7.632 7.632 0 0 1-.183-1.72q0-1.2.25-2.5t.65-2.4q-1.375 1.805-3.304 3.905a82.196 82.196 0 0 1-.646.695q-2.35 2.5-4.95 4.3a11.175 11.175 0 0 1-2.153 1.182 8.052 8.052 0 0 1-3.047.618 5.792 5.792 0 0 1-1.917-.302 4.783 4.783 0 0 1-2.383-1.848q-1.5-2.15-1.5-5.55a16.859 16.859 0 0 1 .33-3.204q.482-2.487 1.67-5.396 1.066-2.616 3.163-5.372a32.94 32.94 0 0 1 .137-.178 34.688 34.688 0 0 1 5.089-5.29 36.292 36.292 0 0 1 .011-.01q2.9-2.45 6.25-4a16.254 16.254 0 0 1 6.195-1.536 15.724 15.724 0 0 1 .655-.014q1.501 0 2.476.433a2.916 2.916 0 0 1 1.224.967 5.318 5.318 0 0 1 .919 2.308 7.083 7.083 0 0 1 .081 1.092 13.113 13.113 0 0 1-.366 3.03 15.33 15.33 0 0 1-.234.87zm78.8 0 5.6-8.5a1.725 1.725 0 0 1 .456-.219q.762-.254 2.305-.278a21.309 21.309 0 0 1 .339-.003 14.676 14.676 0 0 1 3.23.349 13.636 13.636 0 0 1 .22.051 4.698 4.698 0 0 1 .392.112q1.166.393.558 1.088-.77.963-2.606 2.898a141.629 141.629 0 0 1-.144.152 64.049 64.049 0 0 0-1.894 2.087q-.972 1.116-2.009 2.394a107.074 107.074 0 0 0-.297.369q-2.25 2.8-4.25 5.9-1 1.7-2.95 5-1.95 3.3-3.05 6.3a16.732 16.732 0 0 0-.31 1.032q-.259.987-.287 1.703a4.324 4.324 0 0 0-.003.165 3.568 3.568 0 0 0 .079.789q.299 1.311 1.721 1.311a3.696 3.696 0 0 0 .691-.073q.702-.134 1.637-.518a15.691 15.691 0 0 0 .372-.159 13.985 13.985 0 0 0 2.468-1.416 16.515 16.515 0 0 0 .832-.634 27.221 27.221 0 0 0 5.43-5.995 30.488 30.488 0 0 0 .17-.255 665.832 665.832 0 0 1 2.004-3.031q.92-1.383 1.752-2.615a382.896 382.896 0 0 1 .544-.804 1.348 1.348 0 0 1 .105-.094q.057-.046.124-.092a2.288 2.288 0 0 1 .021-.014q.118-.078.389-.095a2.596 2.596 0 0 1 .161-.005.717.717 0 0 1 .277.051q.17.071.285.238a.874.874 0 0 1 .038.061.496.496 0 0 1 .067.25q0 .256-.246.574a2.122 2.122 0 0 1-.021.026 206.452 206.452 0 0 1-3.803 5.515 175.927 175.927 0 0 1-1.697 2.335q-2.7 3.65-5.5 5.85a10.412 10.412 0 0 1-3.116 1.717 9.296 9.296 0 0 1-2.984.483 7.061 7.061 0 0 1-1.802-.218 5.088 5.088 0 0 1-2.348-1.332 5.125 5.125 0 0 1-1.367-2.53 7.632 7.632 0 0 1-.183-1.72q0-1.2.25-2.5t.65-2.4q-1.375 1.805-3.304 3.905a82.196 82.196 0 0 1-.646.695q-2.35 2.5-4.95 4.3a11.175 11.175 0 0 1-2.153 1.182 8.052 8.052 0 0 1-3.047.618 5.792 5.792 0 0 1-1.917-.302 4.783 4.783 0 0 1-2.383-1.848q-1.5-2.15-1.5-5.55a16.859 16.859 0 0 1 .33-3.204q.482-2.487 1.67-5.396 1.066-2.616 3.163-5.372a32.94 32.94 0 0 1 .137-.178 34.688 34.688 0 0 1 5.089-5.29 36.292 36.292 0 0 1 .011-.01q2.9-2.45 6.25-4a16.254 16.254 0 0 1 6.195-1.536 15.724 15.724 0 0 1 .655-.014q1.501 0 2.476.433a2.916 2.916 0 0 1 1.224.967 5.318 5.318 0 0 1 .919 2.308 7.083 7.083 0 0 1 .081 1.092 13.113 13.113 0 0 1-.366 3.03 15.33 15.33 0 0 1-.234.87zm171 0 5.6-8.5a1.725 1.725 0 0 1 .456-.219q.762-.254 2.305-.278a21.309 21.309 0 0 1 .339-.003 14.676 14.676 0 0 1 3.23.349 13.636 13.636 0 0 1 .22.051 4.698 4.698 0 0 1 .392.112q1.166.393.558 1.088-.77.963-2.606 2.898a141.629 141.629 0 0 1-.144.152 64.049 64.049 0 0 0-1.894 2.087q-.972 1.116-2.009 2.394a107.074 107.074 0 0 0-.297.369q-2.25 2.8-4.25 5.9-1 1.7-2.95 5-1.95 3.3-3.05 6.3a16.732 16.732 0 0 0-.31 1.032q-.259.987-.287 1.703a4.324 4.324 0 0 0-.003.165 3.568 3.568 0 0 0 .079.789q.299 1.311 1.721 1.311a3.696 3.696 0 0 0 .691-.073q.702-.134 1.637-.518a15.691 15.691 0 0 0 .372-.159 13.985 13.985 0 0 0 2.468-1.416 16.515 16.515 0 0 0 .832-.634 27.221 27.221 0 0 0 5.43-5.995 30.488 30.488 0 0 0 .17-.255 665.832 665.832 0 0 1 2.004-3.031q.92-1.383 1.752-2.615a382.896 382.896 0 0 1 .544-.804 1.348 1.348 0 0 1 .105-.094q.057-.046.124-.092a2.288 2.288 0 0 1 .021-.014q.118-.078.389-.095a2.596 2.596 0 0 1 .161-.005.717.717 0 0 1 .277.051q.17.071.285.238a.874.874 0 0 1 .038.061.496.496 0 0 1 .067.25q0 .256-.246.574a2.122 2.122 0 0 1-.021.026 206.452 206.452 0 0 1-3.803 5.515 175.927 175.927 0 0 1-1.697 2.335q-2.7 3.65-5.5 5.85a10.412 10.412 0 0 1-3.116 1.717 9.296 9.296 0 0 1-2.984.483 7.061 7.061 0 0 1-1.802-.218 5.088 5.088 0 0 1-2.348-1.332 5.125 5.125 0 0 1-1.367-2.53 7.632 7.632 0 0 1-.183-1.72q0-1.2.25-2.5t.65-2.4q-1.375 1.805-3.304 3.905a82.196 82.196 0 0 1-.646.695q-2.35 2.5-4.95 4.3a11.175 11.175 0 0 1-2.153 1.182 8.052 8.052 0 0 1-3.047.618 5.792 5.792 0 0 1-1.917-.302 4.783 4.783 0 0 1-2.383-1.848q-1.5-2.15-1.5-5.55a16.859 16.859 0 0 1 .33-3.204q.482-2.487 1.67-5.396 1.066-2.616 3.163-5.372a32.94 32.94 0 0 1 .137-.178 34.688 34.688 0 0 1 5.089-5.29 36.292 36.292 0 0 1 .011-.01q2.9-2.45 6.25-4a16.254 16.254 0 0 1 6.195-1.536 15.724 15.724 0 0 1 .655-.014q1.501 0 2.476.433a2.916 2.916 0 0 1 1.224.967 5.318 5.318 0 0 1 .919 2.308 7.083 7.083 0 0 1 .081 1.092 13.113 13.113 0 0 1-.366 3.03 15.33 15.33 0 0 1-.234.87zm160.5 0 5.6-8.5a1.725 1.725 0 0 1 .456-.219q.762-.254 2.305-.278a21.309 21.309 0 0 1 .339-.003 14.676 14.676 0 0 1 3.23.349 13.636 13.636 0 0 1 .22.051 4.698 4.698 0 0 1 .392.112q1.166.393.558 1.088-.77.963-2.606 2.898a141.629 141.629 0 0 1-.144.152 64.049 64.049 0 0 0-1.894 2.087q-.972 1.116-2.009 2.394a107.074 107.074 0 0 0-.297.369q-2.25 2.8-4.25 5.9-1 1.7-2.95 5-1.95 3.3-3.05 6.3a16.732 16.732 0 0 0-.31 1.032q-.259.987-.287 1.703a4.324 4.324 0 0 0-.003.165 3.568 3.568 0 0 0 .079.789q.299 1.311 1.721 1.311a3.696 3.696 0 0 0 .691-.073q.702-.134 1.637-.518a15.691 15.691 0 0 0 .372-.159 13.985 13.985 0 0 0 2.468-1.416 16.515 16.515 0 0 0 .832-.634 27.221 27.221 0 0 0 5.43-5.995 30.488 30.488 0 0 0 .17-.255 665.832 665.832 0 0 1 2.004-3.031q.92-1.383 1.752-2.615a382.896 382.896 0 0 1 .544-.804 1.348 1.348 0 0 1 .105-.094q.057-.046.124-.092a2.288 2.288 0 0 1 .021-.014q.118-.078.389-.095a2.596 2.596 0 0 1 .161-.005.717.717 0 0 1 .277.051q.17.071.285.238a.874.874 0 0 1 .038.061.496.496 0 0 1 .067.25q0 .256-.246.574a2.122 2.122 0 0 1-.021.026 206.452 206.452 0 0 1-3.803 5.515 175.927 175.927 0 0 1-1.697 2.335q-2.7 3.65-5.5 5.85a10.412 10.412 0 0 1-3.116 1.717 9.296 9.296 0 0 1-2.984.483 7.061 7.061 0 0 1-1.802-.218 5.088 5.088 0 0 1-2.348-1.332 5.125 5.125 0 0 1-1.367-2.53 7.632 7.632 0 0 1-.183-1.72q0-1.2.25-2.5t.65-2.4q-1.375 1.805-3.304 3.905a82.196 82.196 0 0 1-.646.695q-2.35 2.5-4.95 4.3a11.175 11.175 0 0 1-2.153 1.182 8.052 8.052 0 0 1-3.047.618 5.792 5.792 0 0 1-1.917-.302 4.783 4.783 0 0 1-2.383-1.848q-1.5-2.15-1.5-5.55a16.859 16.859 0 0 1 .33-3.204q.482-2.487 1.67-5.396 1.066-2.616 3.163-5.372a32.94 32.94 0 0 1 .137-.178 34.688 34.688 0 0 1 5.089-5.29 36.292 36.292 0 0 1 .011-.01q2.9-2.45 6.25-4a16.254 16.254 0 0 1 6.195-1.536 15.724 15.724 0 0 1 .655-.014q1.501 0 2.476.433a2.916 2.916 0 0 1 1.224.967 5.318 5.318 0 0 1 .919 2.308 7.083 7.083 0 0 1 .081 1.092 13.113 13.113 0 0 1-.366 3.03 15.33 15.33 0 0 1-.234.87zm-494.8-27.2-.2.2q.3 0-.1.4a5.691 5.691 0 0 0-1.093 3.191 7.067 7.067 0 0 0-.007.309q0 1.02.185 1.762a3.875 3.875 0 0 0 .215.638q.4-.3.9-.4.456-.091.829-.099a3.308 3.308 0 0 1 .071-.001 4.567 4.567 0 0 1 1.761.327q1.164.482 1.939 1.673.601.868.912 1.603a4.747 4.747 0 0 1 .238.697 15.516 15.516 0 0 1 .254 1.211 12.772 12.772 0 0 1 .096.689 4.091 4.091 0 0 0 .294.927q.186.416.47.857a9.097 9.097 0 0 0 .436.616q1 1.3 2.4.8a.442.442 0 0 1-.004.053q-.016.128-.096.447a.753.753 0 0 1-.135.269q-.156.206-.471.413a3.774 3.774 0 0 1-.194.118 2.932 2.932 0 0 1-.883.323q-.368.075-.79.077a4.967 4.967 0 0 1-.027 0 7.203 7.203 0 0 1-1.749-.23q-.792-.198-1.649-.568a14.589 14.589 0 0 1-.852-.402q-2.35-1.2-3.55-2.6a8.92 8.92 0 0 1-.884-1.425q-.433-.884-.562-1.749a4.934 4.934 0 0 1-.054-.726 4.691 4.691 0 0 1 .107-1.026A3.456 3.456 0 0 1 22.501 32a5.912 5.912 0 0 1-.689-2.505 7.069 7.069 0 0 1-.011-.395 5.693 5.693 0 0 1 .019-.48 4.731 4.731 0 0 1 .031-.27 6.733 6.733 0 0 1 .072-.41 8.476 8.476 0 0 1 .078-.34 36.475 36.475 0 0 0-2.146 3.582 26.914 26.914 0 0 0-1.554 3.568 23.795 23.795 0 0 0-.82 2.913q-.38 1.806-.38 3.437 0 4.09 1.99 6.687a8.618 8.618 0 0 0 .21.263 7.347 7.347 0 0 0 2.413 1.945 7.13 7.13 0 0 0 3.187.705 9.281 9.281 0 0 0 2.595-.393q1.086-.316 2.241-.886a18.428 18.428 0 0 0 1.064-.571 18.402 18.402 0 0 0 2.607-1.853q1.226-1.029 2.479-2.372a39.295 39.295 0 0 0 1.514-1.725 31.359 31.359 0 0 0 3.38-5.161 42.865 42.865 0 0 0 2.42-5.539q2.3-6.4 2.3-12.7a25.884 25.884 0 0 0-.517-5.254 22.385 22.385 0 0 0-.683-2.546q-5.8 1.7-10.95 5.4a78.28 78.28 0 0 0-6.264 4.985 66.005 66.005 0 0 0-2.886 2.715zm412.2 50.3q2.1 0 4.5-1.3 2.1-1.2 3.85-3 1.565-1.61 2.611-3.06a18.644 18.644 0 0 0 .239-.34q-1.1-.5-1.9-1.85a5.465 5.465 0 0 1-.624-1.618q-.176-.795-.176-1.732 0-2.1.85-4.55a12.825 12.825 0 0 1 1.217-2.582 10.748 10.748 0 0 1 1.183-1.568 6.046 6.046 0 0 1 1.133-.985 4.137 4.137 0 0 1 2.317-.715q1.13 0 1.86.532a2.458 2.458 0 0 1 .09.068q.75.6.75 1.4a3.546 3.546 0 0 0 .114-.341q.13-.456.236-1.159a13.297 13.297 0 0 0 .121-1.188 17.194 17.194 0 0 0 .029-1.012 10.702 10.702 0 0 0-.075-1.313q-.199-1.601-.925-2.437a3.286 3.286 0 0 0-2.236-1.127 4.621 4.621 0 0 0-.464-.023 5.397 5.397 0 0 0-1.067.11 6.364 6.364 0 0 0-.383.09 16.027 16.027 0 0 0-1.153.356 18.513 18.513 0 0 0-.397.144 16.452 16.452 0 0 0-3.149 1.728q-2.175 1.502-4.401 3.872-3.85 4.1-5.85 9.1a31.558 31.558 0 0 0-.681 1.884q-.319.973-.62 2.07a54.335 54.335 0 0 0-.199.746q-.7 2.7-.7 5a9.309 9.309 0 0 0 .081 1.275q.21 1.512.962 2.317a2.725 2.725 0 0 0 .107.108q1.15 1.1 2.75 1.1zm-163.3-26.3h13.1q4.7-5.8 9.6-11.5 4.9-5.7 10.3-10.9-1.3-.7-2.65-1.45-1.35-.75-2.75-1.45a58.785 58.785 0 0 0-9.418 6.546 65.472 65.472 0 0 0-.932.804q-4.95 4.35-9.3 9.1-4.35 4.75-7.95 8.85zm26.9 25.7a6.093 6.093 0 0 0 2.211-.439q1.284-.499 2.639-1.561 2.51-1.969 5.02-5.003a45.845 45.845 0 0 0 .08-.097q2.55-3.1 4.65-6.5a73.06 73.06 0 0 0 1.858-3.176q.896-1.629 1.592-3.124 1.35-2.9 1.65-4.4a11.884 11.884 0 0 0 .105-.605 9.937 9.937 0 0 0 .045-.345 8.272 8.272 0 0 0 .043-.543 6.866 6.866 0 0 0 .007-.307q0-3.323-2.292-3.398a3.275 3.275 0 0 0-.108-.002 4.546 4.546 0 0 0-1.312.209q-.585.177-1.222.502a11.671 11.671 0 0 0-1.166.689 23.339 23.339 0 0 0-2.245 1.713A31.45 31.45 0 0 0 309.551 50q-2.15 2.2-4 4.75a33.171 33.171 0 0 0-1.754 2.667 25.421 25.421 0 0 0-1.196 2.283l-1.45 2.9a55.203 55.203 0 0 0-1.399 3.031 65.988 65.988 0 0 0-.801 1.969q-1.05 2.7-1.05 4.7a3.328 3.328 0 0 0 .1.857q.359 1.343 2 1.343zm-212.2-.4a5.781 5.781 0 0 0 1.963-.363q1.109-.4 2.287-1.237 2.18-1.55 4.406-3.992a38.955 38.955 0 0 0 .144-.158q2.3-2.55 4.2-5.45 1.6-2.4 3.15-5.1a45.233 45.233 0 0 0 1.895-3.665 38.686 38.686 0 0 0 .705-1.635 16.652 16.652 0 0 0 .67-1.992q.273-1.039.35-1.983a8.943 8.943 0 0 0 .03-.725 6.557 6.557 0 0 0-.091-1.148q-.367-2.052-2.209-2.052a4.546 4.546 0 0 0-1.312.209q-.585.177-1.222.502a11.671 11.671 0 0 0-1.166.689 23.339 23.339 0 0 0-2.245 1.713 31.45 31.45 0 0 0-2.005 1.887q-2.15 2.2-4 4.75a33.171 33.171 0 0 0-1.754 2.667 25.421 25.421 0 0 0-1.196 2.283l-1.45 2.9a55.203 55.203 0 0 0-1.399 3.031 65.988 65.988 0 0 0-.801 1.969q-1.05 2.7-1.05 4.7a3.328 3.328 0 0 0 .1.857q.359 1.343 2 1.343zm78.8 0a5.781 5.781 0 0 0 1.963-.363q1.109-.4 2.287-1.237 2.18-1.55 4.406-3.992a38.955 38.955 0 0 0 .144-.158q2.3-2.55 4.2-5.45 1.6-2.4 3.15-5.1a45.233 45.233 0 0 0 1.895-3.665 38.686 38.686 0 0 0 .705-1.635 16.652 16.652 0 0 0 .67-1.992q.273-1.039.35-1.983a8.943 8.943 0 0 0 .03-.725 6.557 6.557 0 0 0-.091-1.148q-.367-2.052-2.209-2.052a4.546 4.546 0 0 0-1.312.209q-.585.177-1.222.502a11.671 11.671 0 0 0-1.166.689 23.339 23.339 0 0 0-2.245 1.713 31.45 31.45 0 0 0-2.005 1.887q-2.15 2.2-4 4.75a33.171 33.171 0 0 0-1.754 2.667 25.421 25.421 0 0 0-1.196 2.283l-1.45 2.9a55.203 55.203 0 0 0-1.399 3.031 65.988 65.988 0 0 0-.801 1.969q-1.05 2.7-1.05 4.7a3.328 3.328 0 0 0 .1.857q.359 1.343 2 1.343zm171 0a5.781 5.781 0 0 0 1.963-.363q1.109-.4 2.287-1.237 2.18-1.55 4.406-3.992a38.955 38.955 0 0 0 .144-.158q2.3-2.55 4.2-5.45 1.6-2.4 3.15-5.1a45.233 45.233 0 0 0 1.895-3.665 38.686 38.686 0 0 0 .705-1.635 16.652 16.652 0 0 0 .67-1.992q.273-1.039.35-1.983a8.943 8.943 0 0 0 .03-.725 6.557 6.557 0 0 0-.091-1.148q-.367-2.052-2.209-2.052a4.546 4.546 0 0 0-1.312.209q-.585.177-1.222.502a11.671 11.671 0 0 0-1.166.689 23.339 23.339 0 0 0-2.245 1.713 31.45 31.45 0 0 0-2.005 1.887q-2.15 2.2-4 4.75a33.171 33.171 0 0 0-1.754 2.667 25.421 25.421 0 0 0-1.196 2.283l-1.45 2.9a55.203 55.203 0 0 0-1.399 3.031 65.988 65.988 0 0 0-.801 1.969q-1.05 2.7-1.05 4.7a3.328 3.328 0 0 0 .1.857q.359 1.343 2 1.343zm160.5 0a5.781 5.781 0 0 0 1.963-.363q1.109-.4 2.287-1.237 2.18-1.55 4.406-3.992a38.955 38.955 0 0 0 .144-.158q2.3-2.55 4.2-5.45 1.6-2.4 3.15-5.1a45.233 45.233 0 0 0 1.895-3.665 38.686 38.686 0 0 0 .705-1.635 16.652 16.652 0 0 0 .67-1.992q.273-1.039.35-1.983a8.943 8.943 0 0 0 .03-.725 6.557 6.557 0 0 0-.091-1.148q-.367-2.052-2.209-2.052a4.546 4.546 0 0 0-1.312.209q-.585.177-1.222.502a11.671 11.671 0 0 0-1.166.689 23.339 23.339 0 0 0-2.245 1.713 31.45 31.45 0 0 0-2.005 1.887q-2.15 2.2-4 4.75a33.171 33.171 0 0 0-1.754 2.667 25.421 25.421 0 0 0-1.196 2.283l-1.45 2.9a55.203 55.203 0 0 0-1.399 3.031 65.988 65.988 0 0 0-.801 1.969q-1.05 2.7-1.05 4.7a3.328 3.328 0 0 0 .1.857q.359 1.343 2 1.343zm-185.6-53.5.6.7q-.368.46-1.33 1.43a63.762 63.762 0 0 1-.17.17q-1.1 1.1-2.6 2.8a41.084 41.084 0 0 0 1.146.53q1.569.695 2.396.859a3.595 3.595 0 0 0 .058.011q.5.1 1.05.15a12.112 12.112 0 0 0 .765.046 10.431 10.431 0 0 0 .285.004q1.727 0 2.905-.444a4.058 4.058 0 0 0 1.345-.806 5.256 5.256 0 0 0 .726-.816q.395-.558.54-1.145a2.862 2.862 0 0 0 .084-.689 3.803 3.803 0 0 0-.794-2.317 5.296 5.296 0 0 0-.506-.583 4.143 4.143 0 0 0-1.72-1.014q-.653-.206-1.442-.263a8.748 8.748 0 0 0-.638-.023q-3.2 0-6.4.9t-6.3 2.4q1.3.7 2.55 1.35 1.25.65 2.45 1.15 2.5-2.3 5-4.4z"
      vector-effect="non-scaling-stroke" stroke-linecap="round" fill-rule="evenodd" stroke-width=".945"
      style="stroke-width:.25mm;"/>
  </symbol>
</svg>
