<svg xmlns="http://www.w3.org/2000/svg">
  <symbol id="logo" viewBox="0 0 529.3 90.701">
    <path
        d="M23.2 90.7q-5.7 0-9.75-2.4t-4.05-7a7.858 7.858 0 0 1 .472-2.754 7.185 7.185 0 0 1 .978-1.796q1.45-1.95 4.55-2.95a25.878 25.878 0 0 0-.487 2.188 22.515 22.515 0 0 0-.113.712 22.034 22.034 0 0 0-.137 1.168q-.051.58-.061 1.097a12.631 12.631 0 0 0-.002.235 12.423 12.423 0 0 0 .284 2.734q.507 2.247 1.916 3.816a7.006 7.006 0 0 0 3.353 2.046q1.138.328 2.504.39a14.278 14.278 0 0 0 .643.014 13.668 13.668 0 0 0 4.668-.781A12.566 12.566 0 0 0 30.45 86.2a19.244 19.244 0 0 0 5.122-4.799 22.086 22.086 0 0 0 .328-.451q2.3-3.25 3.9-7.05a73.708 73.708 0 0 0 2.417-6.573 66.884 66.884 0 0 0 .283-.927 115.056 115.056 0 0 0 .755-2.648q.57-2.102.945-3.852.716-3.041 1.631-7.723a407.849 407.849 0 0 0 .219-1.127Q47.1 45.6 48.4 39.4q-4 7.6-9.25 12.55Q33.9 56.9 26.7 56.9a16.321 16.321 0 0 1-3.05-.265q-3.553-.677-5.35-3.085-2.469-3.308-2.5-8.421a21.488 21.488 0 0 1 0-.129 33.563 33.563 0 0 1 .296-4.341 44.751 44.751 0 0 1 .754-4.159q1.05-4.6 2.35-9.25t2.35-8.95a41.046 41.046 0 0 0 .717-3.582q.27-1.785.321-3.382a22.975 22.975 0 0 0 .012-.736q0-3.2-1.25-5.5a4.204 4.204 0 0 0-3.014-2.165A7.178 7.178 0 0 0 16.9 2.8a7.454 7.454 0 0 0-2.814.52A6.951 6.951 0 0 0 12.1 4.55a13.499 13.499 0 0 0-2.443 2.855A16.666 16.666 0 0 0 8.75 9q-1.35 2.7-2 5.65-.65 2.95-.65 5.45a17.895 17.895 0 0 0 .164 2.456 16.373 16.373 0 0 0 .036.244q.167 1.083.472 1.888A6.044 6.044 0 0 0 6.9 25q-3.8 0-5.35-2.05a7.66 7.66 0 0 1-1.529-4.204A9.665 9.665 0 0 1 0 18.1a13.906 13.906 0 0 1 .742-4.409A17.394 17.394 0 0 1 1.5 11.8a20.531 20.531 0 0 1 3.904-5.6 23.183 23.183 0 0 1 .246-.25q2.65-2.65 6.1-4.3Q15.2 0 19.1 0a15.227 15.227 0 0 1 2.435.183q1.343.218 2.435.695a7.731 7.731 0 0 1 1.23.672 9.668 9.668 0 0 1 2.114 1.905A8.321 8.321 0 0 1 28.5 5.4q1 2.3 1 4.7 0 1.903-.485 4.43a44.539 44.539 0 0 1-.565 2.52Q27.4 21.2 26.1 25.8q-1.3 4.5-2.3 9a43.141 43.141 0 0 0-.809 4.905A34.861 34.861 0 0 0 22.8 43.3a18.407 18.407 0 0 0 .195 2.761q.23 1.512.73 2.754a9.26 9.26 0 0 0 .725 1.435 5.411 5.411 0 0 0 3.829 2.523 8.665 8.665 0 0 0 1.521.127 11.006 11.006 0 0 0 5.911-1.741 13.708 13.708 0 0 0 .689-.459 22.754 22.754 0 0 0 3.361-2.949A30.299 30.299 0 0 0 42.2 44.8a56 56 0 0 0 4.325-6.977A62.67 62.67 0 0 0 47.1 36.7a110.728 110.728 0 0 0 3.467-7.623A100.988 100.988 0 0 0 51 28a249.988 249.988 0 0 1 2.66-10.134 230.046 230.046 0 0 1 .09-.316q1.45-5.05 2.95-9a43.5 43.5 0 0 1 1.043-2.52Q58.75 3.81 59.8 2.3 61.4 0 63 0q1 0 2.6.85t3 2.35Q66.5 6.5 65 9.45a64.422 64.422 0 0 0-1.816 3.903A77.724 77.724 0 0 0 62.15 15.9a85.27 85.27 0 0 0-1.191 3.302q-.771 2.276-1.559 4.948a227.915 227.915 0 0 0-1.099 3.865q-.479 1.736-.991 3.683a462.182 462.182 0 0 0-1.06 4.102 1188.939 1188.939 0 0 0-1.404 5.597Q53.6 46.413 52.1 52.6a503.176 503.176 0 0 1-2.428 9.155A552.412 552.412 0 0 1 49.3 63.1q-1.5 5.4-3.65 10.3t-5.15 8.8q-3 3.9-7.25 6.2a18.695 18.695 0 0 1-5.755 1.949 25.188 25.188 0 0 1-4.295.351zm276-34.9 1.2.9q-1.9 5.1-5.2 9.15a33.02 33.02 0 0 1-3.578 3.774 25.676 25.676 0 0 1-3.472 2.626 17.904 17.904 0 0 1-2.763 1.432q-2.262.918-4.387.918a8.692 8.692 0 0 1-1.903-.194q-1.171-.263-2.015-.883a4.574 4.574 0 0 1-1.232-1.373 10.455 10.455 0 0 1-1.201-2.922 9.21 9.21 0 0 1-.249-2.128 15.445 15.445 0 0 1 .049-1.17q.1-1.311.406-3.076a52.643 52.643 0 0 1 .045-.254q.5-2.8 1.4-6.2a77.331 77.331 0 0 1-4.589 6.791 66.067 66.067 0 0 1-2.211 2.759q-3.032 3.58-5.958 5.847a26.353 26.353 0 0 1-1.092.803 16.321 16.321 0 0 1-2.331 1.367q-1.365.646-2.672.888A8.474 8.474 0 0 1 255.9 75a7.361 7.361 0 0 1-2.361-.402 9.263 9.263 0 0 1-1.089-.448 6.565 6.565 0 0 1-2.267-1.84 8.468 8.468 0 0 1-.633-.91q-1.024-1.692-1.136-4.177a13.825 13.825 0 0 1-.014-.623 16.265 16.265 0 0 1 .329-3.155q.297-1.502.863-3.139A30.352 30.352 0 0 1 250 59.2a41.09 41.09 0 0 1 3-6.09 48.097 48.097 0 0 1 1.3-2.06q2.7-4.05 6.2-7.5a35.024 35.024 0 0 1 4.262-3.603 28.885 28.885 0 0 1 3.038-1.897 17.989 17.989 0 0 1 3.658-1.505A14.115 14.115 0 0 1 275.3 36q2.1 0 3.25.75a2.452 2.452 0 0 1 1.108 1.769 3.84 3.84 0 0 1 .042.581 5.414 5.414 0 0 1-.009.33q-.01.151-.028.284a2.995 2.995 0 0 1-.013.086q-.05.3-.15.7a2.757 2.757 0 0 0-1.319-1.098 3.453 3.453 0 0 0-.131-.052q-.774-.285-1.847-.338A10.238 10.238 0 0 0 275.7 39q-3.2 0-6.25 1.95a22.456 22.456 0 0 0-4.126 3.423 26.99 26.99 0 0 0-1.474 1.677q-2.55 3.15-4.45 6.75a45.934 45.934 0 0 0-1.869 3.971 36.774 36.774 0 0 0-1.081 2.979 29.379 29.379 0 0 0-.598 2.179q-.452 1.962-.452 3.471a7.868 7.868 0 0 0 .118 1.406q.226 1.241.882 2.094.996 1.294 2.586 1.3a3.928 3.928 0 0 0 .014 0 5.577 5.577 0 0 0 1.896-.366q2.067-.749 4.654-3.034a32.998 32.998 0 0 0 3.031-3.083q2.382-2.739 4.819-6.517a69.921 69.921 0 0 0 4.136-7.409A92.7 92.7 0 0 0 280.6 42.7q2.2-5.8 4.55-11.8a362.956 362.956 0 0 1 4.151-10.155 329.715 329.715 0 0 1 .599-1.395q2.4-5.55 4.65-9.9 1.619-3.131 3.135-5.329a26.687 26.687 0 0 1 1.165-1.571 13.346 13.346 0 0 1 .936-1.055Q301.275 0 302.5 0a1.801 1.801 0 0 1 1.247.498 2.481 2.481 0 0 1 .153.152 2.24 2.24 0 0 1 .578 1.284 3.03 3.03 0 0 1 .022.366q0 1.484-1.419 4.904a51.833 51.833 0 0 1-.231.546q-1.134 2.647-2.741 6.003a267.949 267.949 0 0 1-1.559 3.197Q295.9 22.3 293 28.6q-2.9 6.3-5.55 12.8a117.204 117.204 0 0 0-2.922 7.949 98.956 98.956 0 0 0-1.378 4.601 51.358 51.358 0 0 0-1.128 5.093q-.457 2.752-.514 5.249a30.986 30.986 0 0 0-.008.708 41.959 41.959 0 0 0 .024 1.464q.046 1.325.183 2.225a8.73 8.73 0 0 0 .093.511q.3 1.4 2 1.4 1.475 0 3.294-.887a15.765 15.765 0 0 0 1.606-.913q2.521-1.62 5.042-4.457a37.102 37.102 0 0 0 .558-.643 30.908 30.908 0 0 0 3.153-4.504A39.266 39.266 0 0 0 299.2 55.8zm108.2 0 1.2 1.4a51.292 51.292 0 0 1-3.341 7.052 57.746 57.746 0 0 1-.759 1.298 27.757 27.757 0 0 1-3.268 4.417 23.305 23.305 0 0 1-2.582 2.433 12.325 12.325 0 0 1-3.728 2.102 11.054 11.054 0 0 1-3.622.598q-2.462 0-3.984-1.063a4.843 4.843 0 0 1-1.116-1.087 8.072 8.072 0 0 1-1.541-4.032 10.408 10.408 0 0 1-.059-1.118q0-2.5.75-5t1.5-4.9a18.796 18.796 0 0 0 .486-1.867q.197-.973.247-1.849a10.225 10.225 0 0 0 .017-.584 6.969 6.969 0 0 0-.063-.978q-.176-1.234-.837-1.822a3.278 3.278 0 0 0-.888-.574A2.799 2.799 0 0 0 384.7 50a3.96 3.96 0 0 0-1.834.493q-1.333.695-2.779 2.368a20.611 20.611 0 0 0-.837 1.039q-2.95 3.9-7.65 11a34.013 34.013 0 0 0-2.344 4.086 30.698 30.698 0 0 0-.356.764q-1.1 2.45-2.1 4.45a8.294 8.294 0 0 1-.627-.026q-.302-.023-.645-.066A18.911 18.911 0 0 1 364.8 74a8.963 8.963 0 0 1-1.271-.304 7.198 7.198 0 0 1-.879-.346q-.499-.236-.736-.542a.97.97 0 0 1-.214-.608 2.248 2.248 0 0 1 .042-.382q.119-.661.575-2.012a53.134 53.134 0 0 1 .333-.956q.653-1.822 1.448-4.069a1574.496 1574.496 0 0 0 .752-2.131q1.25-3.55 2.2-7.2.706-2.711.887-4.844A16.611 16.611 0 0 0 368 49.2q0-1.7-.55-2.75t-1.95-1.05a4.74 4.74 0 0 0-1.599.306q-1.36.489-2.984 1.757a20.941 20.941 0 0 0-.717.587 35.968 35.968 0 0 0-2.751 2.635q-1.345 1.422-2.725 3.138A65.678 65.678 0 0 0 353.8 55q-3.3 4.3-6.25 9.45-2.95 5.15-4.75 10.25a6.894 6.894 0 0 1-.731-.042q-.369-.04-.788-.116a15.236 15.236 0 0 1-.681-.142 11.129 11.129 0 0 1-1.142-.325q-.566-.196-1.045-.442a6.848 6.848 0 0 1-.063-.033 4.011 4.011 0 0 1-.364-.215q-.353-.236-.493-.472a.608.608 0 0 1-.093-.313 1.759 1.759 0 0 1 .037-.307q.148-.784.892-2.9a90.544 90.544 0 0 1 .121-.343q1.05-2.95 2.4-7.1 1.35-4.15 2.4-8.45.875-3.582 1.021-6.47a22.38 22.38 0 0 0 .029-1.13 4.136 4.136 0 0 1 .495-.481q.548-.456 1.392-.912a13.096 13.096 0 0 1 .013-.007 5.691 5.691 0 0 1 2.222-.679 5.515 5.515 0 0 1 .478-.021 4.425 4.425 0 0 1 .756.06q.403.07.718.222a1.896 1.896 0 0 1 .576.418 2.346 2.346 0 0 1 .557 1.063q.093.383.093.837 0 1.3-.75 4.45Q350.1 54 349 57.8q2-3.2 4.55-6.55 2.55-3.35 5.35-6.15a35.015 35.015 0 0 1 2.989-2.678 27.143 27.143 0 0 1 2.661-1.872 13.194 13.194 0 0 1 2.291-1.133q1.578-.588 3.109-.615a8.352 8.352 0 0 1 .15-.002 6.605 6.605 0 0 1 1.59.178 3.893 3.893 0 0 1 2.66 2.072 10.169 10.169 0 0 1 .93 2.8 14.056 14.056 0 0 1 .22 2.55 25.376 25.376 0 0 1-.26 3.556 30.266 30.266 0 0 1-.29 1.694q-.55 2.75-1.25 5.1-.7 2.35-1.3 3.75 2.1-3.8 4.65-7.35a29.451 29.451 0 0 1 2.924-3.494 23.38 23.38 0 0 1 2.626-2.306q3-2.25 6.4-2.25a8.406 8.406 0 0 1 1.604.142q1.938.378 2.846 1.758 1.25 1.9 1.25 4.5 0 2.519-.845 5.507a28.45 28.45 0 0 1-.055.193 185.185 185.185 0 0 1-1.791 5.819 170.215 170.215 0 0 1-.059.181 23.545 23.545 0 0 0-.56 1.981q-.219.942-.315 1.779A10.912 10.912 0 0 0 391 68.2a4.458 4.458 0 0 0 .366 1.81 4.321 4.321 0 0 0 .284.54q.576.93 1.975 1.037a4.953 4.953 0 0 0 .375.013 6.324 6.324 0 0 0 3.404-1.021q.946-.592 1.846-1.529 2.45-2.55 4.55-6.2a79.884 79.884 0 0 0 2.391-4.465A66.193 66.193 0 0 0 407.4 55.8zm-209-12.1h-3.5q1.1-2.9 3.85-4.05 2.573-1.076 6.065-1.145a24.452 24.452 0 0 1 .485-.005q1.7 0 3.5.2a80.858 80.858 0 0 1 3.463.463 88.429 88.429 0 0 1 .237.037q5.1-7.7 10.45-14.95 5.35-7.25 10-12.9 4.313-5.24 7.292-8.115a40.967 40.967 0 0 1 .458-.435 19.363 19.363 0 0 1 1.304-1.158q1.34-1.078 2.427-1.448A3.324 3.324 0 0 1 245.5 0a3.41 3.41 0 0 1 .973.151q.697.208 1.477.699a13.143 13.143 0 0 1 1.21.868q.597.479 1.221 1.073a24.055 24.055 0 0 1 .419.409 3.279 3.279 0 0 0-.499.521q-.864 1.088-2.051 3.729-1.55 3.45-3.3 8.65-1.75 5.2-3.45 11.4-1.7 6.2-3.15 12.65t-2.3 12.25q-.684 4.667-.818 8.428a49.95 49.95 0 0 0-.032 1.772 27.446 27.446 0 0 0 .081 2.184q.169 2.112.692 3.517a7.484 7.484 0 0 0 .077.199 4.229 4.229 0 0 0 .569 1.015A2.737 2.737 0 0 0 238.9 70.6a4.71 4.71 0 0 0 1.915-.445q1.503-.668 3.203-2.342A22.142 22.142 0 0 0 244.8 67a28.784 28.784 0 0 0 2.121-2.64q2.061-2.866 4.331-7.128A105.733 105.733 0 0 0 252 55.8l1 1a48.226 48.226 0 0 1-3.058 6.655q-1.985 3.542-4.434 6.27a30.149 30.149 0 0 1-.158.175Q240.7 75 235.7 75a7.154 7.154 0 0 1-2.605-.451q-1.81-.702-2.947-2.497a8.448 8.448 0 0 1-.398-.702 15.009 15.009 0 0 1-1.163-3.225q-.386-1.579-.556-3.446a34.191 34.191 0 0 1-.131-3.079q0-3.2.45-7a103.566 103.566 0 0 1 .872-5.869 118.096 118.096 0 0 1 .378-2.031q-4.4-.7-8.05-1.15-3.65-.45-6.75-.85-4.7 8.7-9.15 17.9a424.124 424.124 0 0 0-8.131 17.822 390.331 390.331 0 0 0-.119.278q-2.116-1.25-2.752-2.64a3.265 3.265 0 0 1-.048-.11 10.467 10.467 0 0 1-.329-.903q-.136-.437-.203-.824A4.204 4.204 0 0 1 194 75.5a10.62 10.62 0 0 1 .195-1.918q.438-2.363 1.855-5.682 2.05-4.8 5.5-10.95Q205 50.8 209.2 44.2q-2.544-.206-4.568-.318a104.139 104.139 0 0 0-1.732-.082 158.53 158.53 0 0 0-1.852-.061q-1.46-.039-2.648-.039zm-90.9 12.1 1 1a37.287 37.287 0 0 1-3.455 6.811A32.548 32.548 0 0 1 103.1 66.3q-3.3 4.1-7.05 6.4a17.14 17.14 0 0 1-3.137 1.531A12.358 12.358 0 0 1 88.7 75a9.836 9.836 0 0 1-2.074-.204q-1.278-.276-2.226-.924a5.25 5.25 0 0 1-1.15-1.072 8.161 8.161 0 0 1-1.353-2.413A7.247 7.247 0 0 1 81.5 68a8.603 8.603 0 0 1 .023-.616q.025-.347.077-.734.1-.75.2-1.55-2.819 3.803-5.316 6.359A30.925 30.925 0 0 1 73.95 73.8a14.686 14.686 0 0 1-2.684 1.767Q69.013 76.7 66.7 76.7q-3.1 0-5.25-2.05a6.384 6.384 0 0 1-1.629-2.636q-.342-1.015-.459-2.254a14.414 14.414 0 0 1-.062-1.36 18.649 18.649 0 0 1 .452-3.98q.392-1.796 1.125-3.709a30.579 30.579 0 0 1 .023-.061 37.798 37.798 0 0 1 3.055-6.137A44.377 44.377 0 0 1 65.3 52.45q2.8-4.05 6.35-7.4a33.55 33.55 0 0 1 5.07-3.968 29.188 29.188 0 0 1 2.43-1.382 19.076 19.076 0 0 1 4.183-1.56A15.733 15.733 0 0 1 87 37.7a12.227 12.227 0 0 1 3.046.362A9.203 9.203 0 0 1 93.5 39.75a6.51 6.51 0 0 1 2.569 4.723 8.351 8.351 0 0 1 .031.727 7.213 7.213 0 0 1-.09 1.183q-.258 1.549-1.26 2.217-1.154.77-2.93.881a9.891 9.891 0 0 1-.62.019 18.324 18.324 0 0 0 .209-.947 23.066 23.066 0 0 0 .141-.803q.15-.95.15-1.75a8.048 8.048 0 0 0-.234-1.982 6.315 6.315 0 0 0-.866-1.968 3.459 3.459 0 0 0-1.87-1.377q-.833-.273-1.93-.273a8.865 8.865 0 0 0-3.271.652q-1.13.446-2.276 1.197a15.426 15.426 0 0 0-.153.101 23.691 23.691 0 0 0-3.156 2.563A31.64 31.64 0 0 0 75.5 47.55q-2.7 3.25-4.8 7.05a45.316 45.316 0 0 0-2.416 5.061A38.5 38.5 0 0 0 67.4 62.1a28.274 28.274 0 0 0-.777 2.874q-.304 1.441-.39 2.735a15.035 15.035 0 0 0-.033.991q0 3.793 2.554 3.897a3.589 3.589 0 0 0 .146.003q2.3 0 5-2.15a33.59 33.59 0 0 0 2.564-2.279q1.276-1.25 2.585-2.754a56.926 56.926 0 0 0 .401-.467Q82.3 61.6 84.9 58t4.6-6.6a9.739 9.739 0 0 1 .129-.188q.237-.339.335-.399A.072.072 0 0 1 90 50.8a6.992 6.992 0 0 1 .409.082q.455.105 1.055.291a22.651 22.651 0 0 1 .086.027 6.466 6.466 0 0 1 .983.398A5.186 5.186 0 0 1 93.2 52a1.808 1.808 0 0 1 .427.417 1.48 1.48 0 0 1 .273.883 2.51 2.51 0 0 1-.079.592q-.145.593-.555 1.377a12.368 12.368 0 0 1-.266.481 145.901 145.901 0 0 0-.888 1.552q-.528.936-1.112 1.998-1.1 2-2 4.05-.868 1.978-.899 3.723a7.254 7.254 0 0 0-.001.127 5.859 5.859 0 0 0 .528 2.405 7.159 7.159 0 0 0 .272.545 2.722 2.722 0 0 0 .97 1.041q.516.313 1.197.387a4.039 4.039 0 0 0 .433.022 5.135 5.135 0 0 0 1.753-.348q2.253-.824 5.347-3.602a31.332 31.332 0 0 0 3.245-3.433q1.535-1.869 3.083-4.211A74.771 74.771 0 0 0 107.5 55.8zm90.2 0 1 1a37.287 37.287 0 0 1-3.455 6.811A32.548 32.548 0 0 1 193.3 66.3q-3.3 4.1-7.05 6.4a17.14 17.14 0 0 1-3.137 1.531A12.358 12.358 0 0 1 178.9 75a9.836 9.836 0 0 1-2.074-.204q-1.278-.276-2.226-.924a5.25 5.25 0 0 1-1.15-1.072 8.161 8.161 0 0 1-1.353-2.413A7.247 7.247 0 0 1 171.7 68a8.603 8.603 0 0 1 .023-.616q.025-.347.077-.734.1-.75.2-1.55-2.819 3.803-5.316 6.359a30.925 30.925 0 0 1-2.534 2.341 14.686 14.686 0 0 1-2.684 1.767Q159.213 76.7 156.9 76.7q-3.1 0-5.25-2.05a6.384 6.384 0 0 1-1.629-2.636q-.342-1.015-.459-2.254a14.414 14.414 0 0 1-.062-1.36 18.649 18.649 0 0 1 .452-3.98q.392-1.796 1.125-3.709a30.579 30.579 0 0 1 .023-.061 37.798 37.798 0 0 1 3.055-6.137 44.377 44.377 0 0 1 1.345-2.063q2.8-4.05 6.35-7.4a33.55 33.55 0 0 1 5.07-3.968 29.188 29.188 0 0 1 2.43-1.382 19.076 19.076 0 0 1 4.183-1.56 15.733 15.733 0 0 1 3.667-.44 12.227 12.227 0 0 1 3.046.362 9.203 9.203 0 0 1 3.454 1.688 6.51 6.51 0 0 1 2.569 4.723 8.351 8.351 0 0 1 .031.727 7.213 7.213 0 0 1-.09 1.183q-.258 1.549-1.26 2.217-1.154.77-2.93.881a9.891 9.891 0 0 1-.62.019 18.324 18.324 0 0 0 .209-.947 23.066 23.066 0 0 0 .141-.803q.15-.95.15-1.75a8.048 8.048 0 0 0-.234-1.982 6.315 6.315 0 0 0-.866-1.968 3.459 3.459 0 0 0-1.87-1.377q-.833-.273-1.93-.273a8.865 8.865 0 0 0-3.271.652q-1.13.446-2.276 1.197a15.426 15.426 0 0 0-.153.101 23.691 23.691 0 0 0-3.156 2.563 31.64 31.64 0 0 0-2.444 2.637q-2.7 3.25-4.8 7.05a45.316 45.316 0 0 0-2.416 5.061 38.5 38.5 0 0 0-.884 2.439 28.274 28.274 0 0 0-.777 2.874q-.304 1.441-.39 2.735a15.035 15.035 0 0 0-.033.991q0 3.793 2.554 3.897a3.589 3.589 0 0 0 .146.003q2.3 0 5-2.15a33.59 33.59 0 0 0 2.564-2.279q1.276-1.25 2.585-2.754a56.926 56.926 0 0 0 .401-.467q2.85-3.35 5.45-6.95t4.6-6.6a9.739 9.739 0 0 1 .129-.188q.237-.339.335-.399a.072.072 0 0 1 .036-.013 6.992 6.992 0 0 1 .409.082q.455.105 1.055.291a22.651 22.651 0 0 1 .086.027 6.466 6.466 0 0 1 .983.398 5.186 5.186 0 0 1 .667.402 1.808 1.808 0 0 1 .427.417 1.48 1.48 0 0 1 .273.883 2.51 2.51 0 0 1-.079.592q-.145.593-.555 1.377a12.368 12.368 0 0 1-.266.481 145.901 145.901 0 0 0-.888 1.552q-.528.936-1.112 1.998-1.1 2-2 4.05-.868 1.978-.899 3.723a7.254 7.254 0 0 0-.001.127 5.859 5.859 0 0 0 .528 2.405 7.159 7.159 0 0 0 .272.545 2.722 2.722 0 0 0 .97 1.041q.516.313 1.197.387a4.039 4.039 0 0 0 .433.022 5.135 5.135 0 0 0 1.753-.348q2.253-.824 5.347-3.602a31.332 31.332 0 0 0 3.245-3.433q1.535-1.869 3.083-4.211A74.771 74.771 0 0 0 197.7 55.8zm145.2 0 1 1a37.287 37.287 0 0 1-3.455 6.811A32.548 32.548 0 0 1 338.5 66.3q-3.3 4.1-7.05 6.4a17.14 17.14 0 0 1-3.137 1.531A12.358 12.358 0 0 1 324.1 75a9.836 9.836 0 0 1-2.074-.204q-1.278-.276-2.226-.924a5.25 5.25 0 0 1-1.15-1.072 8.161 8.161 0 0 1-1.353-2.413A7.247 7.247 0 0 1 316.9 68a8.603 8.603 0 0 1 .023-.616q.025-.347.077-.734.1-.75.2-1.55-2.819 3.803-5.316 6.359a30.925 30.925 0 0 1-2.534 2.341 14.686 14.686 0 0 1-2.684 1.767Q304.413 76.7 302.1 76.7q-3.1 0-5.25-2.05a6.384 6.384 0 0 1-1.629-2.636q-.342-1.015-.459-2.254a14.414 14.414 0 0 1-.062-1.36 18.649 18.649 0 0 1 .452-3.98q.392-1.796 1.125-3.709a30.579 30.579 0 0 1 .023-.061 37.798 37.798 0 0 1 3.055-6.137 44.377 44.377 0 0 1 1.345-2.063q2.8-4.05 6.35-7.4a33.55 33.55 0 0 1 5.07-3.968 29.188 29.188 0 0 1 2.43-1.382 19.076 19.076 0 0 1 4.183-1.56 15.733 15.733 0 0 1 3.667-.44 12.227 12.227 0 0 1 3.046.362 9.203 9.203 0 0 1 3.454 1.688 6.51 6.51 0 0 1 2.569 4.723 8.351 8.351 0 0 1 .031.727 7.213 7.213 0 0 1-.09 1.183q-.258 1.549-1.26 2.217-1.154.77-2.93.881a9.891 9.891 0 0 1-.62.019 18.324 18.324 0 0 0 .209-.947 23.066 23.066 0 0 0 .141-.803q.15-.95.15-1.75a8.048 8.048 0 0 0-.234-1.982A6.315 6.315 0 0 0 326 42.05a3.459 3.459 0 0 0-1.87-1.377q-.833-.273-1.93-.273a8.865 8.865 0 0 0-3.271.652q-1.13.446-2.276 1.197a15.426 15.426 0 0 0-.153.101 23.691 23.691 0 0 0-3.156 2.563 31.64 31.64 0 0 0-2.444 2.637q-2.7 3.25-4.8 7.05a45.316 45.316 0 0 0-2.416 5.061 38.5 38.5 0 0 0-.884 2.439 28.274 28.274 0 0 0-.777 2.874q-.304 1.441-.39 2.735a15.035 15.035 0 0 0-.033.991q0 3.793 2.554 3.897a3.589 3.589 0 0 0 .146.003q2.3 0 5-2.15a33.59 33.59 0 0 0 2.564-2.279q1.276-1.25 2.585-2.754a56.926 56.926 0 0 0 .401-.467q2.85-3.35 5.45-6.95t4.6-6.6a9.739 9.739 0 0 1 .129-.188q.237-.339.335-.399a.072.072 0 0 1 .036-.013 6.992 6.992 0 0 1 .409.082q.455.105 1.055.291a22.651 22.651 0 0 1 .086.027 6.466 6.466 0 0 1 .983.398 5.186 5.186 0 0 1 .667.402 1.808 1.808 0 0 1 .427.417 1.48 1.48 0 0 1 .273.883 2.51 2.51 0 0 1-.079.592q-.145.593-.555 1.377a12.368 12.368 0 0 1-.266.481 145.901 145.901 0 0 0-.888 1.552q-.528.936-1.112 1.998-1.1 2-2 4.05-.868 1.978-.899 3.723a7.254 7.254 0 0 0-.001.127 5.859 5.859 0 0 0 .528 2.405 7.159 7.159 0 0 0 .272.545 2.722 2.722 0 0 0 .97 1.041q.516.313 1.197.387a4.039 4.039 0 0 0 .433.022 5.135 5.135 0 0 0 1.753-.348q2.253-.824 5.347-3.602a31.332 31.332 0 0 0 3.245-3.433q1.535-1.869 3.083-4.211A74.771 74.771 0 0 0 342.9 55.8zm185.4 0 1 1a37.287 37.287 0 0 1-3.455 6.811A32.548 32.548 0 0 1 523.9 66.3q-3.3 4.1-7.05 6.4a17.14 17.14 0 0 1-3.137 1.531A12.358 12.358 0 0 1 509.5 75a9.836 9.836 0 0 1-2.074-.204q-1.278-.276-2.226-.924a5.25 5.25 0 0 1-1.15-1.072 8.161 8.161 0 0 1-1.353-2.413A7.247 7.247 0 0 1 502.3 68a8.603 8.603 0 0 1 .023-.616q.025-.347.077-.734.1-.75.2-1.55-2.819 3.803-5.316 6.359a30.925 30.925 0 0 1-2.534 2.341 14.686 14.686 0 0 1-2.684 1.767Q489.813 76.7 487.5 76.7q-3.1 0-5.25-2.05a6.384 6.384 0 0 1-1.629-2.636q-.342-1.015-.459-2.254a14.414 14.414 0 0 1-.062-1.36 18.649 18.649 0 0 1 .452-3.98q.392-1.796 1.125-3.709a30.579 30.579 0 0 1 .023-.061 37.798 37.798 0 0 1 3.055-6.137 44.377 44.377 0 0 1 1.345-2.063q2.8-4.05 6.35-7.4a33.55 33.55 0 0 1 5.07-3.968 29.188 29.188 0 0 1 2.43-1.382 19.076 19.076 0 0 1 4.183-1.56 15.733 15.733 0 0 1 3.667-.44 12.227 12.227 0 0 1 3.046.362 9.203 9.203 0 0 1 3.454 1.688 6.51 6.51 0 0 1 2.569 4.723 8.351 8.351 0 0 1 .031.727 7.213 7.213 0 0 1-.09 1.183q-.258 1.549-1.26 2.217-1.154.77-2.93.881a9.891 9.891 0 0 1-.62.019 18.324 18.324 0 0 0 .209-.947 23.066 23.066 0 0 0 .141-.803q.15-.95.15-1.75a8.048 8.048 0 0 0-.234-1.982 6.315 6.315 0 0 0-.866-1.968 3.459 3.459 0 0 0-1.87-1.377q-.833-.273-1.93-.273a8.865 8.865 0 0 0-3.271.652q-1.13.446-2.276 1.197a15.426 15.426 0 0 0-.153.101 23.691 23.691 0 0 0-3.156 2.563 31.64 31.64 0 0 0-2.444 2.637q-2.7 3.25-4.8 7.05a45.316 45.316 0 0 0-2.416 5.061 38.5 38.5 0 0 0-.884 2.439 28.274 28.274 0 0 0-.777 2.874q-.304 1.441-.39 2.735a15.035 15.035 0 0 0-.033.991q0 3.793 2.554 3.897a3.589 3.589 0 0 0 .146.003q2.3 0 5-2.15a33.59 33.59 0 0 0 2.564-2.279q1.276-1.25 2.585-2.754a56.926 56.926 0 0 0 .401-.467q2.85-3.35 5.45-6.95t4.6-6.6a9.739 9.739 0 0 1 .129-.188q.237-.339.335-.399a.072.072 0 0 1 .036-.013 6.992 6.992 0 0 1 .409.082q.455.105 1.055.291a22.651 22.651 0 0 1 .086.027 6.466 6.466 0 0 1 .983.398A5.186 5.186 0 0 1 514 52a1.808 1.808 0 0 1 .427.417 1.48 1.48 0 0 1 .273.883 2.51 2.51 0 0 1-.079.592q-.145.593-.555 1.377a12.368 12.368 0 0 1-.266.481 145.901 145.901 0 0 0-.888 1.552q-.528.936-1.112 1.998-1.1 2-2 4.05-.868 1.978-.899 3.723a7.254 7.254 0 0 0-.001.127 5.859 5.859 0 0 0 .528 2.405 7.159 7.159 0 0 0 .272.545 2.722 2.722 0 0 0 .97 1.041q.516.313 1.197.387a4.039 4.039 0 0 0 .433.022 5.135 5.135 0 0 0 1.753-.348q2.253-.824 5.347-3.602a31.332 31.332 0 0 0 3.245-3.433q1.535-1.869 3.083-4.211A74.771 74.771 0 0 0 528.3 55.8zm-374.3 0 1.1 1.3a56.018 56.018 0 0 1-2.521 5.165A44.946 44.946 0 0 1 150.4 65.8a27.462 27.462 0 0 1-2.636 3.306A20.479 20.479 0 0 1 144.7 71.8q-3.1 2.2-6.9 2.2-2.394 0-3.969-.842a5.175 5.175 0 0 1-1.281-.958 6.116 6.116 0 0 1-1.707-3.749 8.266 8.266 0 0 1-.043-.851q0-2.1.75-4.4.75-2.3 1.45-4.75a18.17 18.17 0 0 0 .625-3.224 15.671 15.671 0 0 0 .075-1.526q0-2.8-1.15-3.85a3.986 3.986 0 0 0-2.485-1.037 5.228 5.228 0 0 0-.365-.013 8.365 8.365 0 0 0-3.322.72q-1.155.496-2.323 1.334a16.284 16.284 0 0 0-.655.496 31.759 31.759 0 0 0-3.344 3.105 42.501 42.501 0 0 0-2.856 3.395q-3 3.95-5.6 8.15a1155.207 1155.207 0 0 0-2.16 3.503q-.986 1.606-1.866 3.051a676.735 676.735 0 0 0-.574.946q-1.6 0-3.05-.55a5.431 5.431 0 0 1-1.252-.662 4.401 4.401 0 0 1-.998-.988 1.302 1.302 0 0 1 .037-.261q.16-.726 1.013-2.839a159.88 159.88 0 0 0 .837-2.119q.369-.953.772-2.023a327.122 327.122 0 0 0 .841-2.258q1.4-3.8 2.5-7.8a33.742 33.742 0 0 0 .752-3.366q.304-1.818.343-3.466a20.252 20.252 0 0 0 .005-.468 4.136 4.136 0 0 1 .495-.481q.548-.456 1.392-.912a13.096 13.096 0 0 1 .013-.007 5.691 5.691 0 0 1 2.222-.679 5.515 5.515 0 0 1 .478-.021 4.051 4.051 0 0 1 1.052.125q1.368.368 1.6 1.83a4.109 4.109 0 0 1 .048.645q0 1.574-.87 5.226a78.551 78.551 0 0 1-.03.124 82.123 82.123 0 0 1-1.32 4.824 97.759 97.759 0 0 1-.98 3.026 92.214 92.214 0 0 1 5.223-7.137 102.333 102.333 0 0 1 .827-1.013 40.271 40.271 0 0 1 4.363-4.535A33.722 33.722 0 0 1 126.1 45.5a16.272 16.272 0 0 1 3.08-1.745 11.532 11.532 0 0 1 4.52-.955 8.504 8.504 0 0 1 2.228.274 5.632 5.632 0 0 1 3.422 2.526q1.75 2.8 1.75 6.2a16.878 16.878 0 0 1-.473 4.05 14.919 14.919 0 0 1-.527 1.7 126.279 126.279 0 0 1-1.788 4.485 115.236 115.236 0 0 1-.262.615 12.703 12.703 0 0 0-1.007 3.937A11.87 11.87 0 0 0 137 67.6q0 1.808.63 2.689a2.069 2.069 0 0 0 .22.261 2.871 2.871 0 0 0 1.947.845 3.82 3.82 0 0 0 .203.005 5.866 5.866 0 0 0 2.578-.625q.833-.403 1.665-1.067a12.367 12.367 0 0 0 .757-.658q2.422-2.276 4.703-5.726a45.221 45.221 0 0 0 .147-.224q2.35-3.6 4.15-7.3zm289.9.3 1.2 1a16.442 16.442 0 0 1-1.773 3.196 11.378 11.378 0 0 1-3.877 3.454q-3.65 1.95-6.95 1.95a12.295 12.295 0 0 1-2.35-.22 11.377 11.377 0 0 1-.15-.03q-1.2-.25-2.3-.75-3.4 4.5-7.45 7.5a18.281 18.281 0 0 1-2.848 1.754q-1.75.854-3.451 1.123a9.929 9.929 0 0 1-1.551.123q-2.797 0-4.536-1.121a5.429 5.429 0 0 1-1.564-1.529 10.256 10.256 0 0 1-1.597-4.026 13.884 13.884 0 0 1-.203-2.424 21.093 21.093 0 0 1 .539-4.661 25.06 25.06 0 0 1 .461-1.739q1-3.3 2.65-6.2a21.34 21.34 0 0 1 1.635-2.477 15.684 15.684 0 0 1 2.065-2.223 8.699 8.699 0 0 1 1.415-1.025q.954-.545 1.919-.706A4.926 4.926 0 0 1 416 47a3.729 3.729 0 0 1 .678.065 4.572 4.572 0 0 1 .372.085 9.742 9.742 0 0 1 .987.325 8.973 8.973 0 0 1 .063.025q-.736.654-1.705 2.21a28.267 28.267 0 0 0-.445.74 33.287 33.287 0 0 0-1.35 2.589 43.267 43.267 0 0 0-1 2.311 52.685 52.685 0 0 0-1.803 5.281 48.638 48.638 0 0 0-.047.169 25.492 25.492 0 0 0-.442 1.838q-.173.869-.249 1.634A11.477 11.477 0 0 0 411 65.4q0 2.627.766 3.988a3.449 3.449 0 0 0 .234.362q1 1.35 2.6 1.35 1.916 0 4.499-1.874a19.47 19.47 0 0 0 .501-.376 29.963 29.963 0 0 0 3.053-2.743A40.525 40.525 0 0 0 425.3 63.1a14.503 14.503 0 0 1-3.555-4.372 17.942 17.942 0 0 1-.795-1.678q-1.55-3.75-1.55-7.65 0-3.3 1.15-6.2a11.86 11.86 0 0 1 1.624-2.896 10.183 10.183 0 0 1 1.726-1.754 8.031 8.031 0 0 1 4.423-1.713 10.336 10.336 0 0 1 .877-.037q4.1 0 5.5 2.2a8.597 8.597 0 0 1 1.122 2.779q.252 1.134.276 2.448a15.237 15.237 0 0 1 .002.273 18.954 18.954 0 0 1-.417 3.843q-.37 1.784-1.067 3.715a34.344 34.344 0 0 1-.416 1.092q-1.9 4.75-4.8 9.15 1.8 1 3.8 1a9.435 9.435 0 0 0 1.56-.138q.721-.121 1.508-.348a16.91 16.91 0 0 0 .532-.164 10.905 10.905 0 0 0 2.296-1.069 14.477 14.477 0 0 0 1.654-1.181 10.529 10.529 0 0 0 2.214-2.537 13.687 13.687 0 0 0 .936-1.763zm40.7.1 1.3 1a27.374 27.374 0 0 1-1.273 2.552q-1.451 2.539-3.077 3.795a7.012 7.012 0 0 1-.5.353q-2.21 1.418-4.246 1.653a6.995 6.995 0 0 1-.804.047 7.426 7.426 0 0 1-3.196-.677A7.365 7.365 0 0 1 470.5 63.2q-1.629-1.776-2.435-4.923a22.265 22.265 0 0 1-.465-2.377q-2.4 4.9-5.65 9.45-3.25 4.55-6.75 7.55a16.356 16.356 0 0 1-2.158 1.582Q450.7 75.9 448.5 75.9a4.822 4.822 0 0 1-1.868-.344q-1.214-.505-1.965-1.751a6.333 6.333 0 0 1-.467-.955Q443 69.8 443 64.9a4.87 4.87 0 0 1 .002-.093q.011-.476.098-3.057a171.513 171.513 0 0 1 .069-1.728q.131-2.972.431-8.222.2-2.7.6-3.7a1.249 1.249 0 0 1 .587-.628q.493-.273 1.346-.345a7.888 7.888 0 0 1 .667-.027 6.928 6.928 0 0 1 .684.031q.698.07 1.097.295a1.09 1.09 0 0 1 .369.324q.45.65.45 2.55a58.523 58.523 0 0 1-.063 2.637q-.066 1.457-.201 3.09a109.576 109.576 0 0 1-.186 2.023 90.054 90.054 0 0 0-.384 5.284 73.269 73.269 0 0 0-.066 3.066 27.33 27.33 0 0 0 .031 1.353q.094 1.885.469 2.897a2.584 2.584 0 0 0 .343.651q.512.687 1.424.699a2.476 2.476 0 0 0 .033 0 3.858 3.858 0 0 0 1.452-.306q1.199-.487 2.548-1.744a25.112 25.112 0 0 0 1.909-2.002q.92-1.069 1.856-2.357a47.252 47.252 0 0 0 .735-1.041 77.857 77.857 0 0 0 4.093-6.677 85.461 85.461 0 0 0 .257-.473 132.334 132.334 0 0 0 2.387-4.633A111.278 111.278 0 0 0 467.3 50.1a62.339 62.339 0 0 1 .138-2.757q.309-4.184 1.165-6.004a4.784 4.784 0 0 1 .147-.289q.755-1.359 1.748-1.897a2.896 2.896 0 0 1 1.402-.353 4.184 4.184 0 0 1 1.082.131 2.735 2.735 0 0 1 1.668 1.219q.591.939.771 1.757a3.222 3.222 0 0 1 .079.693q0 1.255-.792 2.603a7.821 7.821 0 0 1-.058.097q-.85 1.4-1.75 3.8-.813 2.168-.892 6.05A42.024 42.024 0 0 0 472 56a19.243 19.243 0 0 0 .117 2.078 23.471 23.471 0 0 0 .183 1.322 7.123 7.123 0 0 0 .435 1.556 5.556 5.556 0 0 0 .865 1.444q.895 1.074 2.669 1.187a6.768 6.768 0 0 0 .431.013 5.593 5.593 0 0 0 2.692-.71 8.016 8.016 0 0 0 1.358-.94 9.145 9.145 0 0 0 1.214-1.27q1.143-1.427 2.268-3.71a35.355 35.355 0 0 0 .368-.77zm-254.3-13q1.5-6.6 3.5-13.35T238.05 17a254.411 254.411 0 0 1 1.921-5.05q.903-2.297 1.762-4.326A145.061 145.061 0 0 1 242.3 6.3a17.626 17.626 0 0 0-2.03 1.476q-2.336 1.94-5.12 5.274-3.48 4.168-7.293 9.887a170.521 170.521 0 0 0-1.257 1.913q-4.5 6.95-9.2 15.25 3.4.7 6.75 1.55 3.35.85 6.15 1.55zm196.8 17.3q2.5-3.7 4.15-7.75a23.947 23.947 0 0 0 1.184-3.698 17.735 17.735 0 0 0 .466-3.952q0-2.545-.655-3.896a3.65 3.65 0 0 0-.195-.354 3.631 3.631 0 0 0-.544-.682 2.242 2.242 0 0 0-1.606-.668q-2 0-4.1 2.9a10.731 10.731 0 0 0-1.78 4.092 15.248 15.248 0 0 0-.32 3.208 20.988 20.988 0 0 0 .798 5.666 23.378 23.378 0 0 0 .052.184q.85 2.95 2.55 4.95z"
        vector-effect="non-scaling-stroke"
        stroke-linecap="round"
        fill-rule="evenodd"
        stroke-width=".945"
        style="stroke-width:.25mm;"/>
  </symbol>
</svg>
