<svg xmlns="http://www.w3.org/2000/svg">
  <symbol id="logo" viewBox="0 0 524.702 120.255">
    <path d="m34.002 10.455 5.5 7q-.8 1.6-2.7 5.2-1.633 3.093-3.524 7a325.402 325.402 0 0 0-.626 1.3 208.998 208.998 0 0 0-3.861 8.569 231.54 231.54 0 0 0-.539 1.281q-2.15 5.15-3.5 10.1-1.208 4.428-1.335 8.095a24.617 24.617 0 0 0-.015.855q0 2.8 1 4.9.954 2.005 3.003 2.095a4.444 4.444 0 0 0 .197.005 5.829 5.829 0 0 0 1.36-.178q1.296-.313 2.942-1.175a22.904 22.904 0 0 0 .548-.297 40.204 40.204 0 0 0 3.205-2.007 53.572 53.572 0 0 0 2.945-2.193q3.2-2.55 6-5.35a74.373 74.373 0 0 0 1.945-2.016q1.492-1.609 2.555-2.984 3-4.2 6-8.7 3-4.5 5.45-9.15t3.65-9.05q-1.011-.855-1.961-2.315a17.904 17.904 0 0 1-.539-.885q-1.2-2.1-1.95-4.35-.75-2.25-.75-3.75a3.661 3.661 0 0 1 1.126-2.678 4.71 4.71 0 0 1 .074-.072 4.359 4.359 0 0 1 1.105-.785 3.597 3.597 0 0 1 1.595-.365 4.908 4.908 0 0 1 3.724 1.646 6.84 6.84 0 0 1 .426.504 7.981 7.981 0 0 1 1.643 4.69 9.954 9.954 0 0 1 .007.36 15.623 15.623 0 0 1-.129 1.946q-.138 1.092-.421 2.304-.55 2.35-1.45 5.05 2.6 4.3 3.7 9.35t1.1 10.35q0 7.7-1.8 15.55a161.456 161.456 0 0 1-2.446 9.402 135.811 135.811 0 0 1-1.654 5.248q-1.8 5.4-4.4 10.7a123.819 123.819 0 0 1-4.39 8.183 109.995 109.995 0 0 1-1.06 1.767 83.8 83.8 0 0 1-2.794 4.274q-1.434 2.049-2.856 3.776-4 4.7-8.05 8.4-4.05 3.7-9.05 5.85-5 2.15-11.8 2.35a12.696 12.696 0 0 1-3.429-.436 8.905 8.905 0 0 1-5.071-3.614 15.482 15.482 0 0 1-2.454-6.031 21.253 21.253 0 0 1-.346-3.919 29.126 29.126 0 0 1 .807-6.65 39.482 39.482 0 0 1 1.743-5.5q2.55-6.45 7.45-11.65a35.468 35.468 0 0 1 7.223-5.995 32.617 32.617 0 0 1 1.827-1.055 26.788 26.788 0 0 1 3.52-1.589q1.926-.696 3.705-.936a13.674 13.674 0 0 1 1.825-.125 8.359 8.359 0 0 1 2.994.52 7.568 7.568 0 0 1 2.556 1.63 6.483 6.483 0 0 1 1.577 2.472q.673 1.807.673 4.378a22.041 22.041 0 0 1-.474 4.46 27.1 27.1 0 0 1-.626 2.44 53.545 53.545 0 0 1-1.075 3.177q-.635 1.688-1.325 3.123a65.359 65.359 0 0 1-2.311 4.349q-2.632 4.502-5.239 6.901-3.75 3.45-6.45 3.45a3.661 3.661 0 0 1-2.837-1.244 4.832 4.832 0 0 1-.363-.456q-.897-1.27-1.124-3.322a13.479 13.479 0 0 1-.076-1.478q0-2.792 1.013-6.15a31.762 31.762 0 0 1 .237-.75q1.25-3.8 3.35-7.15 2.1-3.35 4.65-5.4 2.224-1.789 4.411-1.789a5.359 5.359 0 0 1 .639.039 6.81 6.81 0 0 1 .823.241q.403.149.725.339a3.142 3.142 0 0 1 .452.32l.2.4q0 .187-.308.199a1.113 1.113 0 0 1-.042.001 2.785 2.785 0 0 1-.41-.032 3.572 3.572 0 0 1-.34-.068.351.351 0 0 0-.17-.211q-.305-.189-1.13-.189-2.1 0-4.05 1.6a13.504 13.504 0 0 0-2.294 2.44 17.175 17.175 0 0 0-1.106 1.71q-1.45 2.55-2.3 5.35-.85 2.8-.85 5.2a10.757 10.757 0 0 0 .107 1.57q.125.846.396 1.533a4.85 4.85 0 0 0 .597 1.097 4.023 4.023 0 0 0 .888.899 3.191 3.191 0 0 0 1.912.601 4.516 4.516 0 0 0 1.593-.317q1.319-.497 2.845-1.777a18.189 18.189 0 0 0 .412-.356q2.722-2.425 5.296-7.642a49.762 49.762 0 0 0 .054-.108q1.4-2.8 2.25-5.7.727-2.481.832-4.523a13.179 13.179 0 0 0 .018-.677 15.727 15.727 0 0 0-.103-1.864q-.282-2.361-1.347-3.536a4.775 4.775 0 0 0-3.466-1.594 6.391 6.391 0 0 0-.284-.006 8.817 8.817 0 0 0-2.157.284q-.96.242-1.991.69a16.826 16.826 0 0 0-.702.326 22.176 22.176 0 0 0-3.573 2.213 26.792 26.792 0 0 0-1.577 1.287q-2.5 2.2-4.3 4.9a53.18 53.18 0 0 0-2.739 4.851 65.484 65.484 0 0 0-1.511 3.249q-1.95 4.5-3.1 8.85-.984 3.721-1.126 6.747a21.366 21.366 0 0 0-.024 1.003q0 3 1.05 4.85a3.462 3.462 0 0 0 2.497 1.767 5.248 5.248 0 0 0 .953.083 10.725 10.725 0 0 0 2.865-.412q1.223-.339 2.519-.956a19.721 19.721 0 0 0 .666-.332 34.428 34.428 0 0 0 3.599-2.189 45.379 45.379 0 0 0 3.051-2.311q3.4-2.8 6.5-6.2a73.34 73.34 0 0 0 4.094-4.888 63.122 63.122 0 0 0 1.406-1.912 115.087 115.087 0 0 0 5.008-7.723 89.678 89.678 0 0 0 3.242-5.977q3.25-6.6 5.85-13.6 1.8-4.8 3.4-10.75 1.6-5.95 2.6-12.2 1-6.25 1-11.85a49.297 49.297 0 0 0-.165-4.093 44.114 44.114 0 0 0-.085-.907q-.25-2.4-.85-4.4-2.3 5.5-6.1 11.65t-8.45 12a115.153 115.153 0 0 1-6.489 7.5 98.983 98.983 0 0 1-3.011 3.05 67.864 67.864 0 0 1-4.187 3.748q-2.281 1.871-4.492 3.297a40.178 40.178 0 0 1-.721.455 24.482 24.482 0 0 1-2.884 1.536q-1.513.671-2.904.986a10.703 10.703 0 0 1-2.362.278 9.58 9.58 0 0 1-2.468-.299 6.517 6.517 0 0 1-3.582-2.351q-1.801-2.328-2.02-6.083a18.335 18.335 0 0 1-.03-1.067 42.325 42.325 0 0 1 1.174-9.753 49.173 49.173 0 0 1 .676-2.547 102.751 102.751 0 0 1 3.96-11.04 114.684 114.684 0 0 1 .74-1.71q2.85-6.45 5.9-13.1 3.05-6.65 5.45-13.35zM221.07 87.929a12.55 12.55 0 0 0 3.732.526q2.62 0 5.443-1.513a20.453 20.453 0 0 0 2.807-1.837 37.373 37.373 0 0 0 .764-.605q2.065-1.678 4.129-3.829a63.517 63.517 0 0 0 3.807-4.366 95.027 95.027 0 0 0 1.68-2.169 106.917 106.917 0 0 0 6.52-9.781q3.85-6.5 6.8-12.85a138.625 138.625 0 0 0 1.101-2.429q2.161-4.898 3.449-8.921 1.8 5.7 3.8 11.85a2416.832 2416.832 0 0 1 .249.767 2210.543 2210.543 0 0 1 3.601 11.183 647.711 647.711 0 0 0 .514 1.605q1.554 4.827 2.886 8.695a373.171 373.171 0 0 0 .691 1.988q1.07 3.051 1.759 4.812a.814.814 0 0 0 .21-.033q.543-.149 1.69-.967 1.4-1 2.95-2.25 1.55-1.25 2.35-1.85-2.1-2.9-4.25-7.5a119.824 119.824 0 0 1-1.731-3.886 149.048 149.048 0 0 1-2.469-6.214q-2.05-5.5-3.95-11.35-1.9-5.85-3.35-11.3-1.45-5.45-2.45-9.75 2.898-1.86 5.139-3.779a30.319 30.319 0 0 0 3.261-3.221q1.501-1.744 2.276-3.464a8.803 8.803 0 0 0 .824-3.636q0-2.8-2.5-4.75a6.328 6.328 0 0 0-.783-.52q-2.535-1.43-7.417-1.43-9.7 0-17.9 4.5a48.588 48.588 0 0 0-3.994 2.45 53.324 53.324 0 0 0-10.706 9.75 74.519 74.519 0 0 0-1.596 1.956 80.781 80.781 0 0 0-9.504 15.444 73.414 73.414 0 0 1-.449.048 66.95 66.95 0 0 1-3.051.252q-1.7.1-3.4.1a42.28 42.28 0 0 1-4.855-.268 32.225 32.225 0 0 1-5.595-1.132 18.574 18.574 0 0 1-2.748-1.061 14.018 14.018 0 0 1-4.602-3.489q-1.709-1.994-2.336-4.808a16.272 16.272 0 0 1-.364-3.542 10.637 10.637 0 0 1 .086-1.347q.257-2.022 1.289-4.055a18.37 18.37 0 0 1 1.975-3.048q3.35-4.25 9.25-7.3t13.7-3.55a12.19 12.19 0 0 1 1.012-.042q1.904 0 3.838.592a11.459 11.459 0 0 1 .303.097 9.755 9.755 0 0 1 3.847 2.353 5.574 5.574 0 0 1 1.445 2.499 7.48 7.48 0 0 1 .255 2.001 8.31 8.31 0 0 1-.002.154q-.014.751-.163 1.576a13.755 13.755 0 0 1-.385 1.57 10.498 10.498 0 0 1-.208.609q-.576 1.541-1.742 3.291a13.39 13.39 0 0 1-.475.725q-1.359 1.937-3.675 3.875-2.75 2.3-5.95 3.85a16.982 16.982 0 0 1-2.372.944 12.887 12.887 0 0 1-3.828.606q-3.2 0-4.6-1.25a4.166 4.166 0 0 1-1.017-1.339 4.206 4.206 0 0 1-.383-1.811 6.902 6.902 0 0 1 .169-1.491q.412-1.866 1.831-3.959a17.131 17.131 0 0 1 1.857-2.284 20.344 20.344 0 0 1 3.493-2.866 16.737 16.737 0 0 1 .052-.035 14.187 14.187 0 0 1 7.098-2.365q1.1 0 2.4.05 1.3.05 2.25.65a1.837 1.837 0 0 1 .55.532q.226.336.325.795a3.692 3.692 0 0 1 .075.773q0 .645.255.483a.438.438 0 0 0 .045-.033q.234-.196.285-.85a5.165 5.165 0 0 0 .015-.4q0-1.393-.761-2.264a3.441 3.441 0 0 0-1.139-.836 8.453 8.453 0 0 0-.122-.057q-1.496-.68-3.054-.68a7.272 7.272 0 0 0-.724.037q-6.3.5-10.55 3-1.992 1.172-3.534 2.508a16.687 16.687 0 0 0-2.916 3.242q-2.2 3.25-2.2 6.25 0 2.6 1.8 4.45a5.371 5.371 0 0 0 1.187.917q.911.522 2.091.752a10.587 10.587 0 0 0 2.022.181 16.047 16.047 0 0 0 3.352-.364 20.298 20.298 0 0 0 3.698-1.186 30.439 30.439 0 0 0 .681-.3 32.816 32.816 0 0 0 6.319-3.8q3.35-2.55 5.95-5.65 1.237-1.575 2.079-3.055a16.18 16.18 0 0 0 1.071-2.245q.95-2.5.95-4.7 0-3.8-2.35-6.45a13.521 13.521 0 0 0-2.315-2.07 15.804 15.804 0 0 0-3.735-1.93A18.301 18.301 0 0 0 217.879 0a20.244 20.244 0 0 0-1.477.055 50.118 50.118 0 0 0-.246.017q-3.803.281-7.115 1.112a30.278 30.278 0 0 0-7.489 2.921 32.063 32.063 0 0 0-4.362 2.916 23.884 23.884 0 0 0-5.038 5.434 22.031 22.031 0 0 0-1.345 2.313 17.211 17.211 0 0 0-1.905 7.787q0 6.5 3.25 10.45a16.547 16.547 0 0 0 4.046 3.532 20.646 20.646 0 0 0 4.804 2.168 36.81 36.81 0 0 0 5.535 1.256 47.035 47.035 0 0 0 6.965.494 77.922 77.922 0 0 0 .853-.005 85.28 85.28 0 0 0 6.147-.295 78.897 78.897 0 0 0-.038.084 85.303 85.303 0 0 0-4.062 11.316q-1.7 6-2.55 11.65-.452 3.001-.664 5.678a56.854 56.854 0 0 0-.186 4.472q0 2.887.574 5.325a15.721 15.721 0 0 0 2.426 5.525 9.521 9.521 0 0 0 5.068 3.724zm153.57-6.617a1.426 1.426 0 0 0 .362.043q.553 0 1.297-.263a8.444 8.444 0 0 0 .703-.287q1.2-.55 2.1-.85a2.049 2.049 0 0 1-.033-.094q-.201-.628-.251-2.011a27.749 27.749 0 0 1-.016-.995q0-2.025.49-4.256a28.163 28.163 0 0 1 1.06-3.594q1.55-4.25 3.7-8.1 1.411-2.527 2.628-4.386a37.969 37.969 0 0 1 1.222-1.764 10.74 10.74 0 0 1 .536-.713q.301-.366.596-.645a4.348 4.348 0 0 1 .618-.492q.597-.387 1.022-.502a1.265 1.265 0 0 1 .328-.048.916.916 0 0 1 .23.026q.468.122.313.81a2.427 2.427 0 0 1-.043.164q-1 4.2-1.75 8.5a46.257 46.257 0 0 0-.316 2.109q-.234 1.835-.368 3.93a90.259 90.259 0 0 0-.166 4.261q.157.549 1.3 1.315a13.401 13.401 0 0 0 .7.435q1.8 1.05 3.3 1.65a1.568 1.568 0 0 0 .116.077q1 .599 1.284-1.577a29.562 29.562 0 0 1 .707-3.033 37.041 37.041 0 0 1 1.443-4.067 70.442 70.442 0 0 1 .392-.918 63.255 63.255 0 0 1 3.008-6.032q1.17-2.057 2.201-3.613a34.335 34.335 0 0 1 1.149-1.637 10.74 10.74 0 0 1 .536-.713q.301-.366.596-.645a4.348 4.348 0 0 1 .618-.492q.597-.387 1.022-.502a1.265 1.265 0 0 1 .328-.048.916.916 0 0 1 .23.026q.468.122.313.81a2.427 2.427 0 0 1-.043.164 83.103 83.103 0 0 0-.385 1.697q-.417 1.931-.807 4.139a155.233 155.233 0 0 0-.658 4.064q-.85 5.7-.95 11.7a.83.83 0 0 0 .06.136q.239.435 1.117 1.052a13.769 13.769 0 0 0 .623.412q1.6 1 3.35 1.6a15.996 15.996 0 0 0 .284.094q1.245.401 1.642.276a.299.299 0 0 0 .124-.07q1.581-4.675 5.006-10.816a135.307 135.307 0 0 1 3.494-5.884q1.1-1.7 2.2-3.25a1422.377 1422.377 0 0 0 .556-.785 1631.804 1631.804 0 0 0 1.744-2.465 1.904 1.904 0 0 0 .081-.109q.229-.333.102-.513a.312.312 0 0 0-.083-.078q-.3-.2-.8.4-4.8 5.9-8.05 11.45a1793.533 1793.533 0 0 1-.673 1.148q-2.799 4.771-4.677 7.902a1.684 1.684 0 0 1-.016-.032q-.292-.618-.362-2.014a19.167 19.167 0 0 1-.022-.954q0-1.375.136-3.024a55.976 55.976 0 0 1 .214-2.076q.35-2.9.95-5.95.6-3.05 1.25-5.6a71.34 71.34 0 0 1 .296-1.127q.471-1.728.854-2.723.4-1.3.4-2.5 0-2.9-2.5-2.9a5.776 5.776 0 0 0-2.736.722q-.96.51-1.91 1.381a15.565 15.565 0 0 0-1.654 1.797 60.957 60.957 0 0 0-1.925 2.593 77.477 77.477 0 0 0-2.475 3.757q-2.2 3.55-4.2 7.35a33.201 33.201 0 0 0-.593 1.085 39.586 39.586 0 0 0-.957 1.965q-.75 1.65-1.55 3.35.3-3.6.85-7.35.55-3.75 1.3-6.75a77.338 77.338 0 0 1 .248-.969q.399-1.511.752-2.569a17.815 17.815 0 0 1 .35-.962q.4-1.3.4-2.5 0-2.9-2.5-2.9a5.776 5.776 0 0 0-2.736.722q-.96.51-1.91 1.381a15.565 15.565 0 0 0-1.654 1.797q-3.5 4.5-6.3 9.5t-5.1 10.4q0-2.7.35-5.9a71.428 71.428 0 0 1 .19-1.582 63 63 0 0 1 .76-4.518q.412-1.994.872-3.421a16.003 16.003 0 0 1 .428-1.179.444.444 0 0 0 .002-.013q.086-.504-.852-1.837a17.928 17.928 0 0 0-.665-.887 14.715 14.715 0 0 0-1.335-1.463 5.778 5.778 0 0 0-.149-.137q-.923-.82-1.201-.263a114.939 114.939 0 0 1-.732 1.308q-.387.684-.819 1.426a200.438 200.438 0 0 1-1.099 1.866q-1.55 2.6-3.55 5.5-.079.157-.003.344a.747.747 0 0 0 .053.106.84.84 0 0 0 .052.077q.045.059.094.098a.322.322 0 0 0 .204.075q.2 0 .3-.1a101.654 101.654 0 0 0 .012-.016q1.39-1.789 1.988-2.734a15.298 15.298 0 0 1 .037-.06 13.982 13.982 0 0 1 1.263-1.69q-.2 1.3-.75 4.25t-1 6.5a60.258 60.258 0 0 0-.153 1.322 53.259 53.259 0 0 0-.297 5.528 30.159 30.159 0 0 0 .076 2.189 23.239 23.239 0 0 0 .324 2.561 10.522 10.522 0 0 0 .222.958q.414 1.452 1.178 2.292a.954.954 0 0 0 .538.357zm-83.638.593a14.901 14.901 0 0 0 .172.109q1.99 1.241 3.428 1.241a2.264 2.264 0 0 0 .489-.05 1.327 1.327 0 0 0 .911-.65 21.45 21.45 0 0 1 .183-.789q.455-1.816 1.467-4.811.644-1.908 1.435-4.042a207.035 207.035 0 0 1 1.615-4.208q1.8-4.55 3.85-9.2 2.05-4.65 4.05-8.35a23.149 23.149 0 0 0-.061.846 27.888 27.888 0 0 0-.039 1.504v2.55q0 3.6.4 7.3a41.798 41.798 0 0 0 .377 2.69 33.914 33.914 0 0 0 .973 4.11 14.694 14.694 0 0 0 .961 2.402 10.666 10.666 0 0 0 1.839 2.598 6.118 6.118 0 0 0 2.197 1.468 6.761 6.761 0 0 0 2.453.432q2.3 0 4.05-1.45a13.857 13.857 0 0 0 .536-.469 15.001 15.001 0 0 0 2.514-3.031 76.751 76.751 0 0 0 .171-.271q1.188-1.892 2.029-3.479 2.1-3.5 4.25-6.95t4.45-6.35a1.531 1.531 0 0 0 .048-.064q.323-.449-.098-.636a.572.572 0 0 0-.003-.002q-.449-.196-.947.502-2 2.9-3.9 5.75a32.958 32.958 0 0 1-.611.884 36.402 36.402 0 0 1-3.889 4.566q-2 2-4.25 3.5a12.188 12.188 0 0 1-.921.559q-.755.412-1.468.643a5.693 5.693 0 0 1-1.761.298q-2.3 0-3.7-2.3a11.099 11.099 0 0 1-.563-1.051q-.499-1.062-.855-2.352a21.735 21.735 0 0 1-.532-2.547 46.745 46.745 0 0 1-.201-1.498 52.59 52.59 0 0 1-.349-6.152q0-5.5.8-10.5 2.6-8.8 4.85-16.9 2.25-8.1 4.85-14.4.306-.689.085-1.554a4.003 4.003 0 0 0-.185-.546q-.5-1.2-1.35-2.15-.412-.461-.835-.698a1.853 1.853 0 0 0-.915-.252 1.159 1.159 0 0 0-.303.04q-.426.114-.797.56a9.739 9.739 0 0 0-.41.594q-.679 1.061-1.419 2.713a44.295 44.295 0 0 0-.771 1.843q-.788 1.997-1.559 4.405a108.191 108.191 0 0 0-1.191 3.995 95.064 95.064 0 0 0-.805 3.094 110.995 110.995 0 0 0-1.495 7.256q-.95 5.5-1.25 11.1a9.841 9.841 0 0 0-.852-.586 11.241 11.241 0 0 0-2.148-1.014 10.077 10.077 0 0 0-1.233-.348 11.69 11.69 0 0 0-2.467-.252 15.534 15.534 0 0 0-2.306.165 11.963 11.963 0 0 0-3.844 1.235q-2.65 1.4-4.35 3.7-2.5 3.6-3.65 9.35t-1.15 11.65a76.839 76.839 0 0 0 .007 1.084q.084 5.931 1.093 10.516a4.382 4.382 0 0 0 .037.059q.553.867 1.684 1.757a15.218 15.218 0 0 0 1.179.834zM80.257 80.223a1.105 1.105 0 0 0 .245.032q1.409 0 2.921-.678a11.589 11.589 0 0 0 1.729-.972 18.637 18.637 0 0 0 .081-.055q1.261-.859 2.508-2.009a30.038 30.038 0 0 0 2.261-2.336q2.4-2.75 4.5-5.95t3.6-6.2q.8 4.4 2.55 8.4a19.914 19.914 0 0 0 1.265 2.422 22.164 22.164 0 0 0 3.985 4.778q2.5 2.2 5.9 2.2 2.9 0 6-1.4.284-.071.467-.193a.692.692 0 0 0 .333-.607q0-.2-.2-.2a1.633 1.633 0 0 0-.35.038 1.926 1.926 0 0 0-.45.162q-.4.1-.85.25a2.838 2.838 0 0 1-.014.004 2.988 2.988 0 0 1-.936.146q-1.307 0-2.66-.851a9.13 9.13 0 0 1-1.24-.949q-1.188-1.069-2.252-2.596a22.606 22.606 0 0 1-1.398-2.304q-1.65-3.1-2.85-6.75a69.2 69.2 0 0 1-.569-1.813 60.621 60.621 0 0 1-1.331-5.287q-.7-3.45-.8-5.95.1-.5-.7-.1-.525.262-1.179.697a20.867 20.867 0 0 0-.721.503q-1.1.8-1.95 1.65a8.901 8.901 0 0 0-.188.193q-.662.704-.662 1.057l.2 2.4q.1 1.2.3 2.4-.744 1.487-1.714 3.102a64.612 64.612 0 0 1-1.886 2.948q-2.2 3.25-4.65 6.1-2.45 2.85-4.8 4.65-1.524 1.167-2.775 1.577a4.1 4.1 0 0 1-1.275.223q-.641 0-.865-.866a3.479 3.479 0 0 1-.085-.484 6.897 6.897 0 0 1-.024-.259q-.063-.862.061-1.967a18.428 18.428 0 0 1 .163-1.124q.35-2 .85-4 .8-3 2.2-7 1.4-4 3.55-7.9a30.244 30.244 0 0 1 .341-.603 26.752 26.752 0 0 1 4.859-6.147q3.05-2.85 7.05-3.45 1.059-.082 1.255 1.099a3.689 3.689 0 0 1 .045.601 3.835 3.835 0 0 1-.384 1.72 4.041 4.041 0 0 1-1.016 1.28 5.896 5.896 0 0 1-.268.216 4.576 4.576 0 0 1-2.832.984 2.02 2.02 0 0 0-.127.003q-.473.03-.473.297a.126.126 0 0 0 .026.076q.164.224 1.374.224.5 0 .95-.05.45-.05.85-.15 1.15-.25 2.037-.688a5.647 5.647 0 0 0 1.513-1.062 6.186 6.186 0 0 0 .308-.331q.365-.423.589-.852a2.929 2.929 0 0 0 .353-1.367q0-1.5-2.05-2.65a8.845 8.845 0 0 0-1.189-.556 9.389 9.389 0 0 0-3.361-.594 21.171 21.171 0 0 0-3.417.41 16.017 16.017 0 0 0-4.883 1.84q-3.5 2.05-6 5.15-2.5 3.1-4.15 6.5-1.65 3.4-2.75 6.4-.438 1-.719 2.312a19.773 19.773 0 0 0-.281 1.688q-.3 2.4-.1 4.8a16.47 16.47 0 0 0 .006.07q.095 1.085.324 2.037a10.047 10.047 0 0 0 .72 2.043 5.108 5.108 0 0 0 .455.768 3.444 3.444 0 0 0 1.995 1.382q.8.6 1.65 1.05.624.33 1.005.418zm73.4 0a1.105 1.105 0 0 0 .245.032q1.409 0 2.921-.678a11.589 11.589 0 0 0 1.729-.972 18.637 18.637 0 0 0 .081-.055q1.261-.859 2.508-2.009a30.038 30.038 0 0 0 2.261-2.336q2.4-2.75 4.5-5.95t3.6-6.2q.8 4.4 2.55 8.4a19.914 19.914 0 0 0 1.265 2.422 22.164 22.164 0 0 0 3.985 4.778q2.5 2.2 5.9 2.2 2.9 0 6-1.4.284-.071.467-.193a.692.692 0 0 0 .333-.607q0-.2-.2-.2a1.633 1.633 0 0 0-.35.038 1.926 1.926 0 0 0-.45.162q-.4.1-.85.25a2.838 2.838 0 0 1-.014.004 2.988 2.988 0 0 1-.936.146q-1.307 0-2.66-.851a9.13 9.13 0 0 1-1.24-.949q-1.188-1.069-2.252-2.596a22.606 22.606 0 0 1-1.398-2.304q-1.65-3.1-2.85-6.75a69.2 69.2 0 0 1-.569-1.813 60.621 60.621 0 0 1-1.331-5.287q-.7-3.45-.8-5.95.1-.5-.7-.1-.525.262-1.179.697a20.867 20.867 0 0 0-.721.503q-1.1.8-1.95 1.65a8.901 8.901 0 0 0-.188.193q-.662.704-.662 1.057l.2 2.4q.1 1.2.3 2.4-.744 1.487-1.714 3.102a64.612 64.612 0 0 1-1.886 2.948q-2.2 3.25-4.65 6.1-2.45 2.85-4.8 4.65-1.524 1.167-2.775 1.577a4.1 4.1 0 0 1-1.275.223q-.641 0-.865-.866a3.479 3.479 0 0 1-.085-.484 6.897 6.897 0 0 1-.024-.259q-.063-.862.061-1.967a18.428 18.428 0 0 1 .163-1.124q.35-2 .85-4 .8-3 2.2-7 1.4-4 3.55-7.9a30.244 30.244 0 0 1 .341-.603 26.752 26.752 0 0 1 4.859-6.147q3.05-2.85 7.05-3.45 1.059-.082 1.255 1.099a3.689 3.689 0 0 1 .045.601 3.835 3.835 0 0 1-.384 1.72 4.041 4.041 0 0 1-1.016 1.28 5.896 5.896 0 0 1-.268.216 4.576 4.576 0 0 1-2.832.984 2.02 2.02 0 0 0-.127.003q-.473.03-.473.297a.126.126 0 0 0 .026.076q.164.224 1.374.224.5 0 .95-.05.45-.05.85-.15 1.15-.25 2.037-.688a5.647 5.647 0 0 0 1.513-1.062 6.186 6.186 0 0 0 .308-.331q.365-.423.589-.852a2.929 2.929 0 0 0 .353-1.367q0-1.5-2.05-2.65a8.845 8.845 0 0 0-1.189-.556 9.389 9.389 0 0 0-3.361-.594 21.171 21.171 0 0 0-3.417.41 16.017 16.017 0 0 0-4.883 1.84q-3.5 2.05-6 5.15-2.5 3.1-4.15 6.5-1.65 3.4-2.75 6.4-.438 1-.719 2.312a19.773 19.773 0 0 0-.281 1.688q-.3 2.4-.1 4.8a16.47 16.47 0 0 0 .006.07q.095 1.085.324 2.037a10.047 10.047 0 0 0 .72 2.043 5.108 5.108 0 0 0 .455.768 3.444 3.444 0 0 0 1.995 1.382q.8.6 1.65 1.05.624.33 1.005.418zm181 0a1.105 1.105 0 0 0 .245.032q1.409 0 2.921-.678a11.589 11.589 0 0 0 1.729-.972 18.637 18.637 0 0 0 .081-.055q1.261-.859 2.508-2.009a30.038 30.038 0 0 0 2.261-2.336q2.4-2.75 4.5-5.95t3.6-6.2q.8 4.4 2.55 8.4a19.914 19.914 0 0 0 1.265 2.422 22.164 22.164 0 0 0 3.985 4.778q2.5 2.2 5.9 2.2 2.9 0 6-1.4.284-.071.467-.193a.692.692 0 0 0 .333-.607q0-.2-.2-.2a1.633 1.633 0 0 0-.35.038 1.926 1.926 0 0 0-.45.162q-.4.1-.85.25a2.838 2.838 0 0 1-.014.004 2.988 2.988 0 0 1-.936.146q-1.307 0-2.66-.851a9.13 9.13 0 0 1-1.24-.949q-1.188-1.069-2.252-2.596a22.606 22.606 0 0 1-1.398-2.304q-1.65-3.1-2.85-6.75a69.2 69.2 0 0 1-.569-1.813 60.621 60.621 0 0 1-1.331-5.287q-.7-3.45-.8-5.95.1-.5-.7-.1-.525.262-1.179.697a20.867 20.867 0 0 0-.721.503q-1.1.8-1.95 1.65a8.901 8.901 0 0 0-.188.193q-.662.704-.662 1.057l.2 2.4q.1 1.2.3 2.4-.744 1.487-1.714 3.102a64.612 64.612 0 0 1-1.886 2.948q-2.2 3.25-4.65 6.1-2.45 2.85-4.8 4.65-1.524 1.167-2.775 1.577a4.1 4.1 0 0 1-1.275.223q-.641 0-.865-.866a3.479 3.479 0 0 1-.085-.484 6.897 6.897 0 0 1-.024-.259q-.063-.862.061-1.967a18.428 18.428 0 0 1 .163-1.124q.35-2 .85-4 .8-3 2.2-7 1.4-4 3.55-7.9a30.244 30.244 0 0 1 .341-.603 26.752 26.752 0 0 1 4.859-6.147q3.05-2.85 7.05-3.45 1.059-.082 1.255 1.099a3.689 3.689 0 0 1 .045.601 3.835 3.835 0 0 1-.384 1.72 4.041 4.041 0 0 1-1.016 1.28 5.896 5.896 0 0 1-.268.216 4.576 4.576 0 0 1-2.832.984 2.02 2.02 0 0 0-.127.003q-.473.03-.473.297a.126.126 0 0 0 .026.076q.164.224 1.374.224.5 0 .95-.05.45-.05.85-.15 1.15-.25 2.037-.688a5.647 5.647 0 0 0 1.513-1.062 6.186 6.186 0 0 0 .308-.331q.365-.423.589-.852a2.929 2.929 0 0 0 .353-1.367q0-1.5-2.05-2.65a8.845 8.845 0 0 0-1.189-.556 9.389 9.389 0 0 0-3.361-.594 21.171 21.171 0 0 0-3.417.41 16.017 16.017 0 0 0-4.883 1.84q-3.5 2.05-6 5.15-2.5 3.1-4.15 6.5-1.65 3.4-2.75 6.4-.438 1-.719 2.312a19.773 19.773 0 0 0-.281 1.688q-.3 2.4-.1 4.8a16.47 16.47 0 0 0 .006.07q.095 1.085.324 2.037a10.047 10.047 0 0 0 .72 2.043 5.108 5.108 0 0 0 .455.768 3.444 3.444 0 0 0 1.995 1.382q.8.6 1.65 1.05.624.33 1.005.418zm151.7 0a1.105 1.105 0 0 0 .245.032q1.409 0 2.921-.678a11.589 11.589 0 0 0 1.729-.972 18.637 18.637 0 0 0 .081-.055q1.261-.859 2.508-2.009a30.038 30.038 0 0 0 2.261-2.336q2.4-2.75 4.5-5.95t3.6-6.2q.8 4.4 2.55 8.4a19.914 19.914 0 0 0 1.265 2.422 22.164 22.164 0 0 0 3.985 4.778q2.5 2.2 5.9 2.2 2.9 0 6-1.4.284-.071.467-.193a.692.692 0 0 0 .333-.607q0-.2-.2-.2a1.633 1.633 0 0 0-.35.038 1.926 1.926 0 0 0-.45.162q-.4.1-.85.25a2.838 2.838 0 0 1-.014.004 2.988 2.988 0 0 1-.936.146q-1.307 0-2.66-.851a9.13 9.13 0 0 1-1.24-.949q-1.188-1.069-2.252-2.596a22.606 22.606 0 0 1-1.398-2.304q-1.65-3.1-2.85-6.75a69.2 69.2 0 0 1-.569-1.813 60.621 60.621 0 0 1-1.331-5.287q-.7-3.45-.8-5.95.1-.5-.7-.1-.525.262-1.179.697a20.867 20.867 0 0 0-.721.503q-1.1.8-1.95 1.65a8.901 8.901 0 0 0-.188.193q-.662.704-.662 1.057l.2 2.4q.1 1.2.3 2.4-.744 1.487-1.714 3.102a64.612 64.612 0 0 1-1.886 2.948q-2.2 3.25-4.65 6.1-2.45 2.85-4.8 4.65-1.524 1.167-2.775 1.577a4.1 4.1 0 0 1-1.275.223q-.641 0-.865-.866a3.479 3.479 0 0 1-.085-.484 6.897 6.897 0 0 1-.024-.259q-.063-.862.061-1.967a18.428 18.428 0 0 1 .163-1.124q.35-2 .85-4 .8-3 2.2-7 1.4-4 3.55-7.9a30.244 30.244 0 0 1 .341-.603 26.752 26.752 0 0 1 4.859-6.147q3.05-2.85 7.05-3.45 1.059-.082 1.255 1.099a3.689 3.689 0 0 1 .045.601 3.835 3.835 0 0 1-.384 1.72 4.041 4.041 0 0 1-1.016 1.28 5.896 5.896 0 0 1-.268.216 4.576 4.576 0 0 1-2.832.984 2.02 2.02 0 0 0-.127.003q-.473.03-.473.297a.126.126 0 0 0 .026.076q.164.224 1.374.224.5 0 .95-.05.45-.05.85-.15 1.15-.25 2.037-.688a5.647 5.647 0 0 0 1.513-1.062 6.186 6.186 0 0 0 .308-.331q.365-.423.589-.852a2.929 2.929 0 0 0 .353-1.367q0-1.5-2.05-2.65a8.845 8.845 0 0 0-1.189-.556 9.389 9.389 0 0 0-3.361-.594 21.171 21.171 0 0 0-3.417.41 16.017 16.017 0 0 0-4.883 1.84q-3.5 2.05-6 5.15-2.5 3.1-4.15 6.5-1.65 3.4-2.75 6.4-.438 1-.719 2.312a19.773 19.773 0 0 0-.281 1.688q-.3 2.4-.1 4.8a16.47 16.47 0 0 0 .006.07q.095 1.085.324 2.037a10.047 10.047 0 0 0 .72 2.043 5.108 5.108 0 0 0 .455.768 3.444 3.444 0 0 0 1.995 1.382q.8.6 1.65 1.05.624.33 1.005.418zM120.24 81.312a1.426 1.426 0 0 0 .362.043q.553 0 1.297-.263a8.444 8.444 0 0 0 .703-.287q1.2-.55 2.1-.85a2.049 2.049 0 0 1-.033-.094q-.201-.628-.251-2.011a27.749 27.749 0 0 1-.016-.995q0-2.025.49-4.256a28.163 28.163 0 0 1 1.06-3.594q1.55-4.25 3.7-8.1 1.411-2.527 2.628-4.386a37.969 37.969 0 0 1 1.222-1.764 10.74 10.74 0 0 1 .536-.713q.301-.366.596-.645a4.348 4.348 0 0 1 .618-.492q.597-.387 1.022-.502a1.265 1.265 0 0 1 .328-.048.916.916 0 0 1 .23.026q.468.122.313.81a2.427 2.427 0 0 1-.043.164 83.103 83.103 0 0 0-.385 1.697q-.417 1.931-.807 4.139a155.233 155.233 0 0 0-.658 4.064q-.85 5.7-.95 11.7a.83.83 0 0 0 .06.136q.239.435 1.117 1.052a13.769 13.769 0 0 0 .623.412q1.6 1 3.35 1.6a15.996 15.996 0 0 0 .284.094q1.245.401 1.642.276a.299.299 0 0 0 .124-.07 43.844 43.844 0 0 1 .972-2.619q1.455-3.584 3.878-8.031a91.573 91.573 0 0 1 2.731-4.672 111.827 111.827 0 0 1 5.419-7.878 1.904 1.904 0 0 0 .081-.109q.229-.333.102-.513a.312.312 0 0 0-.083-.078q-.3-.2-.8.4-4.8 5.9-8.05 11.45a1793.533 1793.533 0 0 1-.673 1.148q-2.799 4.771-4.677 7.902a1.684 1.684 0 0 1-.016-.032q-.292-.618-.362-2.014a19.167 19.167 0 0 1-.022-.954q0-1.375.136-3.024a55.976 55.976 0 0 1 .214-2.076q.35-2.9.95-5.95.6-3.05 1.25-5.6a71.34 71.34 0 0 1 .296-1.127q.471-1.728.854-2.723.4-1.3.4-2.5 0-2.9-2.5-2.9a5.776 5.776 0 0 0-2.736.722q-.96.51-1.91 1.381a15.565 15.565 0 0 0-1.654 1.797q-3.5 4.5-6.3 9.5t-5.1 10.4q0-2.7.35-5.9a71.428 71.428 0 0 1 .19-1.582 63 63 0 0 1 .76-4.518q.412-1.994.872-3.421a16.003 16.003 0 0 1 .428-1.179.444.444 0 0 0 .002-.013q.086-.504-.852-1.837a17.928 17.928 0 0 0-.665-.887 14.715 14.715 0 0 0-1.335-1.463 5.778 5.778 0 0 0-.149-.137q-.923-.82-1.201-.263a114.939 114.939 0 0 1-.732 1.308q-.387.684-.819 1.426a200.438 200.438 0 0 1-1.099 1.866q-1.55 2.6-3.55 5.5-.079.157-.003.344a.747.747 0 0 0 .053.106.84.84 0 0 0 .052.077q.045.059.094.098a.322.322 0 0 0 .204.075q.2 0 .3-.1a101.654 101.654 0 0 0 .012-.016q1.39-1.789 1.988-2.734a15.298 15.298 0 0 1 .037-.06 13.982 13.982 0 0 1 1.263-1.69q-.2 1.3-.75 4.25t-1 6.5a60.258 60.258 0 0 0-.153 1.322 53.259 53.259 0 0 0-.297 5.528 30.159 30.159 0 0 0 .076 2.189 23.239 23.239 0 0 0 .324 2.561 10.522 10.522 0 0 0 .222.958q.414 1.452 1.178 2.292a.954.954 0 0 0 .538.357zm315.862-42.457h2.15a2.292 2.292 0 0 1 .548.069 3.036 3.036 0 0 1 .402.131 33.443 33.443 0 0 1 .258.165q.842.547.842.635a.033.033 0 0 1-.025.023q-.175.077-1.575.077-3.402 0-5.632 1.342a7.445 7.445 0 0 0-1.318 1.008 12.896 12.896 0 0 0-3.177 4.925 15.626 15.626 0 0 0-.323.975q-1.05 3.55-1.3 7.3-.192 2.871-.237 5.185a70.49 70.49 0 0 0-.013 1.365 15.57 15.57 0 0 0 .029.905q.055.943.216 2.218a56.294 56.294 0 0 0 .055.427 20.187 20.187 0 0 0 1.046 4.218 22.32 22.32 0 0 0 .104.282 10.146 10.146 0 0 0 1.816 3.088 9.588 9.588 0 0 0 .684.712 5.596 5.596 0 0 0 2.839 1.413 7.979 7.979 0 0 0 1.511.137q2.6 0 4.6-2.25a17.172 17.172 0 0 0 2.764-4.276 20.01 20.01 0 0 0 .436-1.024 20.411 20.411 0 0 0 .731-2.196q.469-1.754.469-3.254a32.247 32.247 0 0 0-.394-4.941 37.412 37.412 0 0 0-.306-1.709q-.624-3.076-1.884-5.238a11.994 11.994 0 0 0-.316-.512q-1.461-2.135-3.047-3.07a4.964 4.964 0 0 0-2.553-.73 3.5 3.5 0 0 0-1.869.474q-1.399.861-1.729 3.282a12.217 12.217 0 0 0-.102 1.644 25.832 25.832 0 0 0 .065 1.916q.222 2.964 1.201 3.828a1.369 1.369 0 0 0 .934.356 1.158 1.158 0 0 0 .459-.101q.171-.074.347-.201a2.774 2.774 0 0 0 .244-.198 3.986 3.986 0 0 0 .602-.682 3.445 3.445 0 0 0 .248-.418 7.692 7.692 0 0 1 .197-.37q.1-.175.2-.326a4.932 4.932 0 0 1 .003-.004 4.019 4.019 0 0 1 .175-.244q.095-.121.19-.22a2.339 2.339 0 0 1 .035-.036 1.758 1.758 0 0 0 .076-.082q.109-.123.122-.198a.117.117 0 0 0 .002-.02q.5 0 .5.7a3.623 3.623 0 0 1-1.19 2.73 4.915 4.915 0 0 1-.31.27 7.482 7.482 0 0 1-.764.531q-.912.549-1.68.568a2.223 2.223 0 0 1-.056.001 2.408 2.408 0 0 1-1.995-.977 4 4 0 0 1-.505-.873 7.967 7.967 0 0 1-.448-1.418q-.328-1.467-.351-3.526a28.012 28.012 0 0 1-.001-.306q0-5.324 2.342-6.967a4.342 4.342 0 0 1 2.558-.733q3.553 0 6.525 3.403a16.382 16.382 0 0 1 .575.697 19.985 19.985 0 0 1 2.026 3.728 23.695 23.695 0 0 1 .574 1.522q1 2.95 1.2 6.35a27.787 27.787 0 0 0 .038 1.438 30.51 30.51 0 0 0 .012.212 26.978 26.978 0 0 1 .034.791q.016.54.016 1.159a20.188 20.188 0 0 1-.092 1.851q-.152 1.649-.558 3.649-.65 3.2-2 6.25a16.353 16.353 0 0 1-2.012 3.412 14.113 14.113 0 0 1-1.538 1.688 8.812 8.812 0 0 1-.035.032 7.369 7.369 0 0 1-5.165 2.018 7.424 7.424 0 0 1-5.133-2.034 9.472 9.472 0 0 1-.017-.016 15.98 15.98 0 0 1-2.652-3.165 20.109 20.109 0 0 1-1.148-2.035q-1.55-3.15-2.35-6.5a33.105 33.105 0 0 1-.533-2.693q-.2-1.316-.251-2.49a17.992 17.992 0 0 1-.016-.767 52.441 52.441 0 0 1 .558-7.825 40.394 40.394 0 0 1 1.542-6.575q1.483-4.382 3.875-6.855a10.575 10.575 0 0 1 2.525-1.945q2.4-1.1 5.1-1.1zM6.909 29.88a12.664 12.664 0 0 0 5.493 1.275 11.028 11.028 0 0 0 .887-.037q1.671-.135 3.713-.763 2.6-.8 4.55-2.55a5.631 5.631 0 0 0 1.634-2.503 6.976 6.976 0 0 0 .316-2.147 11.051 11.051 0 0 0-.001-.143q-.036-2.801-1.499-4.507a7.183 7.183 0 0 0-.605-.624q-1.433-1.312-3.795-2.126-1.1-.3-1.1.4 0 .6.7.6a15.533 15.533 0 0 1 .425.145q1.874.67 2.841 1.594a3.045 3.045 0 0 1 1.034 2.261 2.461 2.461 0 0 1-.767 1.812 3.869 3.869 0 0 1-.783.588 8.079 8.079 0 0 1-.107.061q-1.518.851-3.643 1.189a29.961 29.961 0 0 1-1.356.184 25.436 25.436 0 0 1-2.844.166q-2.605 0-4.644-.565a10.403 10.403 0 0 1-3.156-1.435q-1.473-1.016-2.198-2.393a6.357 6.357 0 0 1-.702-3.007 6.296 6.296 0 0 1 .004-.245q.099-2.526 2.246-4.005 1.415-.975 3.423-1.653a23.182 23.182 0 0 1 2.577-.697 47.429 47.429 0 0 1 3.415-.595 59.469 59.469 0 0 1 4.785-.455q4.45-.25 8.75-.25a39.577 39.577 0 0 0 1.023-.014q.884-.023 1.875-.084a72.996 72.996 0 0 0 2.002-.152q2.8-.25 5.55-.85a21.594 21.594 0 0 0 .734-.174q2.262-.577 3.816-1.526a4.842 4.842 0 0 0 .87-.667 2.896 2.896 0 0 0 .93-2.133 6.387 6.387 0 0 0-.003-.181q-.008-.302-.047-.515a1.487 1.487 0 0 0-.05-.204q-.214-.64-.427-.825a.266.266 0 0 0-.173-.075q-.3 0-.3 1.2a2.029 2.029 0 0 1-.006.142q-.005.076-.016.163a4.666 4.666 0 0 1-.028.195.783.783 0 0 1-.039.141q-.099.268-.411.659a5.515 5.515 0 0 1-1.014.723q-.554.313-1.251.576a14.153 14.153 0 0 1-1.435.451 32.746 32.746 0 0 1-1.597.372 38.228 38.228 0 0 1-3.753.578q-2.85.3-5.35.4-2.5.1-3.7.1a69.161 69.161 0 0 0-2.23-.037q-1.24 0-2.449.046a55.8 55.8 0 0 0-6.971.691 34.727 34.727 0 0 0-2.082.407q-1.905.435-3.501 1.051a16.976 16.976 0 0 0-3.167 1.592 8.877 8.877 0 0 0-1.037.784 6.468 6.468 0 0 0-2.263 5.066 22.959 22.959 0 0 0 .041 1.395q.235 3.86 1.809 6.455a14.094 14.094 0 0 0 .793 1.173 11.254 11.254 0 0 0 3.907 3.327 14.808 14.808 0 0 0 .357.175zm458.993 45.575.4-1.5q.8-2.9 1.45-5.45a60.82 60.82 0 0 1 1.155-3.979 54.152 54.152 0 0 1 .295-.871 189.078 189.078 0 0 1 .492-1.613q.223-.719.475-1.515a368.717 368.717 0 0 1 .533-1.672 43.542 43.542 0 0 1 2.166-5.425 47.563 47.563 0 0 1 .084-.175 18.306 18.306 0 0 1 1.583-2.698 14.389 14.389 0 0 1 1.667-1.952 6.643 6.643 0 0 1 1.981-1.358 5.992 5.992 0 0 1 2.419-.492q1 0 2 .2t2 .8a1.83 1.83 0 0 1 .14.092q.324.238.218.442a.279.279 0 0 1-.008.016q-.134.223-.548.007a1.981 1.981 0 0 1-.102-.057 1.821 1.821 0 0 0-1.028-.394 2.326 2.326 0 0 0-.172-.006 3.304 3.304 0 0 0-1.467.372q-1.059.523-2.201 1.78a14.728 14.728 0 0 0-.432.498 32.873 32.873 0 0 0-1.865 2.494q-.883 1.296-1.774 2.822a62.024 62.024 0 0 0-.811 1.434q-2.25 4.1-4.15 8.45a164.049 164.049 0 0 0-1.538 3.634q-.682 1.669-1.248 3.178a93.962 93.962 0 0 0-.364.988q-1.25 3.45-1.45 4.85v.6h-.1q-.183.457-1.371 1.124a13.239 13.239 0 0 1-.229.126 16.771 16.771 0 0 1-1.187.579q-.623.273-1.201.456a9.838 9.838 0 0 1-.212.065q-1.183.345-1.006-.136a.559.559 0 0 1 .006-.014 11.652 11.652 0 0 0 .057-.482q.056-.559.09-1.318a37.783 37.783 0 0 0 .003-.05 49.237 49.237 0 0 0 .034-1.074q.016-.733.016-1.576a80.255 80.255 0 0 0-.055-2.884q-.055-1.511-.163-3.185a132.298 132.298 0 0 0-.032-.481q-.25-3.65-.9-7.2a34.646 34.646 0 0 0-.761-3.289 25.361 25.361 0 0 0-1.039-2.961 10.974 10.974 0 0 0-.814-1.572q-.92-1.453-2.136-2.128a2.007 2.007 0 0 0-.313-.126 1.788 1.788 0 0 0-.087-.024q-.2-.05-.4-.05a1.596 1.596 0 0 0-.764.211q-.534.289-1.094.975a7.652 7.652 0 0 0-.242.314 5.808 5.808 0 0 1-.232.255q-.429.445-.668.445-.5 0-.5-.7 0-.9.8-1.6a6.428 6.428 0 0 1 1.945-.824q.827-.207 1.794-.259a12.367 12.367 0 0 1 .661-.017 8.517 8.517 0 0 1 2.56.366 6.711 6.711 0 0 1 3.14 2.084 13.463 13.463 0 0 1 2.088 3.367 18.008 18.008 0 0 1 .962 2.833q.95 3.75 1.2 7.85t.25 7.4zm-205.4-38.1-2.6-8.1a92.416 92.416 0 0 1-8.794 3.955 109.57 109.57 0 0 1-4.356 1.595q-7.15 2.45-14.65 3.95-4.2 10-6.35 20.25a112.165 112.165 0 0 0-1.47 8.557q-.553 4.255-.656 8.06a63.65 63.65 0 0 0-.024 1.733 21.392 21.392 0 0 0 .124 2.378q.133 1.188.409 2.186a9.673 9.673 0 0 0 .517 1.436q1.05 2.3 2.25 2.3 2.282.061 4.603-.866a16.289 16.289 0 0 0 2.897-1.534q3.681-2.422 7.268-6.486a51.33 51.33 0 0 0 .232-.264 76.719 76.719 0 0 0 5.245-6.782 89.326 89.326 0 0 0 1.805-2.718q3.35-5.25 6.15-10.75 2.8-5.5 4.7-10.45 1.9-4.95 2.7-8.45zm-3.1-9.7-1.1-3.5a1.086 1.086 0 0 1 .205-.363q.418-.524 1.61-1.293a22.953 22.953 0 0 1 .635-.394q2.25-1.35 4.05-2.75a75.784 75.784 0 0 0 .178 1.598q.086.707.191 1.483a137.766 137.766 0 0 0 .231 1.619 47.048 47.048 0 0 0 3.278-2.438q1.565-1.28 2.803-2.56a24.969 24.969 0 0 0 .919-1.002q2.6-3 2.6-5.8a4.978 4.978 0 0 0-1.582-3.698 6.525 6.525 0 0 0-.218-.202q-1.433-1.274-3.941-1.534a13.193 13.193 0 0 0-1.359-.066q-8.1 0-14.75 4.2a41.165 41.165 0 0 0-9.434 8.289 49.168 49.168 0 0 0-2.316 2.961 87.998 87.998 0 0 0-8.42 14.405 96.974 96.974 0 0 0-.48 1.045q7.2-1.7 14.15-4.3 6.95-2.6 12.75-5.7zm36.472 51.306a78.036 78.036 0 0 0-.472 1.094 179.033 179.033 0 0 1-.15-4.15q-.05-2.05-.05-4.05 0-4.5.4-9.05a53.507 53.507 0 0 1 .06-.641 58.211 58.211 0 0 1 1.54-8.609q1-3.9 3.05-7.15a8.845 8.845 0 0 1 .386-.565q1.021-1.37 2.396-2.041a6.678 6.678 0 0 1 2.968-.644 4.09 4.09 0 0 1 1.882.443 4.775 4.775 0 0 1 1.268.957q1.35 1.4 1.35 3.4 0 .604-.226 1.39a9.831 9.831 0 0 1-.274.81 42.488 42.488 0 0 1-1.317 2.909 54.62 54.62 0 0 1-2.083 3.791q-2.1 3.5-4.1 7.9-2.4 5-4.35 9.2a538.455 538.455 0 0 0-.302.65q-1.247 2.695-1.976 4.356z"
          vector-effect="non-scaling-stroke"
          stroke-linecap="round"
          fill-rule="evenodd"
          stroke-width=".945"
          style="stroke-width:.25mm;"/>
  </symbol>
</svg>
